<?xml version="1.0" standalone="no"?>
<!DOCTYPE svg PUBLIC "-//W3C//DTD SVG 1.1//EN" "http://www.w3.org/Graphics/SVG/1.1/DTD/svg11.dtd" >
<svg xmlns="http://www.w3.org/2000/svg">
<metadata>
This is a custom SVG webfont generated by Fontspring.
Designer    : Chank Diesel
Foundry     : Chank Co
Foundry URL : http://www.chank.com
</metadata>
<defs>
<font id="webfont" horiz-adv-x="587" >
<font-face units-per-em="1000" ascent="800" descent="-200" />
<missing-glyph horiz-adv-x="296" />
<glyph unicode=" "  horiz-adv-x="296" />
<glyph unicode="&#x09;" horiz-adv-x="296" />
<glyph unicode="&#xa0;" horiz-adv-x="296" />
<glyph unicode="!" horiz-adv-x="181" d="M310 716l-136 -511h-73l118 511h91zM151 47q-6 -25 -26 -40.5t-41 -15.5q-20 0 -32 15.5t-6 40.5q7 25 26.5 40.5t39.5 15.5q21 0 33 -15.5t6 -40.5z" />
<glyph unicode="&#x22;" horiz-adv-x="323" d="M450 716l-85 -306h-62l68 306h79zM285 716l-85 -306h-62l68 306h79z" />
<glyph unicode="#" horiz-adv-x="654" d="M747 542l-23 -61h-147l-56 -173h148l-22 -60h-145l-56 -172l-61 2l55 170h-140l-55 -172l-62 2l55 170h-147l21 60h146l55 173h-145l23 61h142l50 153l61 -2l-48 -151h140l15 48t18.5 57t15.5 48l61 -2l-48 -151h149zM515 481h-140l-56 -173h140z" />
<glyph unicode="$" horiz-adv-x="605" d="M615 206q-14 -58 -53.5 -100t-91 -63t-98 -30t-90.5 -9q-19 0 -28 1l-47 -100l-58 2l48 105q-80 20 -141 69l48 69q69 -49 127 -63l111 232q-47 8 -82 20.5t-66 33.5t-42 55t0 79q13 53 48.5 92.5t83 60t94 29.5t92.5 9q32 0 46 -2q13 26 28 61l11 22l57 -6l-43 -90 q84 -21 124 -75l-48 -62q-50 53 -108 66l-105 -220l32 -5.5t33 -7t32.5 -9.5t29 -13.5t26 -18t19.5 -23t13 -29t4 -36t-6 -44.5zM538 206q14 53 -35 77q-29 17 -106 28l-110 -232h20q35 1 70.5 8t69 21.5t58.5 39.5t33 58zM376 400q105 218 106 221q-15 3 -31 3 q-86 0 -147.5 -32t-74.5 -83q-10 -44 30 -70t117 -39z" />
<glyph unicode="%" horiz-adv-x="669" d="M658 176q-15 -62 -65.5 -106t-107.5 -44t-86.5 44t-14.5 106q16 62 67.5 106t108.5 44t85.5 -44t12.5 -106zM423 522q-16 -61 -67 -105.5t-108 -44.5t-85.5 44.5t-12.5 105.5q15 62 65.5 106t107.5 44t86 -44t14 -106zM785 701l-669 -692h-74l669 693zM355 523 q9 37 -5 63.5t-42 26.5q-27 0 -54 -26.5t-36 -63.5q-10 -38 4 -65t41 -27q28 0 55 26.5t37 65.5zM589 176q10 38 -3.5 64.5t-40.5 26.5q-29 0 -55.5 -26.5t-36.5 -64.5q-9 -38 4.5 -64.5t42.5 -26.5q27 0 53.5 26.5t35.5 64.5z" />
<glyph unicode="&#x26;" horiz-adv-x="681" d="M652 13l-80 -21q-8 10 -21.5 30.5t-16.5 25.5q-16 28 -34 54q-119 -111 -228 -111q-37 0 -68 5.5t-60.5 19.5t-45.5 38t-23 60t7 85q10 38 32.5 71.5t57 61t62 45t65.5 38.5q-67 96 -50 166q19 74 85 109t134 35q29 0 57 -8.5t51 -25.5t32.5 -46.5t0.5 -66.5 q-7 -27 -24 -52t-34 -42t-47.5 -37t-45.5 -28.5t-46 -24.5l114 -175q69 73 118 150l54 -37q-48 -76 -137 -169l90 -141zM465 159l-60 91q-57 89 -69 106l-48.5 -28t-48 -32.5t-48 -46.5t-25.5 -52q-18 -72 22 -102.5t104 -30.5q72 0 173 95zM529 578q10 39 -16 60t-60 21 q-39 0 -75.5 -20t-47.5 -64q-10 -41 39 -114l8 -12l14 8q26 14 41 23t39 26t38.5 35t19.5 37z" />
<glyph unicode="'" horiz-adv-x="138" d="M285 716l-85 -306h-62l68 306h79z" />
<glyph unicode="(" horiz-adv-x="242" d="M400 763l2 -2q-171 -157 -228 -392q-29 -116 -20 -221t53 -171h-67q-41 66 -50 164.5t22 227.5q60 243 222 394h66z" />
<glyph unicode=")" horiz-adv-x="242" d="M306 369q-31 -123 -90.5 -225t-133.5 -167h-67q77 66 139 171.5t91 220.5q58 235 -36 394h70q87 -151 27 -394z" />
<glyph unicode="*" horiz-adv-x="430" d="M534 519l-160 -41l64 -130l-66 -47l-50 146l-124 -143l-43 46l132 129l-138 44l36 70l131 -64q5 21 37 174h71l-55 -174l162 59z" />
<glyph unicode="+" horiz-adv-x="393" d="M434 275h-140l-42 -168h-64l42 168h-140l17 67h140l42 169h64l-42 -169h140z" />
<glyph unicode="," horiz-adv-x="166" d="M130 23q-10 -40 -47.5 -85.5t-80.5 -71.5l-20 37q23 18 50.5 47t32.5 48l-6 2q-18 1 -26 15t-3 34q6 23 25.5 37.5t38.5 14.5q56 0 36 -78z" />
<glyph unicode="-" horiz-adv-x="286" d="M325 246h-246l16 64h246z" />
<glyph unicode="." horiz-adv-x="172" d="M138 46q-6 -24 -25 -39.5t-39 -15.5t-31.5 15.5t-5.5 39.5t25.5 39.5t39.5 15.5t31 -15.5t5 -39.5z" />
<glyph unicode="/" horiz-adv-x="448" d="M630 742l-567 -770h-65l565 770h67z" />
<glyph unicode="0" horiz-adv-x="641" d="M682 341q-40 -158 -148 -253.5t-226 -95.5q-117 0 -178 95.5t-21 253.5q42 171 150.5 268.5t226.5 97.5t178 -97.5t18 -268.5zM598 341q33 133 -6.5 210.5t-125.5 77.5t-163.5 -77t-110.5 -211q-31 -123 9 -197t126 -74q85 0 162.5 74.5t108.5 196.5z" />
<glyph unicode="1" horiz-adv-x="425" d="M302 0h-81l134 541l-121 -154l-51 44l222 275h73z" />
<glyph unicode="2" horiz-adv-x="581" d="M659 483q-9 -34 -25 -63.5t-43.5 -53.5t-47 -39.5t-58.5 -33.5t-53 -24t-54 -22q-7 -4 -19 -7h1q-35 -14 -57.5 -25t-53.5 -30.5t-53.5 -47t-36.5 -61.5h391l-19 -77h-479q1 4 8 35q5 30 9 41q21 43 49 78.5t53 58t64 44.5t64 33l70 30l46 19.5t49 24.5t51 32.5t38 38.5 t25 48q17 68 -19 110t-114 42q-108 0 -221 -72l-16 69q128 81 256 81q45 0 84.5 -13.5t71 -41t42 -71t-2.5 -103.5z" />
<glyph unicode="3" horiz-adv-x="577" d="M579 192q-24 -99 -105.5 -149.5t-184.5 -50.5q-125 0 -231 83l48 70q99 -76 202 -76q81 0 127 34t59 87q11 46 -6 77.5t-49 43.5h1q-19 2 -58 2q-42 0 -60 -1q-9 -1 -32 -1q0 9 7 39q6 24 12 39q3 0 10.5 -0.5t11.5 -0.5q28 -2 47 -2q23 0 41 3q52 9 97 40.5t57 79.5 q13 52 -16 85.5t-110 33.5q-102 0 -240 -76l-12 70q145 83 271 83q103 0 160 -50t32 -148q-25 -99 -138 -154q87 -48 59 -161z" />
<glyph unicode="4" d="M596 174h-84l-43 -174h-80l43 174h-363l14 57l497 475h65l-114 -457h84zM451 249l81 327l-342 -327h261z" />
<glyph unicode="5" horiz-adv-x="599" d="M602 213q-16 -65 -55.5 -111.5t-90 -68.5t-94 -31.5t-85.5 -9.5q-122 0 -220 85l48 69q90 -76 191 -76q80 0 142.5 36.5t80.5 108.5q18 71 -14 112t-102 41q-66 0 -111 -14.5t-98 -49.5h-75l137 397h429l-19 -77h-359l-84 -236q92 51 200 51q43 0 79 -11t66.5 -37.5 t38.5 -69.5t-5 -108z" />
<glyph unicode="6" horiz-adv-x="611" d="M623 219q-29 -115 -118.5 -171t-201.5 -56q-125 0 -175.5 99t-10.5 261q40 159 150 256.5t232 97.5q73 0 116 -15.5t78 -50.5l-46 -59q-33 29 -68 40.5t-101 11.5q-91 0 -172 -78t-112 -202q-3 -8 -5 -24l-2 -7q112 116 255 116q43 0 80.5 -13t66 -40t38 -68t-3.5 -98z M552 223q17 68 -26 106.5t-106 36.5q-59 -3 -124 -37t-116 -103q2 -74 37 -116t102 -42q85 0 149 37t84 118z" />
<glyph unicode="7" horiz-adv-x="574" d="M688 629l-522 -629h-86l516 624h-401l19 77h492z" />
<glyph unicode="8" horiz-adv-x="556" d="M564 181q-23 -89 -108 -138.5t-181 -49.5t-159 48t-41 134q17 67 67 117.5t110 71.5q-50 22 -76.5 61.5t-12.5 93.5q23 91 103 138.5t185 47.5t159.5 -47.5t32.5 -136.5q-25 -103 -163 -158q49 -25 74 -72.5t10 -109.5zM483 183q15 58 -27.5 102t-105.5 43 q-68 0 -124.5 -44t-73.5 -109q-12 -50 27 -81.5t107 -31.5q72 0 128 33.5t69 87.5zM569 523q14 53 -21.5 84t-110.5 31t-129.5 -31t-67.5 -85q-12 -47 32 -80.5t113 -46.5q160 35 184 128z" />
<glyph unicode="9" horiz-adv-x="606" d="M652 347q-40 -160 -149 -257.5t-230 -97.5q-73 0 -117.5 16t-78.5 50l46 61q34 -30 68.5 -41.5t100.5 -11.5q91 0 172.5 78t112.5 202l5 20q-118 -121 -256 -121q-92 0 -148.5 61t-30.5 166q20 80 76.5 135t119 77t126.5 22q125 0 174 -98.5t9 -260.5zM591 464 q1 79 -34 122.5t-105 43.5q-83 0 -147 -37.5t-86 -123.5q-17 -72 24.5 -112t103.5 -40q59 0 125.5 37.5t118.5 109.5z" />
<glyph unicode=":" horiz-adv-x="188" d="M160 88q-6 -25 -27 -42.5t-42 -17.5t-33.5 17.5t-6.5 42.5q6 26 28 43.5t43 17.5t33 -17.5t5 -43.5zM238 399q-6 -26 -27 -43t-42 -17t-33.5 17t-6.5 43q7 25 28 42.5t42 17.5t33.5 -17.5t5.5 -42.5z" />
<glyph unicode=";" horiz-adv-x="188" d="M166 85q-11 -42 -50.5 -89t-84.5 -76l-20 40q76 63 86 99q-1 0 -3 1t-3 1q-17 2 -26 16.5t-5 34.5q6 24 27 39.5t41 15.5q58 0 38 -82zM238 400q-7 -26 -27.5 -43.5t-41.5 -17.5t-33.5 17.5t-6.5 43.5q6 25 27.5 42t42.5 17t33.5 -17t5.5 -42z" />
<glyph unicode="&#x3c;" horiz-adv-x="532" d="M499 25l-397 272l15 62l530 262l-22 -89l-416 -205l312 -212z" />
<glyph unicode="=" horiz-adv-x="463" d="M517 402h-383l17 68h383zM462 184h-383l17 68h383z" />
<glyph unicode="&#x3e;" horiz-adv-x="542" d="M570 297l-531 -272l22 90l417 212l-313 205l22 89l398 -262z" />
<glyph unicode="?" horiz-adv-x="502" d="M600 537q-11 -43 -29 -73.5t-45 -50.5t-48 -30t-56 -23h1q-26 -10 -39 -15.5t-35 -18.5t-34.5 -26.5t-25.5 -36.5t-20 -52q-2 -6 -3 -15t-2 -12q1 -3 -1 -12h-73q0 22 9 60q11 45 31 77t50.5 53.5t51.5 31.5t60 25h-1q26 10 36.5 14.5t30.5 15.5t29.5 20.5t20 25.5 t15.5 36q7 36 0.5 59.5t-27 37.5t-42.5 19.5t-46 5.5q-61 0 -112.5 -21t-114.5 -71l-10 70q111 97 260 97q38 0 71 -9.5t62 -32t38 -59t-2 -90.5zM246 46q-6 -23 -24 -38t-37 -15t-29.5 15t-4.5 38q5 21 23 36.5t37 15.5t29.5 -15t5.5 -37z" />
<glyph unicode="@" horiz-adv-x="774" d="M820 387q-26 -105 -97 -181.5t-149 -76.5q-37 0 -61 21.5t-29 54.5q-75 -58 -134 -58q-63 0 -88 49.5t-6 127.5l10 32q30 81 97 142.5t140 61.5q68 0 92 -77l23 43l67 -9q-1 -1 -11 -20t-18 -32l-16 -28q-23 -40 -64 -121q-12 -26 -18 -48q-9 -35 0.5 -55.5t37.5 -20.5 q44 0 93 56t69 138q29 115 -34.5 190t-167.5 75q-74 0 -148 -30t-137 -97.5t-86 -159.5q-33 -133 30 -225.5t190 -92.5q42 0 100 20v-55q-66 -22 -114 -22q-154 0 -230.5 107t-36.5 267q27 111 103.5 192t165.5 117t177 36q60 0 113.5 -23t90 -65t50.5 -101.5t-4 -131.5z M547 391q4 52 -13.5 80.5t-45.5 28.5q-35 0 -82 -45.5t-69 -103.5q-5 -13 -11 -35q-13 -52 1.5 -77.5t43.5 -25.5q23 0 61 19t64 50l-1 -1q5 22 46 100q1 1 3 5t3 5z" />
<glyph unicode="A" horiz-adv-x="675" d="M650 0h-91l-22 170h-321l-107 -170h-89l459 717h73zM527 247l-48 337l-215 -337h263z" />
<glyph unicode="B" horiz-adv-x="622" d="M609 193q-24 -94 -102 -143.5t-163 -49.5h-302l178 714h282q92 0 144.5 -51t29.5 -143q-26 -106 -140 -156v-5q42 -18 64.5 -63.5t8.5 -102.5zM520 195q14 55 -17 90t-90 35h-203l-61 -244h200q61 0 109 31t62 88zM592 516q15 57 -16.5 90t-91.5 33h-194l-62 -244 q34 0 100 -0.5t101 -0.5q54 0 101.5 33t61.5 89z" />
<glyph unicode="C" horiz-adv-x="709" d="M694 114l-1 -2q-146 -124 -322 -124q-60 0 -113.5 24t-93.5 71t-53.5 116t7.5 160q27 108 99.5 194.5t161 131t172.5 44.5q158 0 257 -116l-61 -69q-91 103 -213 103q-100 0 -197.5 -81t-129.5 -208q-17 -69 -8 -122.5t37 -91t68.5 -57t86.5 -19.5q127 0 270 107z" />
<glyph unicode="D" horiz-adv-x="684" d="M716 356q-21 -85 -68 -155t-105.5 -112.5t-121.5 -65.5t-123 -23h-256l178 714h268q125 0 197.5 -95.5t30.5 -262.5zM632 355q34 136 -20 209.5t-158 73.5h-165l-140 -561h163q61 0 124 30t118.5 95t77.5 153z" />
<glyph unicode="E" d="M536 0h-489l178 714h478l-20 -77h-389l-59 -238h316l-19 -77h-316l-61 -243h400z" />
<glyph unicode="F" horiz-adv-x="560" d="M676 637h-382l-64 -256h304l-19 -78h-304q-6 -25 -23 -90.5l-31 -122l-22 -90.5h-88l179 714h470z" />
<glyph unicode="G" horiz-adv-x="721" d="M753 385l-72 -290q-42 -29 -114 -62q-96 -42 -189 -42q-62 0 -116 24t-92.5 71.5t-51 116.5t8.5 159q42 166 167.5 266t262.5 100q80 0 135 -21q69 -27 112 -82l-59 -64q-42 44 -89 65q-47 22 -119 22q-103 0 -198 -79.5t-126 -205.5q-32 -129 27 -209.5t159 -80.5 q109 0 214 68l-3 -1l43 169h-225l29 76h296z" />
<glyph unicode="H" horiz-adv-x="657" d="M592 0h-90l78 313h-359l-78 -313h-91l178 715h91l-80 -320h359l80 320h90z" />
<glyph unicode="I" horiz-adv-x="241" d="M168 0h-88l178 715h88z" />
<glyph unicode="J" horiz-adv-x="231" d="M174 47q-15 -63 -64 -123.5t-110 -87.5q-45 -20 -104 -20q-29 0 -47 9l34 71q42 -13 107 14q68 32 98 151l163 654h90z" />
<glyph unicode="K" horiz-adv-x="607" d="M572 0h-96l-134 367l-144 -122l-61 -245h-89l178 715h89l-88 -352l415 352h97l-2 -8l-319 -273l155 -426z" />
<glyph unicode="L" horiz-adv-x="568" d="M528 0h-480l178 715h89l-158 -633h391z" />
<glyph unicode="M" horiz-adv-x="897" d="M857 0h-85l57 535l-376 -531h-44l-85 546l-1 -4l-216 -546h-81l275 716h80l96 -563l402 563h66z" />
<glyph unicode="N" horiz-adv-x="665" d="M598 -1h-56l-274 543l-135 -542h-88l178 715h67l268 -531l133 531h86z" />
<glyph unicode="O" horiz-adv-x="790" d="M836 357q-41 -161 -173 -265t-277 -104q-144 0 -224.5 105t-40.5 265q41 163 172.5 267t276.5 104q144 0 224.5 -106t41.5 -266zM750 357q30 122 -27 206.5t-173 84.5q-115 0 -214.5 -84.5t-129.5 -206.5q-30 -120 27.5 -204t172.5 -84q116 0 215 83.5t129 204.5z" />
<glyph unicode="P" horiz-adv-x="569" d="M648 488q-25 -103 -111.5 -163.5t-174.5 -60.5h-166l-65 -264h-89l178 715h253q91 0 147 -57t28 -170zM564 487q17 69 -16.5 106.5t-90.5 37.5h-169l-72 -288h162q55 0 112.5 40t73.5 104z" />
<glyph unicode="Q" horiz-adv-x="796" d="M838 356q-34 -137 -139 -235.5t-231 -124.5q25 -52 76.5 -92t115.5 -50l-46 -74q-89 18 -159.5 76.5t-96.5 132.5q-133 9 -202.5 112t-32.5 255q40 159 173 266t277 107q71 0 129.5 -28t94.5 -77.5t49 -118t-8 -149.5zM750 356q30 122 -26.5 205.5t-171.5 83.5 t-213 -83.5t-128 -205.5q-29 -120 27 -203t171 -83q116 0 213.5 82.5t127.5 203.5z" />
<glyph unicode="R" horiz-adv-x="607" d="M564 0h-92l-143 300h-113l-74 -300h-88l177 715h290q85 0 131 -55.5t23 -149.5q-21 -84 -94.5 -143.5t-151.5 -63.5l3 -3q2 0 3 -2l1 -2l130 -286zM591 509q15 58 -15 93.5t-82 35.5h-193l-65 -259h194q50 0 99 38t62 92z" />
<glyph unicode="S" horiz-adv-x="624" d="M620 207q-15 -61 -55 -106t-91.5 -67t-98 -32t-89.5 -10q-133 0 -231 86l54 71q98 -77 191 -77q46 0 92.5 12t88.5 44t54 79q7 28 -0.5 48.5t-29 33t-42.5 19t-52 12.5q-40 6 -58 11q-225 40 -187 193q14 57 50 98.5t83.5 63.5t93.5 32t91 10q145 0 230 -93l-60 -66 q-78 80 -190 80q-83 0 -140.5 -34t-71.5 -89q-6 -22 1 -38.5t27.5 -29t35 -18.5t40.5 -14q13 -4 75 -17q55 -10 87 -21q136 -48 102 -181z" />
<glyph unicode="T" horiz-adv-x="677" d="M796 637h-260l-158 -637h-89l158 637h-263l20 78h612z" />
<glyph unicode="U" horiz-adv-x="684" d="M707 356q-44 -175 -140 -269t-234 -94q-141 0 -192.5 95t-9.5 263l91 364h88l-92 -365q-69 -274 135 -274q197 0 265 276l91 363h88z" />
<glyph unicode="V" horiz-adv-x="671" d="M811 706l-450 -707h-73l-100 707l2 9h84l79 -585l366 585h94z" />
<glyph unicode="W" horiz-adv-x="938" d="M219 -1l-34 707l2 9h84l18 -545l299 541h75l17 -534l296 538h94l-2 -9l-392 -707h-70l-17 557l-304 -557h-66z" />
<glyph unicode="X" horiz-adv-x="639" d="M596 0h-94l-125 291l-269 -291h-88l1 7l326 351l-146 348l2 9h91l121 -284l263 284h88l-2 -9l-318 -344l151 -354q1 -1 0 -4t-1 -4z" />
<glyph unicode="Y" horiz-adv-x="580" d="M736 705l-342 -433h1l-67 -272h-86l69 278l-122 428l2 9h87l100 -355l276 355h85z" />
<glyph unicode="Z" horiz-adv-x="614" d="M731 655l-571 -575h411l-19 -80h-529l15 57l576 580h-420l20 78h532z" />
<glyph unicode="[" horiz-adv-x="266" d="M217 -81h-193l217 875h190l-17 -70h-107l-183 -736h111z" />
<glyph unicode="\" horiz-adv-x="446" d="M444 0h-64l-197 715h64z" />
<glyph unicode="]" horiz-adv-x="291" d="M206 -81h-193l18 69h111l183 736h-107l17 70h189z" />
<glyph unicode="^" horiz-adv-x="394" d="M488 499h-79l-55 154l-130 -154h-71l197 243h55z" />
<glyph unicode="_" horiz-adv-x="288" d="M266 -139h-311l16 65h311z" />
<glyph unicode="`" horiz-adv-x="386" d="M462 582h-84l-135 156h107z" />
<glyph unicode="a" horiz-adv-x="562" d="M534 8l-54 -12q-54 0 -69 36q0 3 -2 11l-3 12l-22 -16q-68 -45 -152 -45q-95 0 -137 46t-23 124q20 78 87.5 124t165.5 46q57 0 124 -19q3 0 7 -2q1 1 2 0l5 21q16 60 -4 88q-27 36 -93 36q-96 0 -199 -63l2 69q35 24 92 42.5t123 18.5q103 0 141 -47q43 -51 19 -148 l-49 -194q-15 -61 7 -68q19 -5 43 4zM362 89q27 15 49 35q0 14 9 37l24 92q-70 21 -133 21q-68 0 -107 -29.5t-51 -77.5q-12 -47 10.5 -76.5t87.5 -29.5q59 0 111 28z" />
<glyph unicode="b" horiz-adv-x="533" d="M559 270q-31 -124 -122.5 -201t-184.5 -77q-73 0 -122 56l-11 -48h-82l184 739h82l-63 -250q70 40 143 40q95 0 150.5 -68.5t25.5 -190.5zM478 267q21 85 -14.5 135.5t-102.5 50.5q-69 0 -144 -56l-62 -252l-1 1q16 -31 45.5 -53t66.5 -22q65 0 128.5 56.5t83.5 139.5z " />
<glyph unicode="c" horiz-adv-x="510" d="M581 455l-49 -67q-66 59 -144 59q-71 0 -133.5 -53t-83.5 -139q-20 -81 16 -132t107 -51q73 0 164 57l15 -67q-109 -70 -198 -70q-100 0 -158.5 70.5t-28.5 191.5q32 128 125 199t194 71q47 0 94 -18t80 -51z" />
<glyph unicode="d" horiz-adv-x="542" d="M478 0h-80l10 41q-81 -49 -146 -49q-95 0 -150.5 69.5t-25.5 187.5q31 127 122 204.5t186 77.5q75 0 124 -46l64 253h80zM432 140l64 252q-48 61 -117 61q-66 0 -128.5 -56.5t-84.5 -144.5q-20 -81 15.5 -131.5t102.5 -50.5q71 0 150 71z" />
<glyph unicode="e" horiz-adv-x="555" d="M567 237h-397q-14 -71 19 -121t105 -50q88 0 182 55l8 -68q-36 -24 -92.5 -42.5t-113.5 -18.5q-112 0 -164.5 70.5t-22.5 191.5q32 130 118.5 200t192.5 70q235 0 165 -287zM385 454q-61 0 -114 -40.5t-82 -107.5h312q10 60 -17 104t-99 44z" />
<glyph unicode="f" horiz-adv-x="340" d="M501 730l-30 -74q-27 9 -46 9q-43 0 -75 -33.5t-45 -80.5l-9 -35h130l-16 -68h-130l-120 -472q-11 -40 -39 -82t-59 -63q-53 -36 -108 -36q-30 0 -62 13l27 73q28 -9 47 -9q29 0 61 21q17 13 34 40t24 52l117 463h-80l16 68h80l13 56q20 73 75.5 122t130.5 49 q25 0 64 -13z" />
<glyph unicode="g" horiz-adv-x="540" d="M609 516l-127 -510q-28 -110 -121 -170q-72 -43 -159 -43q-109 0 -175 54l42 69q78 -49 150 -49q65 0 122 46q46 41 61 101l8 34q-70 -48 -150 -48q-94 0 -147.5 69t-24.5 187q31 123 120 195.5t185 72.5q74 0 125 -49l10 41h81zM436 146l59 239q-1 2 -4 6.5t-13 14.5 t-22 18t-33 14.5t-45 6.5q-67 0 -126.5 -51t-80.5 -135q-20 -81 12.5 -130.5t98.5 -49.5q37 0 79.5 19.5t74.5 47.5z" />
<glyph unicode="h" horiz-adv-x="550" d="M485 0h-82l74 298q24 96 -9 126q-22 23 -69 23q-60 0 -188 -96l-87 -351h-81l184 738h81l-74 -295q112 81 189 81q70 0 105 -28q66 -56 35 -180z" />
<glyph unicode="i" horiz-adv-x="178" d="M124 0h-82l128 516h82zM303 687q-5 -22 -23.5 -36.5t-38.5 -14.5t-30 14.5t-5 36.5t23 37t38 15t30.5 -15t5.5 -37z" />
<glyph unicode="j" horiz-adv-x="190" d="M260 516l-131 -522q-25 -100 -88 -152q-46 -38 -100 -44q-30 -4 -69 3l23 77q27 -3 49 0q30 3 55 25q32 27 48 91l130 522h83zM311 687q-5 -22 -23.5 -37t-38.5 -15t-31 15t-6 37t24 37t39 15t30.5 -15t5.5 -37z" />
<glyph unicode="k" horiz-adv-x="496" d="M459 0h-81l-100 267q-32 -27 -55 -43l-57 -45l-44 -179h-81l185 738h80l-112 -456l143 114l150 120h91l3 -6l-227 -183l56 -157q29 -80 55 -162z" />
<glyph unicode="l" horiz-adv-x="195" d="M131 0h-82l184 738h82z" />
<glyph unicode="m" horiz-adv-x="884" d="M824 0h-82l74 298q19 79 0 114t-75 35q-57 0 -178 -89q-1 -17 -8 -42l-78 -316h-81l74 298q19 78 -0.5 113.5t-75.5 35.5q-58 0 -178 -92l-88 -355h-82l128 516h82l-17 -70q104 78 177 78q53 0 93 -23t52 -73q119 96 201 96q85 0 126 -50.5t14 -157.5z" />
<glyph unicode="n" horiz-adv-x="548" d="M484 0h-80l74 298q37 149 -81 149q-61 0 -188 -95l-87 -352h-81l128 516h81l-18 -72q112 80 186 80q87 0 129 -50t15 -158z" />
<glyph unicode="o" horiz-adv-x="548" d="M573 256q-31 -126 -115.5 -195t-190.5 -69t-157 69.5t-20 194.5t117 196.5t192 71.5q105 0 155 -71.5t19 -196.5zM492 257q20 81 -9.5 135t-102.5 54t-130.5 -54.5t-76.5 -134.5q-20 -78 10 -132t103 -54t129.5 53t76.5 133z" />
<glyph unicode="p" horiz-adv-x="534" d="M565 265q-32 -124 -120 -198.5t-183 -74.5q-76 0 -127 56l-61 -248h-81l177 716h82l-10 -41q85 50 150 50q94 0 148.5 -69t24.5 -191zM482 261q21 86 -12.5 135.5t-100.5 49.5q-76 0 -148 -54l-61 -247l-1 1q15 -31 47 -53t70 -22q65 0 125 53.5t81 136.5z" />
<glyph unicode="q" horiz-adv-x="537" d="M428 -200h-81l60 242q-75 -49 -151 -49q-95 0 -148 66t-23 187q32 127 122 203.5t186 76.5q70 0 122 -50l10 40h81zM431 140l62 244q-45 64 -116 64q-66 0 -128 -56.5t-84 -143.5q-21 -84 12.5 -131t101.5 -47q36 0 78.5 20.5t73.5 49.5z" />
<glyph unicode="r" horiz-adv-x="379" d="M466 510l-34 -93q-18 28 -49 28q-38 0 -79.5 -27t-99.5 -78l2 1l-85 -341h-83l128 516h83l-19 -77q104 85 177 85q42 0 59 -14z" />
<glyph unicode="s" horiz-adv-x="508" d="M497 148q-12 -46 -43.5 -79.5t-72 -48.5t-75 -21.5t-65.5 -6.5q-102 0 -183 73l35 74q82 -75 165 -75q49 0 97.5 20t59.5 64q9 37 -30 55t-83 18q-37 0 -68 5t-64.5 18t-48.5 42t-4 72q12 49 43 84t71.5 52t76 24t69.5 7q115 0 172 -66l-34 -71q-70 66 -155 66 q-53 0 -102 -21.5t-61 -71.5q-5 -17 7.5 -30t34 -20t42.5 -10t40 -3q21 0 41 -2t45 -8t42.5 -16.5t33 -27t18 -40.5t-3.5 -56z" />
<glyph unicode="t" horiz-adv-x="370" d="M355 118l-1 -75q-54 -46 -113 -46q-55 0 -87 39q-20 24 -25.5 64.5t5.5 84.5l65 262h-78l17 69h78l28 112l96 55l-42 -167h154l-17 -69h-154l-63 -252q-13 -54 7 -92q20 -25 42 -25q31 0 88 40z" />
<glyph unicode="u" horiz-adv-x="524" d="M475 0h-82l17 69q-111 -76 -186 -76q-69 0 -108 33q-29 27 -39.5 67.5t0.5 83.5l84 339h81l-82 -329q-15 -62 16 -93q31 -24 70 -24q63 0 187 93l88 353h82z" />
<glyph unicode="v" horiz-adv-x="482" d="M586 516l-328 -517h-63l-62 517h86l42 -387l239 387h86z" />
<glyph unicode="w" horiz-adv-x="776" d="M866 516l-285 -518h-65l-44 389l-232 -389h-64l-40 518h84l26 -375l227 373h63l43 -378l207 380h80z" />
<glyph unicode="x" horiz-adv-x="512" d="M609 516l-249 -254l114 -262h-93l-88 198l-202 -198h-83l251 253l-114 263h95l88 -198l198 198h83z" />
<glyph unicode="y" horiz-adv-x="541" d="M647 516l-404 -626q-60 -90 -178 -90h-48l18 74h37q69 0 112 56l59 98q-15 68 -48 231.5t-54 256.5h91l79 -381l247 381h89z" />
<glyph unicode="z" horiz-adv-x="497" d="M565 466l-398 -392h294l-18 -74h-414l10 42l409 399h-302l19 75h412z" />
<glyph unicode="{" horiz-adv-x="295" d="M246 -57l-78 -17q-54 0 -71 39.5t-1 106.5q9 33 24 75q14 38 23 73q12 59 1 78t-52 29l12 47q39 6 64 26.5t36 65.5q7 30 17 88q7 50 17 88q16 67 54.5 105.5t92.5 38.5q35 0 62 -13l-21 -41l-19 1q-63 7 -85 -83q-8 -32 -18 -89q-6 -49 -17 -88q-8 -35 -33 -70t-55 -54 q22 -20 29 -56.5t-3 -72.5q-9 -36 -24 -76q-4 -15 -5 -17q-9 -26 -19 -60q-13 -52 7 -72h-1q12 -12 33 -12q16 0 34 5z" />
<glyph unicode="|" horiz-adv-x="218" d="M129 -28h-68l193 776h68z" />
<glyph unicode="}" horiz-adv-x="295" d="M350 326l-105 -106q-6 -23 -12 -73q-5 -41 -14 -75q-16 -67 -53.5 -106.5t-91.5 -39.5q-29 0 -69 18l19 44q42 -10 70 7h-1q30 23 42 72q8 33 15 77q0 1 3 14q2 21 11 62q9 36 34 71.5t58 57.5q-21 19 -29.5 54.5t0.5 69.5q9 35 27 88q16 43 28 89q11 45 0.5 66t-44.5 17 l-20 -1l-1 41q32 13 68 13q54 0 74 -38.5t4 -105.5q-11 -43 -27 -88q-19 -51 -28 -88q-11 -45 3 -65.5t51 -26.5z" />
<glyph unicode="~" horiz-adv-x="458" d="M526 683l55 -12q-10 -41 -57 -89.5t-92 -48.5q-19 0 -36 9t-25 18t-20 25q-26 35 -43 35q-20 0 -40 -21t-33 -57l-55 11q13 46 56 95t89 49q48 0 86 -51q25 -35 39 -35q21 0 42 20.5t34 51.5z" />
<glyph unicode="&#xa1;" horiz-adv-x="181" d="M129 -8h-90l140 532h73zM303 663q-6 -24 -25.5 -38.5t-39.5 -14.5q-21 0 -33 14.5t-6 38.5t25 38.5t40 14.5q20 0 32.5 -14.5t6.5 -38.5z" />
<glyph unicode="&#xa2;" horiz-adv-x="446" d="M517 517l-46 -55q-47 41 -63 48l-54 -117l-89 -191h15q56 0 137 58l21 -53q-93 -67 -175 -67q-9 0 -23 2q-2 -5 -14 -31.5l-18 -39.5l-33 -74l-55 7l71 152q-113 42 -72 206q26 105 95.5 162.5t159.5 57.5h10q4 10 12.5 28l12.5 27q3 6 12.5 27t14.5 31l52 -8l-52 -115 q41 -13 81 -55zM356 521h-9q-49 0 -94.5 -45.5t-63.5 -116.5q-25 -99 31 -138z" />
<glyph unicode="&#xa3;" horiz-adv-x="614" d="M578 0h-478l76 306h-77l19 76h77l6 24q78 313 272 313q131 0 153 -110l-70 -47q-20 80 -101 80q-58 0 -97.5 -51t-72.5 -185l-6 -24h130l-19 -76h-131l-57 -229h395z" />
<glyph unicode="&#xa4;" horiz-adv-x="788" d="M757 173l6 -81q-138 -105 -299 -105q-97 0 -173 70.5t-85 182.5h-125l38 53h90q2 29 9 59q9 31 14 42h-112l37 54h97q61 119 172 193.5t218 74.5q80 0 144.5 -27.5t96.5 -74.5l-45 -80q-95 102 -215 102q-77 0 -156.5 -52t-127.5 -136h246l-36 -54h-234q-5 -10 -14 -43 q-7 -30 -9 -58h255l-37 -53h-220q11 -79 66 -126.5t127 -47.5q130 0 272 107z" />
<glyph unicode="&#xa5;" horiz-adv-x="579" d="M752 715l-267 -331h104l-16 -67h-141l-19 -22.5t-20 -22.5l2 1l-13 -50h167l-16 -64h-167l-39 -159h-90l39 159h-164l16 64h164l12 48l-11 46h-141l16 67h107l-99 331h94l105 -358l285 358h92z" />
<glyph unicode="&#xa6;" horiz-adv-x="218" d="M233 391h-68l85 342h68zM129 -27h-68l85 342h68z" />
<glyph unicode="&#xa7;" horiz-adv-x="482" d="M596 640l-54 -60q-57 61 -141 61q-56 0 -102 -24t-57 -67q-4 -16 10.5 -28t38.5 -17.5t43 -8t31 -2.5q32 0 60 -6t54.5 -21t37 -45t0.5 -72q-17 -68 -82 -108q43 -37 27 -105q-11 -42 -38.5 -72t-63.5 -45t-68 -21.5t-61 -6.5q-86 0 -177 71l49 65q83 -63 146 -63 q51 0 93 16.5t52 55.5q5 22 -3 36.5t-28.5 20.5t-37 8t-41.5 2q-15 2 -38 6t-67.5 21t-56.5 39q-17 31 -8 64q20 78 93 123q-48 33 -32 93q11 46 40 80t65.5 51t71.5 25t68 8q107 0 176 -74zM450 350q4 16 -2 31q-22 40 -102 40h-7q-56 0 -101 -22.5t-56 -64.5 q-4 -17 10.5 -29t39 -17.5t43 -7.5t30.5 -2q31 0 59 5.5t53.5 22.5t32.5 44z" />
<glyph unicode="&#xa8;" horiz-adv-x="501" d="M530 634q-6 -21 -24.5 -35t-37.5 -14t-31.5 14t-6.5 35q5 21 24.5 35.5t38.5 14.5t30.5 -14t6.5 -36zM369 634q-6 -21 -25.5 -35t-37.5 -14q-20 0 -31.5 14t-5.5 35q5 22 23.5 36t38.5 14q18 0 30.5 -14.5t7.5 -35.5z" />
<glyph unicode="&#xa9;" horiz-adv-x="725" d="M771 347q-38 -150 -161.5 -258t-260.5 -108t-207.5 107.5t-32.5 258.5t161 258t261 107q137 0 207.5 -107.5t32.5 -257.5zM715 347q32 130 -25 222t-172 92t-218 -92t-135 -222t24.5 -222.5t171.5 -92.5t218.5 92.5t135.5 222.5zM623 501l-43 -48q-48 56 -102 56 q-49 0 -95.5 -44.5t-65.5 -121.5q-18 -73 6.5 -117.5t73.5 -44.5q51 0 127 57l21 -45q-85 -65 -162 -65q-72 0 -112 58.5t-16 157.5q25 100 94 159.5t143 59.5q81 0 131 -62z" />
<glyph unicode="&#xaa;" horiz-adv-x="478" d="M512 292l-33 -3q-52 0 -53 32q-58 -33 -143 -33q-28 0 -54 7.5t-49 22.5t-32.5 43.5t-0.5 65.5q20 81 79 117.5t130 36.5q61 0 120 -18q6 44 -19.5 65.5t-61.5 21.5q-55 0 -87 -10.5t-94 -44.5l-1 65q55 29 97.5 40t97.5 11q75 0 115 -38t18 -124l-16 -67l-11 -38 q-16 -68 -16 -82l-1 1q3 -8 8 -8l21 6zM435 401l28 102q-43 12 -123 12q-103 0 -125 -88q-9 -37 22 -54.5t63 -17.5q82 0 135 46z" />
<glyph unicode="&#xab;" horiz-adv-x="589" d="M555 38l-226 182l15 57l313 192l-21 -85l-220 -135l160 -127zM306 38l-225 182l15 57l313 192l-21 -85l-220 -135q32 -27 159 -127z" />
<glyph unicode="&#xac;" horiz-adv-x="541" d="M133 422h460l-73 -292h-89l52 210h-371z" />
<glyph unicode="&#xad;" horiz-adv-x="286" d="M325 246h-246l16 64h246z" />
<glyph unicode="&#xae;" horiz-adv-x="725" d="M771 347q-38 -150 -161.5 -258t-260.5 -108t-207.5 107.5t-32.5 258.5t161 258t261 107q137 0 207.5 -107.5t32.5 -257.5zM715 347q32 130 -25 222t-172 92t-218 -92t-135 -222t24.5 -222.5t171.5 -92.5t218.5 92.5t135.5 222.5zM562 163l-62 -19q1 4 1 5l-8 18 l-21.5 50.5l-26 61.5t-14.5 33h-61l-39 -159h-64l102 410h169q50 0 77.5 -33t13.5 -90q-11 -45 -49.5 -82.5t-79.5 -43.5q12 -28 30 -74zM569 439q8 31 -5 51t-39 20h-105l-36 -145h105q24 0 48.5 22.5t31.5 51.5z" />
<glyph unicode="&#xaf;" horiz-adv-x="510" d="M579 629h-358l18 72h358z" />
<glyph unicode="&#xb0;" horiz-adv-x="432" d="M508 537q-15 -62 -77 -108t-136 -46t-112.5 46t-23.5 108q16 63 77.5 109.5t135.5 46.5t113 -46.5t23 -109.5zM429 537q11 40 -10 68.5t-61 28.5t-75 -28.5t-46 -68.5q-9 -39 11.5 -67.5t60.5 -28.5t75.5 28.5t44.5 67.5z" />
<glyph unicode="&#xb1;" horiz-adv-x="430" d="M469 361h-141l-43 -170h-64l43 170h-140l16 67h140l43 170h64l-43 -170h141zM396 75h-347l17 67h347z" />
<glyph unicode="&#xb2;" horiz-adv-x="368" d="M464 558q-7 -25 -23 -47t-30.5 -34.5t-43.5 -26.5t-40.5 -18l-41.5 -15q-47 -17 -73 -35t-40 -45h231l-16 -63h-305q16 55 34 89.5t48 57t49.5 31t67.5 26.5l7 2q96 34 107 78q8 35 -12.5 59.5t-60.5 24.5q-32 0 -55.5 -7t-58.5 -32l-20 52q72 50 149 50q63 0 103.5 -39 t23.5 -108z" />
<glyph unicode="&#xb3;" horiz-adv-x="366" d="M422 393q-14 -58 -63 -91t-118 -33q-73 0 -140 45l47 58q54 -40 108 -40q83 0 97 61q11 43 -28 58h1q-22 2 -34 2q-28 0 -68 -3l18 75q20 0 24 -1h-1q38 -4 58 -1q28 6 50.5 22.5t27.5 37.5q6 26 -8 42.5t-59 16.5q-52 0 -128 -40l-19 57q87 47 163 47q69 0 102 -32.5 t18 -90.5q-14 -54 -73 -92q40 -41 25 -98z" />
<glyph unicode="&#xb4;" horiz-adv-x="386" d="M514 738l-221 -160h-85l199 160h107z" />
<glyph unicode="&#xb5;" horiz-adv-x="539" d="M523 6l-54 -12q-53 0 -71 38l-1 5q-6 15 -7 25q-98 -76 -177 -76q-65 0 -97 48l-61 -244h-78l180 727h79l-83 -333q-11 -45 11.5 -82.5t70.5 -37.5q63 0 177 94l-1 -1l89 360h79l-95 -383q-15 -59 8 -68h-1q16 -7 44 7z" />
<glyph unicode="&#xb6;" horiz-adv-x="678" d="M620 0h-66l158 637h-80l-158 -637h-69l55 221h-132q-106 0 -156.5 67.5t-23.5 179.5q29 114 114.5 180.5t193.5 66.5l342 1zM480 299l83 338h-135q-71 0 -124 -46.5t-72 -122.5q-18 -74 14.5 -121.5t103.5 -47.5h130z" />
<glyph unicode="&#xb7;" horiz-adv-x="172" d="M195 266q-6 -23 -26 -39t-40 -16t-31.5 16t-5.5 39q6 24 25.5 39.5t39.5 15.5t32 -15.5t6 -39.5z" />
<glyph unicode="&#xb8;" horiz-adv-x="480" d="M299 -137q-6 -24 -22 -42t-36.5 -26.5t-38 -12.5t-32.5 -4q-46 0 -87 34l36 49q39 -29 65 -29q23 0 38.5 9.5t18.5 22.5q3 14 -2.5 26t-23.5 12q-30 0 -68 -20l-23 35l75 99l59 1l-62 -73q18 4 33 4q41 0 61.5 -20t8.5 -65z" />
<glyph unicode="&#xb9;" horiz-adv-x="230" d="M244 275h-69l59 237l-2 -2l-1 -2l-58 12l112 181h65z" />
<glyph unicode="&#xba;" horiz-adv-x="490" d="M578 493q-23 -94 -101 -153t-165 -59t-135.5 59t-25.5 153q24 94 102 153t164 59q87 0 135.5 -60t25.5 -152zM502 493q15 59 -13.5 100.5t-88.5 41.5q-59 0 -108.5 -41.5t-64.5 -100.5q-14 -59 14.5 -100t87.5 -41q60 0 109.5 41t63.5 100z" />
<glyph unicode="&#xbb;" horiz-adv-x="589" d="M603 216l-315 -178l21 84l223 125l-154 136l21 86l219 -195zM355 216l-315 -178l21 84l223 125l-154 136l21 86l219 -195z" />
<glyph unicode="&#xbc;" horiz-adv-x="692" d="M618 100h-47l-24 -100h-68l24 100h-209l13 51l286 286h62l-67 -271h47zM725 768l-663 -795h-71l661 795h73zM237 342h-68l59 236q-3 -3 -3 -4l-58 12l112 182h64zM520 166l37 147l-144 -147h107z" />
<glyph unicode="&#xbd;" horiz-adv-x="734" d="M749 284q-6 -24 -20 -44t-29.5 -33t-39.5 -26t-39.5 -19l-39.5 -15q-7 -3 -11 -4h1q-48 -19 -73.5 -36t-39.5 -44h229l-15 -63h-304q7 25 15.5 46t15.5 36.5t19 30t18.5 23t22.5 18.5t22 14.5t26.5 13t26.5 10.5t31 11l8 2q95 33 106 79q9 35 -11.5 59.5t-60.5 24.5 q-33 0 -55 -7t-58 -32l-21 52q71 50 150 50q63 0 103.5 -39t22.5 -108zM725 768l-663 -795h-71l661 795h73zM238 342h-69l59 236q-3 -3 -3 -4l-58 12l112 182h65z" />
<glyph unicode="&#xbe;" horiz-adv-x="804" d="M781 100h-46l-24 -100h-69l24 100h-209l13 51l287 286h62l-67 -271h46zM422 393q-14 -58 -62.5 -91t-117.5 -33q-73 0 -140 45l47 58q54 -40 108 -40q82 0 96 61q11 43 -27 58h1q-22 2 -34 2q-27 0 -68 -3l18 75q20 0 24 -1h-1q38 -4 58 -1q27 6 49.5 22.5t27.5 37.5 q6 26 -8 42.5t-58 16.5q-52 0 -128 -40l-19 57q87 47 163 47q68 0 101 -32.5t18 -90.5q-14 -54 -73 -92q40 -41 25 -98zM903 768l-663 -795h-72l662 795h73zM683 166l37 147l-144 -147h107z" />
<glyph unicode="&#xbf;" horiz-adv-x="528" d="M514 90l-1 -1q-116 -96 -272 -96q-32 0 -61 6t-56 20t-44 36t-24 54t4 75t29.5 73.5t47.5 50.5t49.5 29.5t58.5 23.5h-1l41.5 16t36.5 18.5t36 27t25.5 36t20.5 51.5q3 13 3 27q0 7 1 11l78 1q-2 -39 -7 -59q-11 -44 -32 -77t-52 -54t-54.5 -32t-61.5 -25 q-40 -15 -61 -25.5t-45 -33.5t-31 -54q-9 -34 -0.5 -59t29.5 -37.5t44 -18.5t48 -6q63 0 118.5 21.5t120.5 70.5zM526 675q-5 -21 -23.5 -36.5t-38.5 -15.5t-31.5 15t-5.5 37q6 23 24.5 38t38.5 15t31 -15t5 -38z" />
<glyph unicode="&#xc0;" horiz-adv-x="671" d="M650 0h-91l-22 170h-321l-107 -170h-89l459 717h73zM527 247l-48 337l-215 -337h263zM587 748h-84l-135 156h107z" />
<glyph unicode="&#xc1;" horiz-adv-x="671" d="M650 0h-91l-22 170h-321l-107 -170h-89l459 717h73zM527 247l-48 337l-215 -337h263zM793 908l-221 -160h-85l199 160h107z" />
<glyph unicode="&#xc2;" horiz-adv-x="674" d="M650 0h-91l-22 170h-321l-107 -170h-89l459 717h73zM527 247l-48 337l-215 -337h263zM689 746h-97l-53 73l-97 -73h-90l188 149h41z" />
<glyph unicode="&#xc3;" horiz-adv-x="669" d="M650 0h-91l-22 170h-321l-107 -170h-89l459 717h73zM527 247l-48 337l-215 -337h263zM659 871l46 -10q-8 -32 -46 -70.5t-76 -38.5q-36 0 -68 41q-22 28 -36 28q-37 0 -61 -62l-45 9q9 35 44.5 74.5t74.5 39.5q40 0 72 -41q21 -27 33 -27q17 0 34 16t28 41z" />
<glyph unicode="&#xc4;" horiz-adv-x="678" d="M650 0h-91l-22 170h-321l-107 -170h-89l459 717h73zM527 247l-48 337l-215 -337h263zM507 811q-6 -21 -25.5 -35t-37.5 -14q-20 0 -31.5 14t-5.5 35q5 22 23.5 36t38.5 14q18 0 30.5 -14.5t7.5 -35.5zM668 811q-6 -21 -24.5 -35t-37.5 -14t-31.5 14t-6.5 35 q5 21 24.5 35.5t38.5 14.5t30.5 -14t6.5 -36z" />
<glyph unicode="&#xc5;" horiz-adv-x="675" d="M650 0h-91l-22 170h-321l-107 -170h-89l411 641q-33 21 -46 62t-2 87q16 63 71.5 113.5t121.5 50.5q67 0 98 -50.5t15 -113.5q-11 -46 -46 -87.5t-80 -63.5zM527 247l-48 337l-215 -337h263zM618 790q9 38 -6.5 67.5t-51.5 29.5t-67.5 -29.5t-40.5 -67.5q-9 -39 7 -69 t52 -30t67 30t40 69z" />
<glyph unicode="&#xc6;" horiz-adv-x="1045" d="M987 0h-435l18 172h-315l-149 -172h-90l618 715h520l-20 -78h-429l-13 -106q-11 -94 -20 -147h324l-19 -78h-312l-15 -113.5t-16 -113.5h372zM572 247l45 340l-303 -340h258z" />
<glyph unicode="&#xc7;" horiz-adv-x="709" d="M694 114l-1 -2q-146 -124 -322 -124h-6l-42 -48q18 4 34 4q43 0 65 -20.5t11 -66.5q-8 -32 -35 -53t-52.5 -27.5t-47.5 -6.5q-48 0 -93 35l37 50q42 -29 70 -29q23 0 39.5 9.5t19.5 22.5q4 14 -2 26.5t-25 12.5q-33 0 -71 -20l-25 35l64 82q-70 15 -121 61t-75 123t2 181 q27 108 99.5 194.5t161 131t172.5 44.5q158 0 257 -116l-61 -69q-91 103 -213 103q-100 0 -197.5 -81t-129.5 -208q-17 -69 -8 -122.5t37 -91t68.5 -57t86.5 -19.5q127 0 270 107z" />
<glyph unicode="&#xc8;" d="M536 0h-489l178 714h478l-20 -77h-389l-59 -238h316l-19 -77h-316l-61 -243h400zM602 755h-84l-135 156h107z" />
<glyph unicode="&#xc9;" horiz-adv-x="600" d="M536 0h-489l178 714h478l-20 -77h-389l-59 -238h316l-19 -77h-316l-61 -243h400zM717 923l-221 -160h-85l199 160h107z" />
<glyph unicode="&#xca;" horiz-adv-x="591" d="M536 0h-489l178 714h478l-20 -77h-389l-59 -238h316l-19 -77h-316l-61 -243h400zM642 762h-97l-53 73l-97 -73h-90l188 149h41z" />
<glyph unicode="&#xcb;" d="M536 0h-489l178 714h478l-20 -77h-389l-59 -238h316l-19 -77h-316l-61 -243h400zM629 834q-6 -21 -24.5 -35t-37.5 -14t-31.5 14t-6.5 35q5 21 24.5 35.5t38.5 14.5t30.5 -14t6.5 -36zM468 834q-6 -21 -25.5 -35t-37.5 -14q-20 0 -31.5 14t-5.5 35q5 22 23.5 36t38.5 14 q18 0 30.5 -14.5t7.5 -35.5z" />
<glyph unicode="&#xcc;" horiz-adv-x="264" d="M176 0h-88l178 715h88zM369 763h-84l-135 156h107z" />
<glyph unicode="&#xcd;" horiz-adv-x="261" d="M176 0h-88l178 715h88zM581 899l-221 -160h-85l199 160h107z" />
<glyph unicode="&#xce;" horiz-adv-x="257" d="M176 0h-88l178 715h88zM495 768h-97l-53 73l-97 -73h-90l188 149h41z" />
<glyph unicode="&#xcf;" horiz-adv-x="240" d="M162 0h-88l178 715h88zM457 832q-6 -21 -24.5 -35t-37.5 -14t-31.5 14t-6.5 35q5 21 24.5 35.5t38.5 14.5t30.5 -14t6.5 -36zM296 832q-6 -21 -25.5 -35t-37.5 -14q-20 0 -31.5 14t-5.5 35q5 22 23.5 36t38.5 14q18 0 30.5 -14.5t7.5 -35.5z" />
<glyph unicode="&#xd0;" horiz-adv-x="713" d="M757 356q-22 -88 -70 -158.5t-107.5 -112t-122 -63.5t-120.5 -22h-257l77 312h-66l17 69h66l84 334h269q58 0 108 -21.5t86.5 -65.5t46.5 -111.5t-11 -160.5zM673 355q24 95 2 158.5t-70 94.5t-113 31h-164l-66 -258h158l-17 -69h-158l-58 -235h164q43 0 91 18t94 51 t83.5 88t53.5 121z" />
<glyph unicode="&#xd1;" horiz-adv-x="656" d="M598 -1h-56l-274 543l-135 -542h-88l178 715h67l268 -531l133 531h86zM666 866l46 -10q-8 -32 -46 -70.5t-76 -38.5q-36 0 -68 41q-22 28 -36 28q-37 0 -61 -62l-45 9q9 35 44.5 74.5t74.5 39.5q40 0 72 -41q21 -27 33 -27q17 0 34 16t28 41z" />
<glyph unicode="&#xd2;" horiz-adv-x="777" d="M834 357q-41 -161 -173 -265t-277 -104q-144 0 -224.5 105t-40.5 265q41 163 172.5 267t276.5 104q144 0 224.5 -106t41.5 -266zM748 357q30 122 -27 206.5t-173 84.5q-115 0 -214.5 -84.5t-129.5 -206.5q-30 -120 27.5 -204t172.5 -84q116 0 215 83.5t129 204.5z M670 766h-84l-135 156h107z" />
<glyph unicode="&#xd3;" horiz-adv-x="784" d="M834 357q-41 -161 -173 -265t-277 -104q-144 0 -224.5 105t-40.5 265q41 163 172.5 267t276.5 104q144 0 224.5 -106t41.5 -266zM748 357q30 122 -27 206.5t-173 84.5q-115 0 -214.5 -84.5t-129.5 -206.5q-30 -120 27.5 -204t172.5 -84q116 0 215 83.5t129 204.5z M822 927l-221 -160h-85l199 160h107z" />
<glyph unicode="&#xd4;" horiz-adv-x="779" d="M834 357q-41 -161 -173 -265t-277 -104q-144 0 -224.5 105t-40.5 265q41 163 172.5 267t276.5 104q144 0 224.5 -106t41.5 -266zM748 357q30 122 -27 206.5t-173 84.5q-115 0 -214.5 -84.5t-129.5 -206.5q-30 -120 27.5 -204t172.5 -84q116 0 215 83.5t129 204.5z M750 771h-97l-53 73l-97 -73h-90l188 149h41z" />
<glyph unicode="&#xd5;" horiz-adv-x="781" d="M834 357q-41 -161 -173 -265t-277 -104q-144 0 -224.5 105t-40.5 265q41 163 172.5 267t276.5 104q144 0 224.5 -106t41.5 -266zM748 357q30 122 -27 206.5t-173 84.5q-115 0 -214.5 -84.5t-129.5 -206.5q-30 -120 27.5 -204t172.5 -84q116 0 215 83.5t129 204.5z M723 899l46 -10q-8 -32 -46 -70.5t-76 -38.5q-36 0 -68 41q-22 28 -36 28q-37 0 -61 -62l-45 9q9 35 44.5 74.5t74.5 39.5q40 0 72 -41q21 -27 33 -27q17 0 34 16t28 41z" />
<glyph unicode="&#xd6;" horiz-adv-x="785" d="M834 357q-41 -161 -173 -265t-277 -104q-144 0 -224.5 105t-40.5 265q41 163 172.5 267t276.5 104q144 0 224.5 -106t41.5 -266zM748 357q30 122 -27 206.5t-173 84.5q-115 0 -214.5 -84.5t-129.5 -206.5q-30 -120 27.5 -204t172.5 -84q116 0 215 83.5t129 204.5z M728 834q-6 -21 -24.5 -35t-37.5 -14t-31.5 14t-6.5 35q5 21 24.5 35.5t38.5 14.5t30.5 -14t6.5 -36zM567 834q-6 -21 -25.5 -35t-37.5 -14q-20 0 -31.5 14t-5.5 35q5 22 23.5 36t38.5 14q18 0 30.5 -14.5t7.5 -35.5z" />
<glyph unicode="&#xd7;" horiz-adv-x="353" d="M434 484l-131 -124l33 -59l32 -61l-58 -55l-66 118l-48 -46l-82 -78l-30 54l131 124l-33 59l-34 60l59 55l66 -118q48 45 49 46l81 77z" />
<glyph unicode="&#xd8;" horiz-adv-x="764" d="M807 359q-40 -160 -167.5 -263.5t-267.5 -103.5q-78 0 -134 29l-96 -121l-58 16l108 138l2 -1q-57 50 -77.5 127t2.5 179q40 162 167.5 265.5t268.5 103.5q77 0 142 -35l86 111l58 -19l-99 -127l-2 1q53 -50 71 -126t-4 -174zM640 619q-49 27 -105 27q-113 0 -209.5 -83 t-126.5 -204q-17 -74 -4 -134t53 -97zM726 359q35 141 -41 225l-388 -487q44 -23 95 -23q112 0 208 82.5t126 202.5z" />
<glyph unicode="&#xd9;" horiz-adv-x="684" d="M707 356q-44 -175 -140 -269t-234 -94q-141 0 -192.5 95t-9.5 263l91 364h88l-92 -365q-69 -274 135 -274q197 0 265 276l91 363h88zM639 756h-84l-135 156h107z" />
<glyph unicode="&#xda;" horiz-adv-x="687" d="M707 356q-44 -175 -140 -269t-234 -94q-141 0 -192.5 95t-9.5 263l91 364h88l-92 -365q-69 -274 135 -274q197 0 265 276l91 363h88zM761 919l-221 -160h-85l199 160h107z" />
<glyph unicode="&#xdb;" horiz-adv-x="683" d="M707 356q-44 -175 -140 -269t-234 -94q-141 0 -192.5 95t-9.5 263l91 364h88l-92 -365q-69 -274 135 -274q197 0 265 276l91 363h88zM697 758h-97l-53 73l-97 -73h-90l188 149h41z" />
<glyph unicode="&#xdc;" horiz-adv-x="687" d="M707 356q-44 -175 -140 -269t-234 -94q-141 0 -192.5 95t-9.5 263l91 364h88l-92 -365q-69 -274 135 -274q197 0 265 276l91 363h88zM673 824q-6 -21 -24.5 -35t-37.5 -14t-31.5 14t-6.5 35q5 21 24.5 35.5t38.5 14.5t30.5 -14t6.5 -36zM512 824q-6 -21 -25.5 -35 t-37.5 -14q-20 0 -31.5 14t-5.5 35q5 22 23.5 36t38.5 14q18 0 30.5 -14.5t7.5 -35.5z" />
<glyph unicode="&#xdd;" horiz-adv-x="624" d="M739 705l-342 -433h1l-67 -272h-86l69 278l-122 428l2 9h87l100 -355l276 355h85zM708 874l-221 -160h-85l199 160h107z" />
<glyph unicode="&#xde;" horiz-adv-x="603" d="M652 355q-25 -102 -112 -165.5t-174 -63.5h-193l-30 -126h-89l173 701h90l-28 -113h190q90 0 145.5 -60.5t27.5 -172.5zM569 352q18 71 -15 113t-88 42h-198l-77 -307h190q53 0 112.5 44.5t75.5 107.5z" />
<glyph unicode="&#xdf;" horiz-adv-x="528" d="M547 219q-27 -107 -104 -167t-170 -60q-69 0 -123 48l36 59q6 -2 22.5 -12.5t37 -19t43.5 -8.5q62 0 113 45.5t67 109.5q12 58 0.5 96t-38.5 51q-62 23 -141 23h-32l18 71q170 14 199 131q22 91 -86 91q-110 0 -137 -110l-141 -567h-72l139 560q22 89 84.5 134.5 t143.5 45.5q82 0 123 -37t21 -119q-27 -108 -152 -152q6 -2 31 -2h7q68 -13 102 -63t9 -148z" />
<glyph unicode="&#xe0;" horiz-adv-x="552" d="M534 8l-54 -12q-54 0 -69 36q0 3 -2 11l-3 12l-22 -16q-68 -45 -152 -45q-95 0 -137 46t-23 124q20 78 87.5 124t165.5 46q57 0 124 -19q3 0 7 -2q1 1 2 0l5 21q16 60 -4 88q-27 36 -93 36q-96 0 -199 -63l2 69q35 24 92 42.5t123 18.5q103 0 141 -47q43 -51 19 -148 l-49 -194q-15 -61 7 -68q19 -5 43 4zM362 89q27 15 49 35q0 14 9 37l24 92q-70 21 -133 21q-68 0 -107 -29.5t-51 -77.5q-12 -47 10.5 -76.5t87.5 -29.5q59 0 111 28zM466 579h-84l-135 156h107z" />
<glyph unicode="&#xe1;" horiz-adv-x="557" d="M534 8l-54 -12q-54 0 -69 36q0 3 -2 11l-3 12l-22 -16q-68 -45 -152 -45q-95 0 -137 46t-23 124q20 78 87.5 124t165.5 46q57 0 124 -19q3 0 7 -2q1 1 2 0l5 21q16 60 -4 88q-27 36 -93 36q-96 0 -199 -63l2 69q35 24 92 42.5t123 18.5q103 0 141 -47q43 -51 19 -148 l-49 -194q-15 -61 7 -68q19 -5 43 4zM362 89q27 15 49 35q0 14 9 37l24 92q-70 21 -133 21q-68 0 -107 -29.5t-51 -77.5q-12 -47 10.5 -76.5t87.5 -29.5q59 0 111 28zM616 727l-221 -160h-85l199 160h107z" />
<glyph unicode="&#xe2;" horiz-adv-x="557" d="M534 8l-54 -12q-54 0 -69 36q0 3 -2 11l-3 12l-22 -16q-68 -45 -152 -45q-95 0 -137 46t-23 124q20 78 87.5 124t165.5 46q57 0 124 -19q3 0 7 -2q1 1 2 0l5 21q16 60 -4 88q-27 36 -93 36q-96 0 -199 -63l2 69q35 24 92 42.5t123 18.5q103 0 141 -47q43 -51 19 -148 l-49 -194q-15 -61 7 -68q19 -5 43 4zM362 89q27 15 49 35q0 14 9 37l24 92q-70 21 -133 21q-68 0 -107 -29.5t-51 -77.5q-12 -47 10.5 -76.5t87.5 -29.5q59 0 111 28zM574 592h-97l-53 73l-97 -73h-90l188 149h41z" />
<glyph unicode="&#xe3;" horiz-adv-x="564" d="M534 8l-54 -12q-54 0 -69 36q0 3 -2 11l-3 12l-22 -16q-68 -45 -152 -45q-95 0 -137 46t-23 124q20 78 87.5 124t165.5 46q57 0 124 -19q3 0 7 -2q1 1 2 0l5 21q16 60 -4 88q-27 36 -93 36q-96 0 -199 -63l2 69q35 24 92 42.5t123 18.5q103 0 141 -47q43 -51 19 -148 l-49 -194q-15 -61 7 -68q19 -5 43 4zM362 89q27 15 49 35q0 14 9 37l24 92q-70 21 -133 21q-68 0 -107 -29.5t-51 -77.5q-12 -47 10.5 -76.5t87.5 -29.5q59 0 111 28zM546 722l46 -10q-8 -32 -46 -70.5t-76 -38.5q-36 0 -68 41q-22 28 -36 28q-37 0 -61 -62l-45 9 q9 35 44.5 74.5t74.5 39.5q40 0 72 -41q21 -27 33 -27q17 0 34 16t28 41z" />
<glyph unicode="&#xe4;" horiz-adv-x="559" d="M534 8l-54 -12q-54 0 -69 36q0 3 -2 11l-3 12l-22 -16q-68 -45 -152 -45q-95 0 -137 46t-23 124q20 78 87.5 124t165.5 46q57 0 124 -19q3 0 7 -2q1 1 2 0l5 21q16 60 -4 88q-27 36 -93 36q-96 0 -199 -63l2 69q35 24 92 42.5t123 18.5q103 0 141 -47q43 -51 19 -148 l-49 -194q-15 -61 7 -68q19 -5 43 4zM362 89q27 15 49 35q0 14 9 37l24 92q-70 21 -133 21q-68 0 -107 -29.5t-51 -77.5q-12 -47 10.5 -76.5t87.5 -29.5q59 0 111 28zM386 673q-6 -21 -25.5 -35t-37.5 -14q-20 0 -31.5 14t-5.5 35q5 22 23.5 36t38.5 14q18 0 30.5 -14.5 t7.5 -35.5zM547 673q-6 -21 -24.5 -35t-37.5 -14t-31.5 14t-6.5 35q5 21 24.5 35.5t38.5 14.5t30.5 -14t6.5 -36z" />
<glyph unicode="&#xe5;" horiz-adv-x="564" d="M534 8l-54 -12q-54 0 -69 36q0 3 -2 11l-3 12l-22 -16q-68 -45 -152 -45q-95 0 -137 46t-23 124q20 78 87.5 124t165.5 46q57 0 124 -19q3 0 7 -2q1 1 2 0l5 21q16 60 -4 88q-27 36 -93 36q-96 0 -199 -63l2 69q35 24 92 42.5t123 18.5q103 0 141 -47q43 -51 19 -148 l-49 -194q-15 -61 7 -68q19 -5 43 4zM553 691q-13 -50 -58.5 -88.5t-100.5 -38.5q-56 0 -82.5 38.5t-13.5 88.5q13 49 59 88t101 39t81.5 -39t13.5 -88zM362 89q27 15 49 35q0 14 9 37l24 92q-70 21 -133 21q-68 0 -107 -29.5t-51 -77.5q-12 -47 10.5 -76.5t87.5 -29.5 q59 0 111 28zM491 691q7 29 -6 51t-42 22q-28 0 -52 -22t-31 -51t6 -51.5t41 -22.5q29 0 53 22.5t31 51.5z" />
<glyph unicode="&#xe6;" horiz-adv-x="906" d="M927 247l-3 -13q-80 -12 -192 -12q-135 2 -203 16q-15 -72 19 -122t101 -50q35 0 88.5 14.5t95.5 36.5l12 -60q-46 -27 -107.5 -46t-106.5 -19q-62 0 -106.5 26.5t-61.5 76.5q-29 -27 -68 -55q-68 -46 -148 -46q-33 0 -66 9.5t-63 28.5t-43.5 53.5t-2.5 78.5 q24 93 93 137.5t157 44.5q46 0 149 -27q0 2 1 5t1.5 5.5t0.5 3.5q9 59 -9 84q-26 41 -87 41q-92 0 -205 -63l-9 61q109 69 233 69q47 0 86 -20t57 -54q1 -2 10 -26q84 99 212 99q85 0 130.5 -51t47.5 -136q-1 -42 -13 -90zM266 62q87 0 180 93q-3 24 4 57q5 23 5 39l1 4 q-1 0 -18 5q-83 25 -126 25q-128 0 -158 -117q-12 -50 23.5 -78t88.5 -28zM759 283q58 0 108 8l-120 163q-60 0 -114 -42.5t-85 -112.5q56 -12 188 -16h23zM459 254l-3 1q1 -1 3 -1z" />
<glyph unicode="&#xe7;" horiz-adv-x="510" d="M590 454l-49 -65q-69 59 -149 59q-72 0 -136.5 -53.5t-85.5 -139.5q-20 -81 18 -132t110 -51q76 0 168 57l16 -67q-110 -71 -203 -70l-22 -25l-9 -12l-9 -12q18 4 27 4q91 0 69 -84q-11 -44 -50 -63.5t-74 -19.5q-45 0 -87 35l36 47q39 -29 64 -29q20 0 34.5 9.5 t17.5 21.5q4 15 -1 26.5t-22 11.5q-25 0 -65 -21l-23 37l62 80q-82 17 -123.5 84.5t-15.5 171.5q32 128 126 199.5t197 71.5q48 0 96 -19t83 -52z" />
<glyph unicode="&#xe8;" horiz-adv-x="543" d="M567 237h-397q-14 -71 19 -121t105 -50q88 0 182 55l8 -68q-36 -24 -92.5 -42.5t-113.5 -18.5q-112 0 -164.5 70.5t-22.5 191.5q32 130 118.5 200t192.5 70q235 0 165 -287zM385 454q-61 0 -114 -40.5t-82 -107.5h312q10 60 -17 104t-99 44zM489 607h-84l-135 156h107z " />
<glyph unicode="&#xe9;" horiz-adv-x="541" d="M567 237h-397q-14 -71 19 -121t105 -50q88 0 182 55l8 -68q-36 -24 -92.5 -42.5t-113.5 -18.5q-112 0 -164.5 70.5t-22.5 191.5q32 130 118.5 200t192.5 70q235 0 165 -287zM385 454q-61 0 -114 -40.5t-82 -107.5h312q10 60 -17 104t-99 44zM649 736l-221 -160h-85 l199 160h107z" />
<glyph unicode="&#xea;" horiz-adv-x="538" d="M567 237h-397q-14 -71 19 -121t105 -50q88 0 182 55l8 -68q-36 -24 -92.5 -42.5t-113.5 -18.5q-112 0 -164.5 70.5t-22.5 191.5q32 130 118.5 200t192.5 70q235 0 165 -287zM385 454q-61 0 -114 -40.5t-82 -107.5h312q10 60 -17 104t-99 44zM598 591h-97l-53 73l-97 -73 h-90l188 149h41z" />
<glyph unicode="&#xeb;" horiz-adv-x="545" d="M567 237h-397q-14 -71 19 -121t105 -50q88 0 182 55l8 -68q-36 -24 -92.5 -42.5t-113.5 -18.5q-112 0 -164.5 70.5t-22.5 191.5q32 130 118.5 200t192.5 70q235 0 165 -287zM385 454q-61 0 -114 -40.5t-82 -107.5h312q10 60 -17 104t-99 44zM573 651q-6 -21 -24.5 -35 t-37.5 -14t-31.5 14t-6.5 35q5 21 24.5 35.5t38.5 14.5t30.5 -14t6.5 -36zM412 651q-6 -21 -25.5 -35t-37.5 -14q-20 0 -31.5 14t-5.5 35q5 22 23.5 36t38.5 14q18 0 30.5 -14.5t7.5 -35.5z" />
<glyph unicode="&#xec;" horiz-adv-x="160" d="M121 0h-76l128 515h76zM283 609h-84l-135 156h107z" />
<glyph unicode="&#xed;" horiz-adv-x="161" d="M110 0h-76l128 515h76zM474 737l-221 -160h-85l199 160h107z" />
<glyph unicode="&#xee;" horiz-adv-x="165" d="M121 0h-76l128 515h76zM402 595h-97l-53 73l-97 -73h-90l188 149h41z" />
<glyph unicode="&#xef;" horiz-adv-x="172" d="M121 0h-76l128 515h76zM387 686q-6 -21 -24.5 -35t-37.5 -14t-31.5 14t-6.5 35q5 21 24.5 35.5t38.5 14.5t30.5 -14t6.5 -36zM226 686q-6 -21 -25.5 -35t-37.5 -14q-20 0 -31.5 14t-5.5 35q5 22 23.5 36t38.5 14q18 0 30.5 -14.5t7.5 -35.5z" />
<glyph unicode="&#xf0;" horiz-adv-x="582" d="M609 292q-34 -135 -128.5 -217.5t-201.5 -82.5q-100 0 -160 72t-30 195q21 84 75.5 147t119 92.5t128.5 29.5q46 0 87 -20t65 -55q0 110 -62 180l-32 -41h-67l54 74q-23 13 -65 13q-40 0 -78 -20l2 75q41 24 108 24q51 0 87 -17l61 83l67 1l-84 -117q124 -137 54 -416z M522 265q20 84 -22 135.5t-106 51.5q-67 0 -134.5 -52.5t-89.5 -139.5q-21 -86 20.5 -137.5t108.5 -51.5q69 0 134.5 52.5t88.5 141.5z" />
<glyph unicode="&#xf1;" horiz-adv-x="541" d="M484 0h-80l74 298q37 149 -81 149q-61 0 -188 -95l-87 -352h-81l128 516h81l-18 -72q112 80 186 80q87 0 129 -50t15 -158zM546 715l46 -10q-8 -32 -46 -70.5t-76 -38.5q-36 0 -68 41q-22 28 -36 28q-37 0 -61 -62l-45 9q9 35 44.5 74.5t74.5 39.5q40 0 72 -41 q21 -27 33 -27q17 0 34 16t28 41z" />
<glyph unicode="&#xf2;" horiz-adv-x="552" d="M573 256q-31 -126 -115.5 -195t-190.5 -69t-157 69.5t-20 194.5t117 196.5t192 71.5q105 0 155 -71.5t19 -196.5zM492 257q20 81 -9.5 135t-102.5 54t-130.5 -54.5t-76.5 -134.5q-20 -78 10 -132t103 -54t129.5 53t76.5 133zM509 586h-84l-135 156h107z" />
<glyph unicode="&#xf3;" horiz-adv-x="545" d="M573 256q-31 -126 -115.5 -195t-190.5 -69t-157 69.5t-20 194.5t117 196.5t192 71.5q105 0 155 -71.5t19 -196.5zM492 257q20 81 -9.5 135t-102.5 54t-130.5 -54.5t-76.5 -134.5q-20 -78 10 -132t103 -54t129.5 53t76.5 133zM621 737l-221 -160h-85l199 160h107z" />
<glyph unicode="&#xf4;" horiz-adv-x="555" d="M573 256q-31 -126 -115.5 -195t-190.5 -69t-157 69.5t-20 194.5t117 196.5t192 71.5q105 0 155 -71.5t19 -196.5zM492 257q20 81 -9.5 135t-102.5 54t-130.5 -54.5t-76.5 -134.5q-20 -78 10 -132t103 -54t129.5 53t76.5 133zM580 587h-97l-53 73l-97 -73h-90l188 149h41z " />
<glyph unicode="&#xf5;" horiz-adv-x="543" d="M573 256q-31 -126 -115.5 -195t-190.5 -69t-157 69.5t-20 194.5t117 196.5t192 71.5q105 0 155 -71.5t19 -196.5zM492 257q20 81 -9.5 135t-102.5 54t-130.5 -54.5t-76.5 -134.5q-20 -78 10 -132t103 -54t129.5 53t76.5 133zM553 708l46 -10q-8 -32 -46 -70.5t-76 -38.5 q-36 0 -68 41q-22 28 -36 28q-37 0 -61 -62l-45 9q9 35 44.5 74.5t74.5 39.5q40 0 72 -41q21 -27 33 -27q17 0 34 16t28 41z" />
<glyph unicode="&#xf6;" horiz-adv-x="550" d="M573 256q-31 -126 -115.5 -195t-190.5 -69t-157 69.5t-20 194.5t117 196.5t192 71.5q105 0 155 -71.5t19 -196.5zM492 257q20 81 -9.5 135t-102.5 54t-130.5 -54.5t-76.5 -134.5q-20 -78 10 -132t103 -54t129.5 53t76.5 133zM563 663q-6 -21 -24.5 -35t-37.5 -14 t-31.5 14t-6.5 35q5 21 24.5 35.5t38.5 14.5t30.5 -14t6.5 -36zM402 663q-6 -21 -25.5 -35t-37.5 -14q-20 0 -31.5 14t-5.5 35q5 22 23.5 36t38.5 14q18 0 30.5 -14.5t7.5 -35.5z" />
<glyph unicode="&#xf7;" horiz-adv-x="473" d="M505 308h-402l17 69h402zM316 153q-5 -22 -23 -38t-39 -16q-20 0 -29.5 16t-4.5 38q5 20 23 36t38 16t30 -16t5 -36zM408 543q-5 -21 -22.5 -36.5t-37.5 -15.5q-21 0 -30.5 15.5t-4.5 36.5q6 21 23 37t38 16q20 0 29.5 -16t4.5 -37z" />
<glyph unicode="&#xf8;" horiz-adv-x="584" d="M610 256q-29 -117 -124 -192t-202 -75q-47 0 -85 15q-21 -31 -39 -55q-8 -10 -44 -59l-61 16l93 128l2 -1q-44 36 -61 94.5t0 128.5q30 120 125.5 195t203.5 75q50 0 79 -13l102 137l60 -18l-108 -149l-2 1q45 -36 61.5 -94t-0.5 -134zM528 257q25 99 -30 152l-121 -163 l-126 -166q23 -11 53 -11q76 0 140 55t84 133zM446 440l-48 8q-76 0 -140 -55.5t-84 -135.5q-23 -91 27 -146z" />
<glyph unicode="&#xf9;" horiz-adv-x="676" d="M475 0h-82l17 69q-111 -76 -186 -76q-69 0 -108 33q-29 27 -39.5 67.5t0.5 83.5l84 339h81l-82 -329q-15 -62 16 -93q31 -24 70 -24q63 0 187 93l88 353h82zM515 582h-84l-135 156h107z" />
<glyph unicode="&#xfa;" horiz-adv-x="524" d="M475 0h-82l17 69q-111 -76 -186 -76q-69 0 -108 33q-29 27 -39.5 67.5t0.5 83.5l84 339h81l-82 -329q-15 -62 16 -93q31 -24 70 -24q63 0 187 93l88 353h82zM620 728l-221 -160h-85l199 160h107z" />
<glyph unicode="&#xfb;" horiz-adv-x="676" d="M475 0h-82l17 69q-111 -76 -186 -76q-69 0 -108 33q-29 27 -39.5 67.5t0.5 83.5l84 339h81l-82 -329q-15 -62 16 -93q31 -24 70 -24q63 0 187 93l88 353h82zM564 588h-97l-53 73l-97 -73h-90l188 149h41z" />
<glyph unicode="&#xfc;" horiz-adv-x="521" d="M475 0h-82l17 69q-111 -76 -186 -76q-69 0 -108 33q-29 27 -39.5 67.5t0.5 83.5l84 339h81l-82 -329q-15 -62 16 -93q31 -24 70 -24q63 0 187 93l88 353h82zM548 659q-6 -21 -24.5 -35t-37.5 -14t-31.5 14t-6.5 35q5 21 24.5 35.5t38.5 14.5t30.5 -14t6.5 -36zM387 659 q-6 -21 -25.5 -35t-37.5 -14q-20 0 -31.5 14t-5.5 35q5 22 23.5 36t38.5 14q18 0 30.5 -14.5t7.5 -35.5z" />
<glyph unicode="&#xfd;" horiz-adv-x="560" d="M646 516l-404 -626q-60 -90 -178 -90h-48l18 74h37q69 0 112 56l59 98q-15 68 -48 231.5t-54 256.5h91l79 -381l247 381h89zM663 737l-221 -160h-85l199 160h107z" />
<glyph unicode="&#xfe;" horiz-adv-x="533" d="M562 267q-31 -124 -122 -200t-185 -76q-76 0 -127 56l-64 -256h-80l236 947h81l-64 -253q72 40 146 40q101 0 155 -70t24 -188zM481 264q21 85 -15.5 134.5t-104.5 49.5q-72 0 -147 -55l-62 -250l-1 1q16 -30 49 -52.5t70 -22.5q66 0 128.5 56t82.5 139z" />
<glyph unicode="&#xff;" horiz-adv-x="548" d="M646 516l-404 -626q-60 -90 -178 -90h-48l18 74h37q69 0 112 56l59 98q-15 68 -48 231.5t-54 256.5h91l79 -381l247 381h89zM572 626q-6 -21 -24.5 -35t-37.5 -14t-31.5 14t-6.5 35q5 21 24.5 35.5t38.5 14.5t30.5 -14t6.5 -36zM411 626q-6 -21 -25.5 -35t-37.5 -14 q-20 0 -31.5 14t-5.5 35q5 22 23.5 36t38.5 14q18 0 30.5 -14.5t7.5 -35.5z" />
<glyph unicode="&#x152;" horiz-adv-x="1134" d="M1084 0h-619q-52 -13 -96 -13q-145 0 -224.5 104.5t-38.5 265.5q40 163 171.5 268t277.5 105q43 0 93 -15h604l-20 -78h-470q40 -44 57 -108.5t4 -136.5h289l-19 -77h-290q-24 -71 -72 -133t-108 -103h480zM734 357q30 121 -27 205.5t-173 84.5q-117 0 -216 -84 t-129 -206q-30 -120 27 -203.5t174 -83.5q116 0 215 83t129 204z" />
<glyph unicode="&#x153;" horiz-adv-x="886" d="M902 237h-395q-16 -76 17 -121q38 -50 107 -50q91 0 183 55l10 -68q-37 -24 -93.5 -42.5t-114.5 -18.5q-102 0 -154 58q-85 -58 -179 -58q-105 0 -163 74.5t-30 189.5q30 119 124.5 193.5t200.5 74.5q93 0 148 -57q81 57 177 57q115 0 155.5 -74.5t6.5 -212.5zM431 113 l-2.5 7.5t-4 20t-3.5 31t0.5 38t6.5 44.5q20 84 70 148q-38 44 -102 44q-74 0 -138.5 -55.5t-83.5 -133.5q-20 -77 17 -131.5t111 -54.5q60 0 129 42zM723 454q-61 0 -114 -40.5t-82 -107.5h311q10 60 -16.5 104t-98.5 44z" />
<glyph unicode="&#x178;" horiz-adv-x="612" d="M739 705l-342 -433h1l-67 -272h-86l69 278l-122 428l2 9h87l100 -355l276 355h85zM612 814q-6 -21 -24.5 -35t-37.5 -14t-31.5 14t-6.5 35q5 21 24.5 35.5t38.5 14.5t30.5 -14t6.5 -36zM451 814q-6 -21 -25.5 -35t-37.5 -14q-20 0 -31.5 14t-5.5 35q5 22 23.5 36t38.5 14 q18 0 30.5 -14.5t7.5 -35.5z" />
<glyph unicode="&#x2c6;" horiz-adv-x="605" d="M596 587h-97l-53 73l-97 -73h-90l188 149h41z" />
<glyph unicode="&#x2dc;" horiz-adv-x="463" d="M506 685l46 -10q-8 -32 -46 -70.5t-76 -38.5q-36 0 -68 41q-22 28 -36 28q-37 0 -61 -62l-45 9q9 35 44.5 74.5t74.5 39.5q40 0 72 -41q21 -27 33 -27q17 0 34 16t28 41z" />
<glyph unicode="&#x2000;" horiz-adv-x="477" />
<glyph unicode="&#x2001;" horiz-adv-x="954" />
<glyph unicode="&#x2002;" horiz-adv-x="477" />
<glyph unicode="&#x2003;" horiz-adv-x="954" />
<glyph unicode="&#x2004;" horiz-adv-x="318" />
<glyph unicode="&#x2005;" horiz-adv-x="238" />
<glyph unicode="&#x2006;" horiz-adv-x="159" />
<glyph unicode="&#x2007;" horiz-adv-x="159" />
<glyph unicode="&#x2008;" horiz-adv-x="119" />
<glyph unicode="&#x2009;" horiz-adv-x="190" />
<glyph unicode="&#x200a;" horiz-adv-x="53" />
<glyph unicode="&#x2010;" horiz-adv-x="286" d="M325 246h-246l16 64h246z" />
<glyph unicode="&#x2011;" horiz-adv-x="286" d="M325 246h-246l16 64h246z" />
<glyph unicode="&#x2013;" horiz-adv-x="548" d="M541 246h-441l16 64h441z" />
<glyph unicode="&#x2014;" horiz-adv-x="949" d="M959 246h-871l16 64h871z" />
<glyph unicode="&#x2018;" horiz-adv-x="181" d="M310 665v-2q-22 -16 -49.5 -45.5t-32.5 -47.5l3 -1l3 -1q17 -1 25.5 -15t3.5 -33q-6 -23 -25.5 -37.5t-39.5 -14.5q-54 0 -36 77q10 40 48 85.5t81 71.5z" />
<glyph unicode="&#x2019;" horiz-adv-x="181" d="M301 622q-10 -40 -47.5 -84t-81.5 -72l-20 38q23 18 50 46t32 47q-1 0 -1 1h-1l-2 1q-18 0 -27 14.5t-4 34.5q6 23 26 37.5t39 14.5q55 0 37 -78z" />
<glyph unicode="&#x201a;" horiz-adv-x="166" d="M177 147q-10 -41 -47.5 -86t-80.5 -71l-21 37q23 17 51 46.5t33 48.5l-7 2q-17 1 -25 15t-3 34q5 22 24.5 36t38.5 14q57 0 37 -76z" />
<glyph unicode="&#x201c;" horiz-adv-x="348" d="M310 665v-2q-22 -16 -49.5 -45.5t-32.5 -47.5l3 -1l3 -1q17 -1 25.5 -15t3.5 -33q-6 -23 -25.5 -37.5t-39.5 -14.5q-54 0 -36 77q10 40 48 85.5t81 71.5zM462 665v-2q-22 -17 -49 -45t-32 -47l7 -3q17 -1 25 -14.5t3 -33.5q-6 -23 -25.5 -37.5t-38.5 -14.5q-55 0 -37 77 q10 41 48 86t82 71z" />
<glyph unicode="&#x201d;" horiz-adv-x="348" d="M301 622q-10 -40 -47.5 -84t-81.5 -72l-20 38q23 18 50 46t32 47q-1 0 -1 1h-1l-2 1q-18 0 -27 14.5t-4 34.5q6 23 26 37.5t39 14.5q55 0 37 -78zM453 622q-10 -40 -47.5 -84.5t-80.5 -71.5l-20 38q23 17 50.5 45.5t32.5 47.5q-1 0 -3 1t-3 1q-17 2 -25.5 16t-4.5 33 q6 23 26 37.5t39 14.5q54 0 36 -78z" />
<glyph unicode="&#x201e;" horiz-adv-x="348" d="M177 147q-10 -41 -47.5 -86t-80.5 -71l-21 37q23 17 51 46.5t33 48.5l-7 2q-17 1 -25 15t-3 34q5 22 24.5 36t38.5 14q57 0 37 -76zM330 147q-10 -41 -47.5 -86t-80.5 -71l-20 37q23 18 50.5 47t32.5 48q-1 0 -3.5 0.5t-3.5 1.5q-17 1 -25 15t-3 34q5 22 24.5 36t38.5 14 q57 0 37 -76z" />
<glyph unicode="&#x2022;" horiz-adv-x="295" d="M332 297q-13 -52 -55.5 -87t-89.5 -35q-48 0 -72 35.5t-11 86.5q12 50 54.5 85.5t89.5 35.5t71.5 -35.5t12.5 -85.5z" />
<glyph unicode="&#x2026;" horiz-adv-x="519" d="M473 35q-5 -20 -21.5 -33t-34.5 -13q-19 0 -29.5 13t-5.5 33t22 33t36 13q18 0 28 -13t5 -33zM133 35q-5 -20 -22 -33t-35 -13q-19 0 -29 13t-5 33t22 33t35 13q19 0 29 -13t5 -33zM304 35q-5 -20 -22 -33t-36 -13q-18 0 -28.5 13t-5.5 33t22 33t35 13q19 0 29.5 -13 t5.5 -33z" />
<glyph unicode="&#x202f;" horiz-adv-x="190" />
<glyph unicode="&#x2039;" horiz-adv-x="342" d="M306 38l-226 182l15 57l314 192l-21 -85l-221 -135l160 -127z" />
<glyph unicode="&#x203a;" horiz-adv-x="339" d="M350 216l-315 -178l21 84l224 125l-155 136l21 86l219 -195z" />
<glyph unicode="&#x205f;" horiz-adv-x="238" />
<glyph unicode="&#x20ac;" horiz-adv-x="788" d="M757 173l6 -81q-138 -105 -299 -105q-97 0 -173 70.5t-85 182.5h-125l38 53h90q2 29 9 59q9 31 14 42h-112l37 54h97q61 119 172 193.5t218 74.5q80 0 144.5 -27.5t96.5 -74.5l-45 -80q-95 102 -215 102q-77 0 -156.5 -52t-127.5 -136h246l-36 -54h-234q-5 -10 -14 -43 q-7 -30 -9 -58h255l-37 -53h-220q11 -79 66 -126.5t127 -47.5q130 0 272 107z" />
<glyph unicode="&#x2122;" horiz-adv-x="794" d="M832 339l-64 -4l34 225l-166 -228h-28l-39 225l-79 -222l-61 4l123 362h55l52 -252l184 252h48zM499 637l-126 1l-75 -301h-63l75 301h-128l15 63h318z" />
</font>
</defs>
</svg>
