<?xml version="1.0" standalone="no"?>
<!DOCTYPE svg PUBLIC "-//W3C//DTD SVG 1.1//EN" "http://www.w3.org/Graphics/SVG/1.1/DTD/svg11.dtd" >
<svg xmlns="http://www.w3.org/2000/svg">
<metadata>
This is a custom SVG webfont generated by Fontspring.
Designer    : Chank Diesel
Foundry     : Chank Co
Foundry URL : http://www.chank.com
</metadata>
<defs>
<font id="webfont" horiz-adv-x="587" >
<font-face units-per-em="1000" ascent="769" descent="-231" />
<missing-glyph horiz-adv-x="354" />
<glyph unicode=" "  horiz-adv-x="354" />
<glyph unicode="&#x09;" horiz-adv-x="354" />
<glyph unicode="&#xa0;" horiz-adv-x="354" />
<glyph unicode="!" horiz-adv-x="226" d="M369 701l-134 -456h-120l91 456h163zM210 81q-10 -37 -39.5 -63t-61.5 -26t-49 26t-7 63q9 37 38.5 63t61.5 26t49 -26t8 -63z" />
<glyph unicode="&#x22;" horiz-adv-x="439" d="M524 548l-49 -158h-113l29 158l37 153h134zM301 548l-49 -158h-114l29 158l38 153h133z" />
<glyph unicode="#" horiz-adv-x="666" d="M736 541l-32 -105h-114q-34 -105 -42 -135h114l-33 -106h-115l-44 -149h-93l45 149h-124l-45 -149h-93l46 149h-122l33 106h121l43 135h-122l32 105h122l22.5 72.5l20.5 66.5h94l-45 -139h125q21 63 43 139h93l-45 -139h115zM497 436h-123l-43 -135h124q8 30 42 135z" />
<glyph unicode="$" horiz-adv-x="597" d="M625 227q-15 -61 -54 -105.5t-90 -66t-97.5 -31t-91.5 -9.5h-13l-44 -101h-96l51 114q-52 14 -139 79l80 129q96 -60 121 -69l51 117q-26 5 -47 11t-44.5 16.5t-37.5 24.5t-27 35t-12 47.5t7 62.5q13 49 41.5 87.5t62.5 60t75.5 35t75.5 18t68 4.5h18q37 86 41 94l96 1 l-49 -109q68 -21 134 -74l-76 -119q-63 44 -118 58q-9 -22 -27 -61.5t-23 -51.5q22 -3 40 -7t39.5 -11t36 -17t29.5 -25t19.5 -34t7 -45t-7.5 -58zM482 227q5 21 -19 31q-12 5 -33 8l-37 6q-10 -24 -28.5 -64.5t-23.5 -52.5q53 5 93 23t48 49zM421 548q-66 -1 -98.5 -20 t-37.5 -42q-5 -22 20 -33.5t66 -17.5l27 60.5t23 52.5z" />
<glyph unicode="%" horiz-adv-x="707" d="M705 162q-17 -69 -72.5 -117.5t-117.5 -48.5q-61 0 -92.5 48.5t-14.5 117.5t73 118t117 49q62 0 93 -48.5t14 -118.5zM818 701l-683 -701h-97l680 700zM446 541q-17 -70 -72 -118.5t-117 -48.5t-93 48.5t-14 118.5q17 69 72.5 117.5t117.5 48.5q61 0 92 -48.5t14 -117.5z M604 162q7 28 -2.5 47t-29.5 19q-19 0 -38 -19t-26 -47q-7 -27 2.5 -46.5t28.5 -19.5q20 0 39 19.5t26 46.5zM346 541q7 27 -2.5 46.5t-28.5 19.5q-20 0 -39 -19t-26 -47t2.5 -47t29.5 -19q19 0 38 19t26 47z" />
<glyph unicode="&#x26;" horiz-adv-x="708" d="M668 1h-137l-50 79q-110 -90 -202 -90q-21 0 -39 1.5t-40 5t-39.5 11t-35 18.5t-28.5 28.5t-18 39.5t-5.5 53.5t10.5 68.5q32 127 198 202l-5 7l-19 44q-17 41 -6 85q17 67 87 114.5t158 47.5q90 0 125.5 -49t17.5 -119q-25 -99 -162 -174l51 -89q26 28 47 53t29 36l8 11 l81 -67q-49 -66 -107 -132l89 -151zM422 179l-77 133q-53 -25 -82.5 -47.5t-37.5 -52.5q-13 -53 14 -72t80 -19q37 0 103 58zM508 549q6 20 -2 35.5t-36 15.5q-29 0 -48.5 -14.5t-24.5 -35.5q-4 -18 2 -34q3 -8 11 -23l12 -22q27 15 55 40.5t31 37.5z" />
<glyph unicode="'" horiz-adv-x="202" d="M311 596l-60 -206h-116l42 206l27 105h132z" />
<glyph unicode="(" horiz-adv-x="323" d="M482 747q-85 -76 -127 -123.5t-74.5 -111t-56.5 -160.5q-29 -103 -16.5 -192.5t76.5 -199.5l-63 -65q-180 199 -115 458q38 152 133 269.5t211 188.5l34 -56z" />
<glyph unicode=")" horiz-adv-x="323" d="M382 353q-66 -262 -344 -458l-28 66q118 110 172.5 195.5t81.5 195.5q18 74 23.5 124t-4.5 97t-27.5 83.5t-54.5 94.5l67 60q80 -71 116 -189t-2 -269z" />
<glyph unicode="*" horiz-adv-x="509" d="M580 387l-161 -28l73 -127l-126 -84l-37 167l-124 -162l-84 84l143 125l-144 34l74 137l128 -80q8 43 32 197h130l-75 -198l165 72z" />
<glyph unicode="+" horiz-adv-x="475" d="M511 274h-153l-45 -181h-108l45 181h-153l29 119h153l46 182h108l-46 -182h153z" />
<glyph unicode="," horiz-adv-x="217" d="M202 46q-16 -65 -75 -130t-120 -90l-8 80q17 11 45.5 37.5t42.5 44.5h-4q-27 0 -35 25t-1 55q9 36 40 58.5t60 22.5q35 0 50.5 -28.5t4.5 -74.5z" />
<glyph unicode="-" horiz-adv-x="413" d="M420 245h-327l30 123h327z" />
<glyph unicode="." horiz-adv-x="240" d="M218 83q-10 -38 -40 -65t-62 -27t-48 27t-6 65q10 39 39 65.5t61 26.5q33 0 49.5 -26.5t6.5 -65.5z" />
<glyph unicode="/" horiz-adv-x="504" d="M687 769l-579 -832h-125l578 832h126z" />
<glyph unicode="0" horiz-adv-x="747" d="M791 338q-27 -108 -98 -189t-156 -119.5t-170 -38.5q-135 0 -213.5 93.5t-38.5 253.5q29 117 101 201.5t156.5 123t171.5 38.5q63 0 116.5 -22.5t91.5 -67.5t49 -113t-10 -160zM639 338q23 94 -12.5 155t-118.5 61q-84 0 -149.5 -61t-89.5 -155q-23 -89 14 -144.5 t121 -55.5q83 0 148 57.5t87 142.5z" />
<glyph unicode="1" horiz-adv-x="467" d="M368 0h-148l111 446l-118 -118l-58 102l258 259h126z" />
<glyph unicode="2" horiz-adv-x="649" d="M712 472q-10 -41 -33.5 -76t-48 -58t-67 -47.5t-69 -36.5l-75.5 -33l-35 -14q-92 -34 -128 -66h369l-35 -141h-537l10 107q53 84 112 130t145 82q6 3 35.5 15t44.5 19q84 40 123.5 66t45.5 52q10 39 -12 61t-97 22q-108 0 -257 -78l-15 127q168 97 308 97q35 0 67.5 -6 t67.5 -21.5t55.5 -41.5t31 -65.5t-5.5 -93.5z" />
<glyph unicode="3" horiz-adv-x="649" d="M652 214q-16 -65 -57 -112t-94 -69.5t-100.5 -32t-93.5 -9.5q-126 0 -241 84l67 138q103 -77 210 -77q73 0 107 22t41 50q12 48 -45 68q-38 5 -65 5q-48 0 -89 -9q-2 21 9 72q12 46 28 74q0 -1 10.5 -3.5t31.5 -5t43 -2.5q40 0 88 19t58 58q5 10 1 22.5t-13 23.5t-35 18 t-65 7q-109 0 -249 -77l3 138q144 84 282 84q29 0 57 -3.5t60.5 -12.5t56 -25t43 -40.5t22.5 -59.5t-6 -81q-19 -75 -98 -127q56 -45 33 -137z" />
<glyph unicode="4" horiz-adv-x="655" d="M653 158h-89l-39 -158h-144l39 158h-334l24 97l489 435l97 -1l-101 -408h89zM451 281l44 180l-205 -180h161z" />
<glyph unicode="5" horiz-adv-x="655" d="M668 223q-16 -65 -58 -113t-96 -72t-103 -34.5t-94 -10.5q-140 0 -255 94l79 127q103 -77 212 -77q75 0 116.5 28t49.5 63q10 40 -10 68.5t-86 28.5q-110 0 -183 -53h-118l125 413h504l-35 -143h-374q-5 -17 -20 -58.5t-22 -65.5q80 37 159 37q37 0 69.5 -6t66 -21.5 t52.5 -42t28 -66.5t-7 -96z" />
<glyph unicode="6" horiz-adv-x="686" d="M704 230q-16 -62 -58.5 -110.5t-96.5 -75.5t-107.5 -40.5t-100.5 -13.5q-136 0 -202 90t-22 268q43 169 164 261t259 92q73 0 130.5 -20.5t87.5 -57.5l-75 -119q-36 32 -72.5 44t-112.5 12q-77 0 -141 -50.5t-92 -133.5q101 88 231 88q110 0 172 -64.5t36 -169.5z M576 241q9 37 -30 64t-86 22q-57 -5 -118 -26.5t-96 -65.5q1 -44 40 -72t87 -28q176 0 203 106z" />
<glyph unicode="7" horiz-adv-x="622" d="M720 552l-492 -552h-165l477 541h-356l36 144h530z" />
<glyph unicode="8" horiz-adv-x="636" d="M652 197q-23 -92 -118.5 -148.5t-208.5 -56.5q-125 0 -197.5 54.5t-49.5 147.5q13 53 49.5 96t83.5 67q-76 49 -52 142q24 96 112 148.5t217 52.5t191 -54.5t38 -150.5q-22 -87 -121 -130q37 -27 52.5 -71.5t3.5 -96.5zM577 496q8 31 -22 54t-96 23q-67 0 -106.5 -20.5 t-46.5 -49.5t31 -53t103 -35q68 16 99 34.5t38 46.5zM490 200q8 29 -29 59t-98 39q-60 -11 -97 -39.5t-46 -62.5q-8 -30 20 -51t95 -21q66 0 106.5 23t48.5 53z" />
<glyph unicode="9" horiz-adv-x="683" d="M732 344q-28 -114 -96 -196.5t-151.5 -120t-173.5 -37.5q-142 0 -215 78l70 120q37 -33 72.5 -45t110.5 -12q76 0 141.5 51t93.5 133q-112 -99 -238 -99q-109 0 -168.5 69t-32.5 174q20 82 81.5 139t133.5 80t149 23q145 0 205.5 -92.5t17.5 -264.5zM606 459 q-4 42 -43.5 75.5t-83.5 33.5q-172 0 -201 -116q-11 -44 25.5 -74.5t83.5 -30.5q52 0 119.5 31.5t99.5 80.5z" />
<glyph unicode=":" horiz-adv-x="260" d="M296 410q-10 -39 -40 -66t-63 -27q-32 0 -49 27t-7 66q9 38 39.5 65.5t62.5 27.5q33 0 49.5 -27.5t7.5 -65.5zM215 88q-10 -39 -40 -66t-63 -27t-49.5 27t-6.5 66q10 38 40 65t62 27q33 0 50 -27t7 -65z" />
<glyph unicode=";" horiz-adv-x="252" d="M294 409q-9 -38 -39 -65.5t-63 -27.5q-32 0 -48.5 27.5t-7.5 65.5q10 39 40.5 66.5t62.5 27.5q33 0 49 -27.5t6 -66.5zM202 48q-16 -65 -75 -131t-120 -91l-8 81q17 12 46 39t42 45h-4q-28 0 -36 27t1 54q9 36 39.5 58t59.5 22q35 0 51 -29.5t4 -74.5z" />
<glyph unicode="&#x3c;" horiz-adv-x="606" d="M539 -17l-440 306l31 125l590 294l-41 -166l-381 -193l283 -199z" />
<glyph unicode="=" horiz-adv-x="429" d="M486 367h-362l31 126h362zM427 131h-362l32 126h362z" />
<glyph unicode="&#x3e;" horiz-adv-x="631" d="M635 289l-594 -306l42 167l383 199l-285 193l41 166l444 -294z" />
<glyph unicode="?" horiz-adv-x="555" d="M651 500q-10 -41 -28 -72t-38.5 -49t-47.5 -31t-49 -19l-50 -13q-9 -2 -14 -3q-71 -18 -88 -31q-14 -10 -17 -24q-4 -16 0 -36h-122q-3 31 6 63q9 35 27 59.5t48.5 39.5t51 21t59.5 15q35 8 55.5 15t41 24t26.5 41q6 25 -4 41.5t-33.5 23t-41 8.5t-39.5 2 q-38 0 -74 -11.5t-61 -25t-76 -45.5l-23 112q135 96 265 96q24 0 47 -2t50.5 -7.5t48.5 -15t42 -24.5t30.5 -36t14 -50t-6.5 -66zM310 81q-9 -38 -38.5 -63.5t-59.5 -25.5t-47 25.5t-8 63.5t39 63.5t60 25.5t46.5 -25.5t7.5 -63.5z" />
<glyph unicode="@" horiz-adv-x="780" d="M823 379q-31 -123 -109 -206t-161 -83q-33 0 -59 25t-35 61q-68 -60 -117 -60q-40 0 -65.5 21t-34 55.5t-5.5 74.5t16 81v-1q29 90 102 154.5t162 64.5q45 0 69 -58l19 36h112l-137 -256q-10 -18 -13 -33q-6 -26 3.5 -41t26.5 -15q35 0 76.5 50.5t61.5 128.5 q31 124 -23.5 189.5t-158.5 65.5q-121 0 -221.5 -70t-134.5 -206q-34 -137 25.5 -224.5t184.5 -87.5q54 0 114 31l-1 -90q-76 -34 -136 -34q-167 0 -243.5 107t-29.5 296q25 98 74 172t113 116t134 62.5t145 20.5q90 0 154.5 -40t91.5 -120t0 -187zM527 386q2 41 -10.5 61.5 t-32.5 20.5q-26 0 -65 -38t-57 -89q-6 -15 -10 -30q-18 -76 30 -76q19 0 50 15t50 39z" />
<glyph unicode="A" horiz-adv-x="732" d="M701 0h-157l-16 131h-278l-85 -131h-153l466 703h120zM511 273l-31 220l-141 -220h172z" />
<glyph unicode="B" horiz-adv-x="636" d="M626 201q-23 -92 -94.5 -146.5t-160.5 -54.5h-331l174 701h321q100 0 140.5 -56t17.5 -145q-23 -91 -110 -143q28 -24 41.5 -67t1.5 -89zM556 489q8 31 -9 52t-64 21h-152l-37 -146h144q48 0 79.5 21.5t38.5 51.5zM483 207q8 32 -9 54t-63 22h-150l-36 -144h143 q48 0 78 20t37 48z" />
<glyph unicode="C" horiz-adv-x="681" d="M635 242l38 -130q-147 -121 -316 -121q-139 0 -210 95.5t-28 266.5q26 107 96.5 191.5t154.5 127t165 42.5q167 0 255 -105l-101 -139q-41 48 -82.5 70.5t-105.5 22.5q-74 0 -140.5 -58.5t-90.5 -153.5q-23 -94 14 -154t110 -60q63 0 116.5 26.5t124.5 78.5z" />
<glyph unicode="D" horiz-adv-x="709" d="M751 351q-38 -152 -158.5 -251.5t-277.5 -99.5h-258l174 701h286q143 0 206.5 -103.5t27.5 -246.5zM606 347q24 94 -13 154t-148 60h-93l-105 -420h91q98 0 172.5 60t95.5 146z" />
<glyph unicode="E" horiz-adv-x="612" d="M549 0h-503l175 701h491l-36 -144h-335q-5 -21 -17 -67.5l-18 -71.5h284l-35 -140h-283l-33 -133h346z" />
<glyph unicode="F" horiz-adv-x="567" d="M663 557h-325l-37 -150h263l-36 -145h-263l-65 -262h-155l174 701h480z" />
<glyph unicode="G" horiz-adv-x="736" d="M821 587l-99 -116q-35 36 -100 69q-50 23 -119 23q-83 0 -149 -56.5t-89 -149.5q-24 -96 14.5 -155t118.5 -59q97 0 181 57l19 70h-193l34 137h332l-72 -290q-53 -44 -132 -79q-106 -48 -207 -48q-60 0 -112.5 23t-90 69t-49 114t9.5 157q22 87 69.5 157.5t107 113.5 t123.5 66t123 23q88 0 149 -24q38 -16 78 -48t53 -54z" />
<glyph unicode="H" horiz-adv-x="676" d="M611 0h-157l66 265h-247l-66 -265h-157l174 701h158l-71 -285h246l71 285h157z" />
<glyph unicode="I" horiz-adv-x="288" d="M216 0h-156l174 701h156z" />
<glyph unicode="J" horiz-adv-x="303" d="M262 68q-26 -108 -111 -184t-178 -76q-53 0 -102 34l58 128q41 -16 69 -16q79 0 117 149l149 598h156z" />
<glyph unicode="K" horiz-adv-x="649" d="M622 0h-171l-103 304l-86 -74l-57 -230h-157l175 701h156l-67 -268l311 268h159l-5 -22l-297 -259l147 -396z" />
<glyph unicode="L" horiz-adv-x="615" d="M568 0h-521l173 701h156l-137 -550h366z" />
<glyph unicode="M" horiz-adv-x="907" d="M853 0h-147l57 370l-304 -359h-63l-93 354l-123 -365h-148l224 701l124 1l122 -448l376 448l98 -1z" />
<glyph unicode="N" horiz-adv-x="696" d="M631 0h-75l-255 399l-100 -399h-151l174 701h94l242 -381l96 381h149z" />
<glyph unicode="O" horiz-adv-x="771" d="M819 347q-22 -88 -70 -159.5t-109 -115.5t-128.5 -67.5t-133.5 -23.5t-122 23t-95 69.5t-51 115.5t10 161q30 121 104 207.5t161 125t177 38.5q140 0 220 -100.5t37 -273.5zM671 347q24 96 -14 159t-133 63q-96 0 -164.5 -62.5t-92.5 -159.5q-23 -92 15 -153t134 -61 t164 60t91 154z" />
<glyph unicode="P" horiz-adv-x="629" d="M692 448q-28 -113 -117.5 -181t-190.5 -68h-132l-49 -199h-157l175 701h291q107 0 158.5 -67.5t21.5 -185.5zM542 446q11 46 -10 72.5t-70 26.5h-124l-49 -200h116q49 0 87.5 29.5t49.5 71.5z" />
<glyph unicode="Q" horiz-adv-x="784" d="M830 342q-34 -136 -142.5 -239t-219.5 -117q14 -37 65 -59q69 -29 133 -19l-79 -152q-115 9 -181 62q-81 62 -87 167q-67 12 -118 55.5t-76.5 120t1.5 181.5q21 84 71 156t113 118t131 72t129 26q64 0 120.5 -25.5t95 -73.5t52 -117t-7.5 -156zM678 342q23 95 -16.5 159 t-129.5 64t-160 -63.5t-94 -159.5q-23 -92 15 -154t130 -62q93 0 162.5 61.5t92.5 154.5z" />
<glyph unicode="R" horiz-adv-x="653" d="M605 0h-149l-140 264h-50l-65 -264h-154l173 701h332q102 0 143 -57t16 -155q-19 -75 -83 -133t-140 -79l125 -242zM560 487q18 70 -68 70h-153l-35 -143l144 -1q47 0 76 21.5t36 52.5z" />
<glyph unicode="S" horiz-adv-x="632" d="M643 220q-16 -66 -56.5 -113.5t-92.5 -71t-100 -34t-94 -10.5q-73 0 -124.5 22t-117.5 78l82 136q67 -47 109.5 -67.5t77.5 -20.5q58 0 109.5 21t61.5 60q5 20 -5 34t-33.5 21.5t-40 10.5t-41.5 6q-6 1 -9 1q-22 3 -38 5.5t-38 7t-37.5 10t-33.5 14.5t-30 19t-23 25 t-15.5 32.5t-4.5 40.5t7 50q17 65 56.5 112t90 69t95.5 31.5t89 9.5q134 0 244 -95l-78 -127q-96 75 -203 75q-71 0 -107 -21.5t-42 -47.5q-6 -23 22 -38t57.5 -19t51.5 -4l41 -5t41.5 -7t42 -12.5t37 -19t31.5 -27.5t19.5 -37t8 -50t-9.5 -64z" />
<glyph unicode="T" horiz-adv-x="654" d="M770 557h-226l-138 -557h-158l138 557h-227l36 144h611z" />
<glyph unicode="U" horiz-adv-x="720" d="M754 359q-43 -171 -149.5 -270t-248.5 -99q-146 0 -205.5 97.5t-17.5 262.5l88 351h153l-83 -334q-28 -113 1 -167t103 -54q66 0 124 60t84 165l82 330h154z" />
<glyph unicode="V" horiz-adv-x="738" d="M863 677l-440 -679h-122l-113 679l5 24h146l68 -486l305 486h157z" />
<glyph unicode="W" horiz-adv-x="964" d="M1101 675l-383 -675h-102l-18 458l-235 -458h-113l-55 675l6 26h149l29 -412l202 412h133l19 -420l222 420h152z" />
<glyph unicode="X" horiz-adv-x="685" d="M635 0h-161l-93 225l-209 -225h-149l6 26l298 321l-136 327l6 27h160l92 -222l199 222h151l-6 -26l-291 -318l138 -330z" />
<glyph unicode="Y" horiz-adv-x="666" d="M809 675l-332 -411l-65 -264h-158l67 270l-127 404l6 27h154l92 -290l226 290h143z" />
<glyph unicode="Z" horiz-adv-x="627" d="M735 601l-458 -462h329l-34 -139h-538l25 102l462 461h-338l34 138h543z" />
<glyph unicode="[" horiz-adv-x="338" d="M266 -91h-243l219 882h233l-31 -122h-83l-160 -637h95z" />
<glyph unicode="\" horiz-adv-x="465" d="M459 -66h-114l-164 832h113z" />
<glyph unicode="]" horiz-adv-x="338" d="M272 -91h-243l30 123h94l159 637h-84l31 122h233z" />
<glyph unicode="^" horiz-adv-x="531" d="M594 443h-133l-58 140l-128 -140h-134l260 299h88z" />
<glyph unicode="_" horiz-adv-x="333" d="M319 -149h-364l20 79h364z" />
<glyph unicode="`" horiz-adv-x="523" d="M566 551h-110l-166 165l23 25h145z" />
<glyph unicode="a" d="M553 0q-21 -3 -49 -3q-78 0 -101 42q-63 -47 -151 -47q-40 0 -75 9t-64 28t-40 53.5t0 80.5q43 173 266 173q61 0 98 -14q1 -1 5 -1q10 43 -4 53q-28 21 -80 21q-57 0 -173 -46l6 101q29 18 92 36t107 18q108 0 155 -39q35 -29 43 -63.5t-5 -82.5l-39 -155 q-8 -30 -0.5 -41.5t38.5 -2.5zM395 133l2 9l2 10l17 67q-77 11 -92 11q-46 0 -74 -18t-35 -45q-7 -28 10 -43.5t59 -15.5q70 0 111 25z" />
<glyph unicode="b" horiz-adv-x="562" d="M594 255q-30 -122 -113.5 -192t-178.5 -70q-56 0 -115 42l-8 -35h-144l185 742h144l-69 -275q62 35 129 35q96 0 147 -68t23 -179zM448 248q13 50 -5 81.5t-66 31.5q-28 0 -62 -13t-58 -34l-34 -137q15 -18 42.5 -30t54.5 -12q48 0 82 32t46 81z" />
<glyph unicode="c" horiz-adv-x="545" d="M607 435l-63 -122q-71 55 -159 55q-52 0 -94.5 -36.5t-54.5 -85.5q-12 -46 13 -78t78 -32q85 0 172 45l9 -118q-106 -74 -217 -74q-113 0 -173 67.5t-29 188.5q31 125 123.5 192.5t206.5 67.5t188 -70z" />
<glyph unicode="d" horiz-adv-x="578" d="M526 0h-142l10 41q-62 -48 -122 -48q-101 0 -160 67.5t-29 184.5q17 68 49.5 119t75 80t89.5 43.5t98 14.5q58 0 102 -38l70 278h144zM426 179l36 144q-31 43 -89 43q-49 0 -91 -33.5t-54 -81.5t13 -82.5t74 -34.5q59 0 111 45z" />
<glyph unicode="e" horiz-adv-x="554" d="M576 207h-349q0 -37 25.5 -60.5t67.5 -23.5q102 0 170 39l17 -103q-91 -69 -225 -69q-113 0 -169.5 65t-25.5 190t118.5 192t200.5 67q118 0 163 -76t7 -221zM457 307q3 11 0 24.5t-9.5 25t-25 19.5t-46.5 8q-70 0 -116 -77h197z" />
<glyph unicode="f" horiz-adv-x="350" d="M504 731l-50 -141q-25 9 -45 9q-28 0 -41 -10q-22 -15 -33 -56l-9 -40h109l-31 -119h-107l-95 -386q-10 -43 -42 -88t-68 -68q-59 -38 -117 -38q-40 0 -79 19l51 141q27 -10 45 -10q25 0 38 10q24 18 34 56l90 364h-67l29 119h67l15 63q12 45 42 89.5t67 67.5 q55 36 117 36q37 0 80 -18z" />
<glyph unicode="g" horiz-adv-x="579" d="M535 35q-16 -64 -52 -112.5t-81.5 -75t-90.5 -39t-89 -12.5q-50 0 -94 19t-72 44l55 101q62 -43 127 -43q39 0 87.5 26.5t58.5 68.5l7 27q-60 -46 -119 -46q-98 0 -153.5 67.5t-28.5 177.5q20 80 72.5 142t111.5 92t113 30q30 0 62 -14.5t45 -36.5l10 42h145zM423 167 l38 150q-31 43 -89 43q-48 0 -86 -33.5t-50 -81.5q-13 -50 8 -87t69 -37q57 0 110 46z" />
<glyph unicode="h" horiz-adv-x="549" d="M502 0h-144l75 304q17 66 -42 66q-48 0 -127 -59l-77 -311h-144l185 742h144l-75 -297q68 56 137 56q84 0 125.5 -51t21.5 -130z" />
<glyph unicode="i" horiz-adv-x="218" d="M334 627q-8 -32 -35 -53.5t-56 -21.5q-28 0 -44 21.5t-8 53.5t35 54t55 22t44.5 -22t8.5 -54zM175 0h-140l122 493h140z" />
<glyph unicode="j" horiz-adv-x="227" d="M179 -11q-11 -43 -42 -87.5t-68 -68.5q-55 -36 -116 -36q-36 0 -80 17l50 141q30 -9 46 -9q25 0 38 9q24 19 33 57l120 481h144zM338 627q-8 -32 -35 -53.5t-56 -21.5q-28 0 -44 21.5t-8 53.5t35 54t55 22t44.5 -22t8.5 -54z" />
<glyph unicode="k" horiz-adv-x="523" d="M501 0h-149l-85 214q-6 -4 -17 -12.5t-17 -12.5l-47 -189h-142l184 742h143l-97 -388l189 139h152l-6 -25l-209 -154l105 -295z" />
<glyph unicode="l" horiz-adv-x="252" d="M191 0h-144l185 742h144z" />
<glyph unicode="m" horiz-adv-x="850" d="M799 0h-141l76 306q16 66 -44 66q-43 0 -105 -44l-81 -328h-143l76 306q17 66 -44 66q-45 0 -126 -59l-78 -313h-143l122 493h143l-11 -47q68 57 138 57q47 0 83.5 -20t55.5 -53q96 73 158 73q84 0 124 -51t20 -130z" />
<glyph unicode="n" horiz-adv-x="549" d="M502 0h-144l76 306q16 66 -43 66q-47 0 -126 -59l-78 -313h-144l122 493h144l-11 -47q68 57 137 57q84 0 125.5 -51t21.5 -130z" />
<glyph unicode="o" horiz-adv-x="592" d="M607 245q-33 -129 -120.5 -192.5t-200.5 -63.5q-110 0 -168.5 65.5t-27.5 190.5q32 130 122.5 195t201.5 65q109 0 166.5 -67t26.5 -193zM468 246q12 51 -11 85t-77 34q-55 0 -96 -34t-53 -85q-12 -48 12 -81t78 -33t94.5 32.5t52.5 81.5z" />
<glyph unicode="p" horiz-adv-x="575" d="M609 251q-32 -127 -115.5 -193.5t-188.5 -66.5q-63 0 -111 40l-57 -231h-143l171 693h144l-7 -31q25 17 59.5 28.5t62.5 11.5q103 0 158.5 -68t26.5 -183zM463 244q13 53 -11.5 85t-75.5 32q-58 0 -111 -46l-35 -140q14 -19 41.5 -31t54.5 -12q50 0 87.5 31t49.5 81z" />
<glyph unicode="q" horiz-adv-x="562" d="M464 -200h-145l56 225q-61 -34 -117 -34q-98 0 -153 68.5t-28 178.5q30 121 120.5 192t191.5 71q29 0 55 -15t42 -39l11 46h139zM413 178l35 139q-31 43 -89 43q-49 0 -86.5 -33.5t-49.5 -81.5q-12 -49 9 -81.5t70 -32.5q59 0 111 47z" />
<glyph unicode="r" horiz-adv-x="406" d="M485 492l-43 -158h-12q-4 11 -19.5 19.5t-31.5 8.5q-29 0 -63.5 -23.5t-59.5 -56.5l-70 -282h-144l122 493h144l-14 -57q72 67 131 67q43 0 60 -11z" />
<glyph unicode="s" horiz-adv-x="533" d="M535 155q-41 -163 -279 -163q-64 0 -112 17.5t-104 58.5l68 97q76 -59 176 -59q31 0 63.5 10t36.5 28q2 10 -7 16.5t-24.5 9.5t-26.5 4t-20 1q-14 0 -25.5 0.5t-28.5 1.5t-30.5 3.5t-30 6t-29 10t-25.5 14.5t-20.5 20t-13 26t-5 32.5t5.5 40.5q13 52 45.5 88.5t75.5 53.5 t81.5 23.5t80.5 6.5q72 0 115.5 -16t79.5 -56l-69 -97q-38 29 -72.5 42.5t-82.5 13.5q-28 0 -66.5 -11t-43.5 -32q-2 -10 9 -17.5t29 -10.5t31.5 -4.5t22.5 -1.5q19 0 37 -1t42 -5t41.5 -11t37 -18.5t28 -28t14 -40t-4.5 -53.5z" />
<glyph unicode="t" horiz-adv-x="455" d="M441 84q-37 -36 -88.5 -60t-86.5 -24q-60 0 -100 36q-24 23 -33.5 68t1.5 86l45 183h-67l30 120h67l24 93l158 63l-39 -156h162l-30 -120h-162l-39 -160q-11 -38 6 -55q9 -10 34 -10q13 0 46.5 13t61.5 37z" />
<glyph unicode="u" horiz-adv-x="556" d="M499 0h-138l11 48q-84 -56 -134 -56q-84 0 -128 50.5t-25 127.5l80 323h143l-75 -302q-14 -61 46 -61q42 0 121 53l77 310h144z" />
<glyph unicode="v" horiz-adv-x="577" d="M656 463l-325 -463h-111l-78 464l7 29h140l46 -284l186 284h142z" />
<glyph unicode="w" horiz-adv-x="810" d="M897 464l-278 -464h-100l-41 287l-179 -287h-98l-58 464l7 29h129l31 -255l172 255h96l42 -266l156 266h128z" />
<glyph unicode="x" horiz-adv-x="559" d="M525 0h-144l-75 139l-143 -139h-138l6 25l226 221l-116 221l6 26h149l72 -141l143 141h136l-6 -26l-225 -221l115 -221z" />
<glyph unicode="y" horiz-adv-x="576" d="M665 472l-374 -578q-62 -97 -192 -97q-33 0 -91 6l35 138l29 -3q55 -5 60 -5q28 0 44.5 13t33.5 41l31 51l-105 432l5 23h145l67 -277l174 277h143z" />
<glyph unicode="z" horiz-adv-x="546" d="M506 0h-471l17 70l308 292h-235l32 131h471l-18 -75l-296 -286h224z" />
<glyph unicode="{" horiz-adv-x="354" d="M325 -25q-69 -53 -127 -53q-49 0 -75 25t-27 65.5t10 91.5q9 32 21 63q13 32 20 61q18 68 7 77h1q-6 4 -25 5l-38 2l20 80l57 4q20 2 32 52q6 26 14 73q9 51 14 74q44 178 182 178q56 0 100 -38l-28 -81q-34 16 -53 16q-26 0 -35.5 -11t-17.5 -45q-6 -24 -14 -74t-15 -77 q-8 -31 -30 -61.5t-49 -50.5q41 -35 19 -125q-6 -22 -20 -66q-15 -49 -19 -67q-10 -33 -5 -46.5t33 -13.5q21 0 53 9z" />
<glyph unicode="|" horiz-adv-x="225" d="M159 -66h-126l208 835h126z" />
<glyph unicode="}" horiz-adv-x="354" d="M411 312l-61 -5q-16 -1 -36 -79q-5 -18 -11 -61q-3 -32 -11 -63q-46 -182 -182 -182q-64 0 -103 47l32 73q27 -9 49 -9q28 0 38.5 12.5t19.5 47.5q10 44 13 67q8 44 14 66q23 92 80 125q-41 42 -23 112q3 11 24 77q19 60 23 74q9 32 5 44t-30 12q-19 0 -61 -16l10 81 q63 38 121 38q138 0 94 -178q-9 -35 -24 -74q-17 -54 -22 -73q-13 -50 6 -52l55 -4z" />
<glyph unicode="~" horiz-adv-x="527" d="M654 645q-22 -42 -76.5 -94t-109.5 -52q-30 0 -59.5 18.5t-52 36.5t-37.5 18q-51 0 -98 -70l-61 28q6 16 22 41t40 56t57 52.5t65 21.5q33 0 80.5 -41t70.5 -41q52 0 106 65z" />
<glyph unicode="&#xa1;" horiz-adv-x="226" d="M348 620q-9 -36 -38.5 -61.5t-61.5 -25.5t-49 25t-8 62q10 38 39 63.5t62 25.5q32 0 49 -25.5t7 -63.5zM195 0h-163l138 466h120z" />
<glyph unicode="&#xa2;" horiz-adv-x="462" d="M487 219q-99 -97 -219 -97h-9l-55 -122h-76l63 140q-49 26 -70 81.5t-1 135.5q25 103 103.5 168.5t160.5 65.5h9q2 0 4 -0.5t4 -0.5q12 28 50 110h77l-59 -126q51 -22 83 -74l-77 -91q-34 42 -58 53l-105 -227q52 4 138 68l39 -78zM346 476q-39 -4 -71 -36.5t-45 -84.5 q-16 -66 15 -100z" />
<glyph unicode="&#xa3;" horiz-adv-x="678" d="M620 0h-537l67 271h-61l35 139h61q41 149 134.5 227t197.5 78q66 0 107.5 -42.5t55.5 -117.5l-121 -86q-13 52 -29 77t-46 25q-91 0 -142 -161h123l-35 -139h-124l-33 -127h382z" />
<glyph unicode="&#xa4;" horiz-adv-x="737" d="M741 130q-67 -69 -153 -105.5t-164 -36.5q-98 0 -163 68t-65 184h-96l54 75h49q1 3 1 9q9 42 12 50h-82l55 79h55q55 121 157.5 194.5t203.5 73.5q77 0 140.5 -32.5t101.5 -98.5l-84 -116q-79 101 -191 101q-52 0 -101.5 -32t-83.5 -90h216l-55 -79h-194q-6 -18 -15 -59 h230l-54 -75h-174q8 -50 40.5 -78.5t79.5 -28.5q108 0 250 118l31 -115z" />
<glyph unicode="&#xa5;" horiz-adv-x="642" d="M811 701l-271 -338h72l-26 -106h-126l-14 -54h126l-26 -105h-126l-24 -98h-153l24 98h-123l26 105h122l14 54h-122l26 106h74l-95 338h156l78 -306l236 306h152z" />
<glyph unicode="&#xa6;" horiz-adv-x="201" d="M250 403h-99l90 361h99zM134 -64h-99l91 368h99z" />
<glyph unicode="&#xa7;" horiz-adv-x="571" d="M636 395q-18 -70 -82 -116q25 -31 11 -89q-14 -56 -61 -98.5t-105 -63t-105.5 -30t-80.5 -9.5q-59 0 -154 39l63 109l11 -4q84 -28 135 -28q37 0 97.5 19.5t68.5 53.5q2 8 -1 12.5t-11 6t-12 2t-14 0.5h-4q-34 0 -71 -3q-46 -4 -72 -4q-12 0 -22 0.5t-26 2.5t-27.5 6 t-26 10.5t-22 16.5t-15.5 24t-6.5 33t5.5 43q18 69 85 117q-27 29 -13 87q11 46 44.5 82t74 56.5t87 34.5t80.5 18.5t59 4.5q72 0 152 -35l-59 -103q-65 24 -127 24q-48 0 -110.5 -15.5t-71.5 -52.5q-2 -8 3.5 -13t18 -6.5t18.5 -2t18 -0.5q32 0 68 3q44 4 69 4 q12 0 22 -0.5t25.5 -2.5t26 -6t24 -10.5t20 -16.5t14 -24t5.5 -33t-6 -43zM507 385q-2 4 -5 7.5t-8 6l-9 4.5t-10.5 3t-10.5 2t-12 1h-11.5h-11.5h-10q-26 0 -59.5 -4t-74.5 -20.5t-47 -43.5q-4 -17 35 -24t66 -7q21 0 55 6.5t70.5 25t42.5 43.5z" />
<glyph unicode="&#xa8;" horiz-adv-x="667" d="M649 632q-7 -28 -31 -47.5t-50 -19.5t-39.5 19.5t-6.5 47.5q8 29 31 48.5t49 19.5t40 -20t7 -48zM456 632q-7 -28 -30.5 -47.5t-49.5 -19.5t-40 19.5t-7 47.5t31 48t50 20t39.5 -20t6.5 -48z" />
<glyph unicode="&#xa9;" horiz-adv-x="806" d="M837 339q-39 -157 -171 -266t-278 -109t-223.5 109t-38.5 266q39 156 170.5 265t277.5 109t224 -109t39 -265zM775 339q31 124 -32 213.5t-186 89.5t-231.5 -89.5t-139.5 -213.5t32.5 -213.5t186.5 -89.5t231 89.5t139 213.5zM612 203q-32 -32 -82.5 -58t-108.5 -26 q-71 0 -112 59.5t-16 160.5q24 97 94 158t143 61q101 0 145 -79l-55 -68q-24 30 -48 45.5t-62 15.5q-43 0 -82 -37t-54 -97q-15 -59 5.5 -96.5t63.5 -37.5q59 0 143 63l27 -60z" />
<glyph unicode="&#xaa;" horiz-adv-x="502" d="M506 262h-112l6 24q-52 -30 -95 -30q-78 0 -120 60.5t-19 155.5q27 105 98.5 167t147.5 62q47 0 85 -40l16 32h100zM432 416l32 127q-23 39 -70 39q-39 0 -71 -30t-43 -73q-11 -44 6 -74t56 -30q46 0 90 41z" />
<glyph unicode="&#xab;" horiz-adv-x="714" d="M694 79l-254 220l28 112l361 210l-38 -154l-197 -115l139 -117zM358 79l-254 220l28 112l361 210l-38 -154l-197 -115l139 -117z" />
<glyph unicode="&#xac;" horiz-adv-x="610" d="M166 489h504l-90 -366h-129l61 244h-376z" />
<glyph unicode="&#xad;" horiz-adv-x="413" d="M420 245h-327l30 123h327z" />
<glyph unicode="&#xae;" horiz-adv-x="806" d="M837 339q-39 -157 -171 -266t-278 -109t-223.5 109t-38.5 266q39 156 170.5 265t277.5 109t224 -109t39 -265zM775 339q31 124 -32 213.5t-186 89.5t-231.5 -89.5t-139.5 -213.5t32.5 -213.5t186.5 -89.5t231 89.5t139 213.5zM608 142h-80q-45 114 -68 158h-33l-39 -158 h-88l104 418h168q62 0 88 -31.5t10 -92.5q-11 -45 -43.5 -79.5t-77.5 -48.5l27.5 -64t36.5 -83zM596 434q4 19 -6 30.5t-37 11.5h-82l-23 -94h77q27 0 46 15.5t25 36.5z" />
<glyph unicode="&#xaf;" horiz-adv-x="481" d="M589 583h-408l23 92h408z" />
<glyph unicode="&#xb0;" horiz-adv-x="403" d="M484 527q-19 -73 -79.5 -124t-127.5 -51t-102.5 51t-16.5 124q18 73 79 124.5t128 51.5t102 -51.5t17 -124.5zM383 527q7 30 -6 52t-38 22q-26 0 -50.5 -21.5t-31.5 -52.5t6.5 -52t39.5 -21q25 0 49 21.5t31 51.5z" />
<glyph unicode="&#xb1;" horiz-adv-x="391" d="M440 327h-118l-34 -138h-90l34 138h-118l26 105h118l35 138h90l-35 -138h118zM372 57h-322l26 107h322z" />
<glyph unicode="&#xb2;" horiz-adv-x="475" d="M514 540q-8 -30 -23 -53t-41.5 -41.5t-45 -28.5t-54.5 -27l-16 -4q-23 -7 -45 -20q-15 -6 -20 -13h197l-23 -89h-302l10 68q29 47 62 74.5t81 49.5q15 5 17 6q3 1 13 6l14 7q85 39 91 65q5 21 -7 32.5t-49 11.5q-57 0 -143 -48l-9 81q101 58 175 58q58 0 97 -32t21 -103z " />
<glyph unicode="&#xb3;" horiz-adv-x="475" d="M464 391q-12 -49 -48.5 -80.5t-72 -41t-72.5 -9.5q-77 0 -142 56l49 81q59 -46 116 -46q69 0 77 38q5 19 -6.5 30t-24.5 13t-29 2l-46 -6q-5 33 20 82q22 -6 43 -6q24 0 50.5 10t31.5 31q5 16 -8 27.5t-50 11.5q-55 0 -139 -47l-9 80q98 58 171 58q27 0 50 -5.5t47 -20 t30.5 -40t-0.5 -66.5q-12 -47 -51 -74q25 -25 13 -78z" />
<glyph unicode="&#xb4;" horiz-adv-x="503" d="M606 728l-256 -170h-96l206 184h141z" />
<glyph unicode="&#xb5;" horiz-adv-x="537" d="M509 -1h-155q0 5 -1.5 17.5t-1.5 19.5q-71 -49 -125 -49q-30 0 -47 14l-51 -200h-136l171 692h137l-75 -304q-16 -63 43 -63q31 0 116 59l76 308h138l-89 -357q-8 -32 -8 -66t4 -52z" />
<glyph unicode="&#xb6;" horiz-adv-x="702" d="M642 0h-101l139 558h-42l-139 -558h-109l48 200h-102q-111 0 -167.5 66.5t-28.5 181.5q29 117 121.5 185t204.5 68h350zM474 339l53 218h-114q-48 0 -82 -31.5t-45 -75.5q-12 -44 15 -77.5t78 -33.5h95z" />
<glyph unicode="&#xb7;" horiz-adv-x="250" d="M279 316q-10 -39 -39.5 -66.5t-61.5 -27.5t-48 27.5t-6 66.5t39 66t61 27t48.5 -27t6.5 -66z" />
<glyph unicode="&#xb8;" horiz-adv-x="649" d="M430 -148q-10 -38 -41 -65t-64 -37.5t-65 -10.5q-55 0 -98 34l39 73q37 -30 77 -30q19 0 33.5 9t20 17.5t6.5 14.5q10 40 -36 40q-34 0 -47 -17l-64 31l70 125l82 -1l-50 -85q27 12 45 12q19 0 36 -4.5t34.5 -17t22.5 -34t-1 -54.5z" />
<glyph unicode="&#xb9;" horiz-adv-x="295" d="M260 264h-89l101 404h89z" />
<glyph unicode="&#xba;" horiz-adv-x="500" d="M590 483q-26 -105 -105.5 -164t-164.5 -59t-134.5 59.5t-23.5 163.5q27 108 106.5 167.5t164.5 59.5q53 0 94.5 -25.5t60.5 -78.5t2 -123zM470 484q11 43 -7.5 72.5t-61.5 29.5t-76 -29t-44 -73q-11 -42 7.5 -70.5t61.5 -28.5t76 28t44 71z" />
<glyph unicode="&#xbb;" horiz-adv-x="726" d="M754 290l-362 -211l39 155l196 114l-138 118l39 156l254 -220zM422 290l-362 -211l39 155l196 114l-138 118l39 156l254 -220z" />
<glyph unicode="&#xbc;" horiz-adv-x="737" d="M704 89h-48l-23 -90h-88l23 90h-182l15 62l274 253h59l-61 -244h48zM714 666l-504 -666h-100l504 666h100zM262 264h-88l101 404h88zM585 160l25 97l-107 -97h82z" />
<glyph unicode="&#xbd;" horiz-adv-x="861" d="M827 263q-7 -29 -22.5 -52t-42 -41.5t-45.5 -29t-55 -26.5l-15 -5q-22 -6 -45 -20q-14 -5 -22 -12h198l-22 -89h-301l8 67q29 48 62.5 75t81.5 50q9 2 16 5l28 14q82 36 89 64q6 22 -5.5 33.5t-48.5 11.5q-58 0 -143 -49l-9 81q99 58 175 58q58 0 97 -31.5t21 -103.5z M706 728l-541 -791h-98l542 791h97zM222 264h-89l101 404h89z" />
<glyph unicode="&#xbe;" horiz-adv-x="834" d="M818 89h-48l-23 -90h-88l23 90h-182l15 62l274 253h59l-61 -244h48zM836 666l-504 -666h-100l503 666h101zM464 391q-12 -49 -48.5 -80.5t-72 -41t-72.5 -9.5q-77 0 -142 56l49 81q59 -46 116 -46q69 0 77 38q5 19 -6.5 30t-24.5 13t-29 2l-46 -6q-5 33 20 82 q22 -6 43 -6q24 0 50.5 10t31.5 31q5 16 -8 27.5t-50 11.5q-55 0 -139 -47l-9 80q98 58 171 58q27 0 50 -5.5t47 -20t30.5 -40t-0.5 -66.5q-12 -47 -51 -74q25 -25 13 -78zM699 160l25 97l-107 -97h82z" />
<glyph unicode="&#xbf;" horiz-adv-x="569" d="M561 612q-9 -38 -39.5 -63t-61.5 -25t-48.5 25t-8.5 63t39.5 63.5t61.5 25.5t48.5 -25.5t8.5 -63.5zM560 92l-2 -6q-134 -94 -269 -94q-29 0 -56 3t-59 11t-54.5 22t-42.5 37t-23 55t5 75q11 43 31.5 76t40.5 51.5t53.5 33.5t52.5 20.5t54 13.5q35 9 49.5 13t31 15 t20.5 27q3 12 -1 43h131q5 -34 -4 -70q-8 -32 -24.5 -57t-33 -39t-44 -25.5t-44.5 -16t-48 -11.5l-44.5 -10.5t-35 -12.5t-31 -21.5t-15.5 -31.5q-6 -25 5 -41.5t35.5 -23t42 -8.5t40.5 -2q39 0 76.5 11.5t62.5 25t77 44.5z" />
<glyph unicode="&#xc0;" horiz-adv-x="939" d="M701 0h-157l-16 131h-278l-85 -131h-153l466 703h120zM511 273l-31 220l-141 -220h172zM728 751h-110l-166 165l23 25h145z" />
<glyph unicode="&#xc1;" horiz-adv-x="730" d="M701 0h-157l-16 131h-278l-85 -131h-153l466 703h120zM511 273l-31 220l-141 -220h172zM834 911l-256 -170h-96l206 184h141z" />
<glyph unicode="&#xc2;" horiz-adv-x="939" d="M701 0h-157l-16 131h-278l-85 -131h-153l466 703h120zM511 273l-31 220l-141 -220h172zM742 780h-109l-48 82l-91 -82h-109l182 165h79z" />
<glyph unicode="&#xc3;" horiz-adv-x="939" d="M701 0h-157l-16 131h-278l-85 -131h-153l466 703h120zM511 273l-31 220l-141 -220h172zM784 881q-3 -5 -9 -13.5t-24 -30t-35 -37.5t-39.5 -29.5t-40.5 -13.5q-36 0 -73 33q-2 1 -9.5 8.5t-12.5 11t-12 7t-13 3.5q-44 0 -81 -60l-43 22l8 14t21.5 32t33 40t39 31.5 t42.5 14.5q39 0 75 -32q1 -1 9.5 -9t12 -11t11 -7t13.5 -4q39 0 88 56z" />
<glyph unicode="&#xc4;" horiz-adv-x="939" d="M701 0h-157l-16 131h-278l-85 -131h-153l466 703h120zM511 273l-31 220l-141 -220h172zM754 824q-7 -28 -31 -47.5t-50 -19.5t-39.5 19.5t-6.5 47.5q8 29 31 48.5t49 19.5t40 -20t7 -48zM561 824q-7 -28 -30.5 -47.5t-49.5 -19.5t-40 19.5t-7 47.5t31 48t50 20t39.5 -20 t6.5 -48z" />
<glyph unicode="&#xc5;" horiz-adv-x="939" d="M701 0h-157l-16 131h-278l-85 -131h-153l466 703h120zM511 273l-31 220l-141 -220h172zM732 884q-13 -55 -61.5 -93t-102.5 -38q-53 0 -81.5 38t-15.5 93t61.5 93t101.5 38q54 0 82.5 -38t15.5 -93zM656 884q6 25 -5.5 43t-35.5 18q-23 0 -44 -18t-27 -43q-6 -24 6 -42 t35 -18q24 0 44.5 18t26.5 42z" />
<glyph unicode="&#xc6;" horiz-adv-x="1133" d="M633 273l50 220l-222 -220h172zM1073 0h-508l33 131h-278l-134 -131h-165l4 21l701 680h497l-33 -144h-335l-33 -139h284l-32 -140h-283l-31 -133h346z" />
<glyph unicode="&#xc7;" horiz-adv-x="698" d="M453 -172q-8 -32 -29 -55t-46.5 -34t-47 -16t-38.5 -5q-53 0 -96 34l39 73q26 -21 79 -21q49 0 58 28q5 23 -2 33.5t-34 10.5q-15 0 -27 -4q-13 -4 -17 -8l-4 -5l-62 31l62 112q-99 30 -151 121.5t-17 229.5q26 107 97.5 191.5t157.5 127t169 42.5q88 0 141.5 -29.5 t100.5 -83.5l-85 -141q-45 52 -86 77.5t-105 25.5q-76 0 -143.5 -58.5t-91.5 -153.5q-23 -94 15.5 -154t113.5 -60q63 0 118.5 26.5t127.5 78.5l29 -122l-1 -7q-44 -35 -77.5 -57t-98.5 -43.5t-136 -21.5h-3l-35 -62q21 10 42 10q42 0 70 -25.5t13 -85.5z" />
<glyph unicode="&#xc8;" horiz-adv-x="796" d="M549 0h-503l175 701h491l-36 -144h-335q-5 -21 -17 -67.5l-18 -71.5h284l-35 -140h-283l-33 -133h346zM657 751h-110l-166 165l23 25h145z" />
<glyph unicode="&#xc9;" horiz-adv-x="796" d="M549 0h-503l175 701h491l-36 -144h-335q-5 -21 -17 -67.5l-18 -71.5h284l-35 -140h-283l-33 -133h346zM730 912l-256 -170h-96l206 184h141z" />
<glyph unicode="&#xca;" horiz-adv-x="796" d="M549 0h-503l175 701h491l-36 -144h-335q-5 -21 -17 -67.5l-18 -71.5h284l-35 -140h-283l-33 -133h346zM672 780h-109l-48 82l-91 -82h-109l182 165h79z" />
<glyph unicode="&#xcb;" horiz-adv-x="796" d="M549 0h-503l175 701h491l-36 -144h-335q-5 -21 -17 -67.5l-18 -71.5h284l-35 -140h-283l-33 -133h346zM661 832q-7 -28 -31 -47.5t-50 -19.5t-39.5 19.5t-6.5 47.5q8 29 31 48.5t49 19.5t40 -20t7 -48zM468 832q-7 -28 -30.5 -47.5t-49.5 -19.5t-40 19.5t-7 47.5t31 48 t50 20t39.5 -20t6.5 -48z" />
<glyph unicode="&#xcc;" horiz-adv-x="369" d="M216 0h-156l174 701h156zM445 751h-110l-166 165l23 25h145z" />
<glyph unicode="&#xcd;" horiz-adv-x="277" d="M216 0h-156l174 701h156zM588 921l-256 -170h-96l206 184h141z" />
<glyph unicode="&#xce;" horiz-adv-x="369" d="M216 0h-156l174 701h156zM469 791h-109l-48 82l-91 -82h-109l182 165h79z" />
<glyph unicode="&#xcf;" horiz-adv-x="369" d="M216 0h-156l174 701h156zM468 842q-7 -28 -31 -47.5t-50 -19.5t-39.5 19.5t-6.5 47.5q8 29 31 48.5t49 19.5t40 -20t7 -48zM275 842q-7 -28 -30.5 -47.5t-49.5 -19.5t-40 19.5t-7 47.5t31 48t50 20t39.5 -20t6.5 -48z" />
<glyph unicode="&#xd0;" horiz-adv-x="735" d="M796 351q-38 -152 -158.5 -251.5t-277.5 -99.5h-269l66 266h-78l26 107h78l82 328h297q142 0 206 -103.5t28 -246.5zM651 347q24 94 -13.5 154t-148.5 60h-103l-47 -188h88l-26 -107h-89l-31 -125h101q99 0 173.5 60t95.5 146z" />
<glyph unicode="&#xd1;" horiz-adv-x="944" d="M645 0h-75l-255 399l-100 -399h-151l174 701h94l242 -381l96 381h149zM787 881q-3 -5 -9 -13.5t-24 -30t-35 -37.5t-39.5 -29.5t-40.5 -13.5q-36 0 -73 33q-2 1 -9.5 8.5t-12.5 11t-12 7t-13 3.5q-44 0 -81 -60l-43 22l8 14t21.5 32t33 40t39 31.5t42.5 14.5q39 0 75 -32 q1 -1 9.5 -9t12 -11t11 -7t13.5 -4q39 0 88 56z" />
<glyph unicode="&#xd2;" horiz-adv-x="783" d="M819 347q-22 -88 -70 -159.5t-109 -115.5t-128.5 -67.5t-133.5 -23.5t-122 23t-95 69.5t-51 115.5t10 161q30 121 104 207.5t161 125t177 38.5q140 0 220 -100.5t37 -273.5zM671 347q24 96 -14 159t-133 63q-96 0 -164.5 -62.5t-92.5 -159.5q-23 -92 15 -153t134 -61 t164 60t91 154zM640 756h-110l-166 165l23 25h145z" />
<glyph unicode="&#xd3;" horiz-adv-x="771" d="M819 347q-22 -88 -70 -159.5t-109 -115.5t-128.5 -67.5t-133.5 -23.5t-122 23t-95 69.5t-51 115.5t10 161q30 121 104 207.5t161 125t177 38.5q140 0 220 -100.5t37 -273.5zM671 347q24 96 -14 159t-133 63q-96 0 -164.5 -62.5t-92.5 -159.5q-23 -92 15 -153t134 -61 t164 60t91 154zM748 929l-256 -170h-96l206 184h141z" />
<glyph unicode="&#xd4;" horiz-adv-x="771" d="M819 347q-22 -88 -70 -159.5t-109 -115.5t-128.5 -67.5t-133.5 -23.5t-122 23t-95 69.5t-51 115.5t10 161q30 121 104 207.5t161 125t177 38.5q140 0 220 -100.5t37 -273.5zM671 347q24 96 -14 159t-133 63q-96 0 -164.5 -62.5t-92.5 -159.5q-23 -92 15 -153t134 -61 t164 60t91 154zM699 765h-109l-48 82l-91 -82h-109l182 165h79z" />
<glyph unicode="&#xd5;" horiz-adv-x="776" d="M819 347q-22 -88 -70 -159.5t-109 -115.5t-128.5 -67.5t-133.5 -23.5t-122 23t-95 69.5t-51 115.5t10 161q30 121 104 207.5t161 125t177 38.5q140 0 220 -100.5t37 -273.5zM671 347q24 96 -14 159t-133 63q-96 0 -164.5 -62.5t-92.5 -159.5q-23 -92 15 -153t134 -61 t164 60t91 154zM800 888q-3 -5 -9 -13.5t-24 -30t-35 -37.5t-39.5 -29.5t-40.5 -13.5q-36 0 -73 33q-2 1 -9.5 8.5t-12.5 11t-12 7t-13 3.5q-44 0 -81 -60l-43 22l8 14t21.5 32t33 40t39 31.5t42.5 14.5q39 0 75 -32q1 -1 9.5 -9t12 -11t11 -7t13.5 -4q39 0 88 56z" />
<glyph unicode="&#xd6;" horiz-adv-x="773" d="M819 347q-22 -88 -70 -159.5t-109 -115.5t-128.5 -67.5t-133.5 -23.5t-122 23t-95 69.5t-51 115.5t10 161q30 121 104 207.5t161 125t177 38.5q140 0 220 -100.5t37 -273.5zM671 347q24 96 -14 159t-133 63q-96 0 -164.5 -62.5t-92.5 -159.5q-23 -92 15 -153t134 -61 t164 60t91 154zM745 825q-7 -28 -31 -47.5t-50 -19.5t-39.5 19.5t-6.5 47.5q8 29 31 48.5t49 19.5t40 -20t7 -48zM552 825q-7 -28 -30.5 -47.5t-49.5 -19.5t-40 19.5t-7 47.5t31 48t50 20t39.5 -20t6.5 -48z" />
<glyph unicode="&#xd7;" horiz-adv-x="431" d="M441 200l-88 -85l-74 133l-139 -133l-48 88l139 133l-73 132l89 84l72 -132l137 129l49 -87l-137 -129z" />
<glyph unicode="&#xd8;" horiz-adv-x="718" d="M784 348q-29 -118 -102 -204.5t-159 -126.5t-173 -40q-62 0 -114 21l-72 -95h-109l109 142q-113 103 -64 303q23 92 71.5 166t109 119t126.5 69t130 24q70 0 125 -29l82 109l111 1l-125 -162q47 -49 62 -123t-8 -174zM556 559q-32 9 -59 9q-92 0 -164 -62.5t-96 -157.5 q-27 -109 30 -167zM648 348q25 98 -21 163l-283 -372q23 -5 45 -5q93 0 164.5 60.5t94.5 153.5z" />
<glyph unicode="&#xd9;" horiz-adv-x="730" d="M754 359q-43 -171 -149.5 -270t-248.5 -99q-146 0 -205.5 97.5t-17.5 262.5l88 351h153l-83 -334q-28 -113 1 -167t103 -54q66 0 124 60t84 165l82 330h154zM668 740h-110l-166 165l23 25h145z" />
<glyph unicode="&#xda;" horiz-adv-x="728" d="M754 359q-43 -171 -149.5 -270t-248.5 -99q-146 0 -205.5 97.5t-17.5 262.5l88 351h153l-83 -334q-28 -113 1 -167t103 -54q66 0 124 60t84 165l82 330h154zM789 911l-256 -170h-96l206 184h141z" />
<glyph unicode="&#xdb;" horiz-adv-x="728" d="M754 359q-43 -171 -149.5 -270t-248.5 -99q-146 0 -205.5 97.5t-17.5 262.5l88 351h153l-83 -334q-28 -113 1 -167t103 -54q66 0 124 60t84 165l82 330h154zM725 741h-109l-48 82l-91 -82h-109l182 165h79z" />
<glyph unicode="&#xdc;" horiz-adv-x="725" d="M754 359q-43 -171 -149.5 -270t-248.5 -99q-146 0 -205.5 97.5t-17.5 262.5l88 351h153l-83 -334q-28 -113 1 -167t103 -54q66 0 124 60t84 165l82 330h154zM708 800q-7 -28 -31 -47.5t-50 -19.5t-39.5 19.5t-6.5 47.5q8 29 31 48.5t49 19.5t40 -20t7 -48zM515 800 q-7 -28 -30.5 -47.5t-49.5 -19.5t-40 19.5t-7 47.5t31 48t50 20t39.5 -20t6.5 -48z" />
<glyph unicode="&#xdd;" horiz-adv-x="648" d="M799 675l-332 -411l-65 -264h-158l67 270l-127 404l6 27h154l92 -290l226 290h143zM800 903l-256 -170h-96l206 184h141z" />
<glyph unicode="&#xde;" horiz-adv-x="622" d="M662 365q-29 -114 -116 -176.5t-196 -62.5h-117q-11 -42 -30 -126h-157l175 701h156l-27 -109q18 0 55.5 0.5t55.5 0.5q113 0 171 -56.5t30 -171.5zM518 358q10 41 -9.5 68t-65.5 26l-129 -1q-1 -5 -45 -185q17 0 54 -0.5t54 -0.5q51 0 90.5 26t50.5 67z" />
<glyph unicode="&#xdf;" horiz-adv-x="601" d="M51 0l137 553q21 84 95 140.5t165 56.5q94 0 142 -60.5t27 -146.5q-17 -68 -67 -112q47 -18 68 -71t6 -115q-32 -125 -122 -188.5t-211 -63.5q-34 0 -85 24l46 125q28 -23 66 -23q74 0 117 38t56 88q10 40 -11 68t-52 34q-6 0 -19 -1t-43 -2.5t-69 -1.5l31 124h26 q121 1 140 77q8 33 -5.5 58t-62.5 25q-43 0 -70 -21t-35 -52l-137 -553h-133z" />
<glyph unicode="&#xe0;" d="M553 0q-21 -3 -49 -3q-78 0 -101 42q-63 -47 -151 -47q-40 0 -75 9t-64 28t-40 53.5t0 80.5q43 173 266 173q61 0 98 -14q1 -1 5 -1q10 43 -4 53q-28 21 -80 21q-57 0 -173 -46l6 101q29 18 92 36t107 18q108 0 155 -39q35 -29 43 -63.5t-5 -82.5l-39 -155 q-8 -30 -0.5 -41.5t38.5 -2.5zM540 547h-110l-166 165l23 25h145zM395 133l2 9l2 10l17 67q-77 11 -92 11q-46 0 -74 -18t-35 -45q-7 -28 10 -43.5t59 -15.5q70 0 111 25z" />
<glyph unicode="&#xe1;" d="M553 0q-21 -3 -49 -3q-78 0 -101 42q-63 -47 -151 -47q-40 0 -75 9t-64 28t-40 53.5t0 80.5q43 173 266 173q61 0 98 -14q1 -1 5 -1q10 43 -4 53q-28 21 -80 21q-57 0 -173 -46l6 101q29 18 92 36t107 18q108 0 155 -39q35 -29 43 -63.5t-5 -82.5l-39 -155 q-8 -30 -0.5 -41.5t38.5 -2.5zM669 728l-256 -170h-96l206 184h141zM395 133l2 9l2 10l17 67q-77 11 -92 11q-46 0 -74 -18t-35 -45q-7 -28 10 -43.5t59 -15.5q70 0 111 25z" />
<glyph unicode="&#xe2;" d="M553 0q-21 -3 -49 -3q-78 0 -101 42q-63 -47 -151 -47q-40 0 -75 9t-64 28t-40 53.5t0 80.5q43 173 266 173q61 0 98 -14q1 -1 5 -1q10 43 -4 53q-28 21 -80 21q-57 0 -173 -46l6 101q29 18 92 36t107 18q108 0 155 -39q35 -29 43 -63.5t-5 -82.5l-39 -155 q-8 -30 -0.5 -41.5t38.5 -2.5zM598 562h-109l-48 82l-91 -82h-109l182 165h79zM395 133l2 9l2 10l17 67q-77 11 -92 11q-46 0 -74 -18t-35 -45q-7 -28 10 -43.5t59 -15.5q70 0 111 25z" />
<glyph unicode="&#xe3;" d="M553 0q-21 -3 -49 -3q-78 0 -101 42q-63 -47 -151 -47q-40 0 -75 9t-64 28t-40 53.5t0 80.5q43 173 266 173q61 0 98 -14q1 -1 5 -1q10 43 -4 53q-28 21 -80 21q-57 0 -173 -46l6 101q29 18 92 36t107 18q108 0 155 -39q35 -29 43 -63.5t-5 -82.5l-39 -155 q-8 -30 -0.5 -41.5t38.5 -2.5zM634 702q-3 -5 -9 -13.5t-24 -30t-35 -37.5t-39.5 -29.5t-40.5 -13.5q-36 0 -73 33q-2 1 -9.5 8.5t-12.5 11t-12 7t-13 3.5q-44 0 -81 -60l-43 22l8 14t21.5 32t33 40t39 31.5t42.5 14.5q39 0 75 -32q1 -1 9.5 -9t12 -11t11 -7t13.5 -4 q39 0 88 56zM395 133l2 9l2 10l17 67q-77 11 -92 11q-46 0 -74 -18t-35 -45q-7 -28 10 -43.5t59 -15.5q70 0 111 25z" />
<glyph unicode="&#xe4;" d="M553 0q-21 -3 -49 -3q-78 0 -101 42q-63 -47 -151 -47q-40 0 -75 9t-64 28t-40 53.5t0 80.5q43 173 266 173q61 0 98 -14q1 -1 5 -1q10 43 -4 53q-28 21 -80 21q-57 0 -173 -46l6 101q29 18 92 36t107 18q108 0 155 -39q35 -29 43 -63.5t-5 -82.5l-39 -155 q-8 -30 -0.5 -41.5t38.5 -2.5zM395 133l2 9l2 10l17 67q-77 11 -92 11q-46 0 -74 -18t-35 -45q-7 -28 10 -43.5t59 -15.5q70 0 111 25zM418 632q-7 -28 -30.5 -47.5t-49.5 -19.5t-40 19.5t-7 47.5t31 48t50 20t39.5 -20t6.5 -48zM611 632q-7 -28 -31 -47.5t-50 -19.5 t-39.5 19.5t-6.5 47.5q8 29 31 48.5t49 19.5t40 -20t7 -48z" />
<glyph unicode="&#xe5;" d="M553 0q-21 -3 -49 -3q-78 0 -101 42q-63 -47 -151 -47q-40 0 -75 9t-64 28t-40 53.5t0 80.5q43 173 266 173q61 0 98 -14q1 -1 5 -1q10 43 -4 53q-28 21 -80 21q-57 0 -173 -46l6 101q29 18 92 36t107 18q108 0 155 -39q35 -29 43 -63.5t-5 -82.5l-39 -155 q-8 -30 -0.5 -41.5t38.5 -2.5zM594 684q-13 -55 -61.5 -93t-102.5 -38q-53 0 -81.5 38t-15.5 93t61.5 93t101.5 38q54 0 82.5 -38t15.5 -93zM395 133l2 9l2 10l17 67q-77 11 -92 11q-46 0 -74 -18t-35 -45q-7 -28 10 -43.5t59 -15.5q70 0 111 25zM518 684q6 25 -5.5 43 t-35.5 18q-23 0 -44 -18t-27 -43q-6 -24 6 -42t35 -18q24 0 44.5 18t26.5 42z" />
<glyph unicode="&#xe6;" horiz-adv-x="891" d="M898 257l-10 -37q-58 -15 -182 -15h-29q-72 0 -130 7q-5 -41 21.5 -68.5t69.5 -27.5q98 0 191 53l13 -94q-50 -35 -115 -58.5t-122 -23.5q-120 0 -162 72q-40 -31 -53 -37q-58 -36 -136 -36q-53 0 -98 18.5t-70 58.5t-12 94q15 61 61 101t97.5 54.5t107.5 14.5 q14 0 31.5 -2.5t37 -7t28.5 -5.5q1 0 2 -0.5t3 -0.5q9 40 -5 53q-24 18 -85 18q-62 0 -165 -41l-6 95q33 24 95 43t114 19q118 0 160 -68q31 29 80 47.5t93 18.5q104 0 152.5 -69t22.5 -176zM410 145q-2 15 2 43q2 18 6 39q-55 11 -89 11q-46 0 -73 -19t-34 -48 q-7 -30 9 -46.5t57 -16.5q71 0 122 37zM778 288q4 12 1.5 27.5t-8.5 29.5t-24.5 24t-47.5 10q-33 0 -66 -24.5t-54 -61.5l88 -6h60q38 0 51 1z" />
<glyph unicode="&#xe7;" horiz-adv-x="519" d="M329 -170q-8 -32 -27.5 -56t-43 -35t-43 -16t-35.5 -5q-49 0 -87 35l37 74q24 -22 72 -22q26 0 38.5 9.5t14.5 19.5q7 20 0 32t-32 12q-14 0 -24.5 -4t-14.5 -8l-4 -5l-56 31l57 112q-66 23 -93.5 85t-3.5 158q31 126 117 193t190 67q51 0 102.5 -22.5t85.5 -61.5 l-78 -108q-59 53 -145 53q-47 0 -87 -35.5t-52 -84.5q-12 -46 11 -77.5t71 -31.5q83 0 158 43l25 -108q-112 -84 -220 -84h-12l-32 -58q19 10 40 10q38 0 62 -26t9 -86z" />
<glyph unicode="&#xe8;" horiz-adv-x="693" d="M576 207h-349q0 -37 25.5 -60.5t67.5 -23.5q102 0 170 39l17 -103q-91 -69 -225 -69q-113 0 -169.5 65t-25.5 190t118.5 192t200.5 67q118 0 163 -76t7 -221zM457 307q3 11 0 24.5t-9.5 25t-25 19.5t-46.5 8q-70 0 -116 -77h197zM557 551h-110l-166 165l23 25h145z" />
<glyph unicode="&#xe9;" horiz-adv-x="563" d="M576 207h-349q0 -37 25.5 -60.5t67.5 -23.5q102 0 170 39l17 -103q-91 -69 -225 -69q-113 0 -169.5 65t-25.5 190t118.5 192t200.5 67q118 0 163 -76t7 -221zM457 307q3 11 0 24.5t-9.5 25t-25 19.5t-46.5 8q-70 0 -116 -77h197zM658 730l-256 -170h-96l206 184h141z" />
<glyph unicode="&#xea;" horiz-adv-x="693" d="M576 207h-349q0 -37 25.5 -60.5t67.5 -23.5q102 0 170 39l17 -103q-91 -69 -225 -69q-113 0 -169.5 65t-25.5 190t118.5 192t200.5 67q118 0 163 -76t7 -221zM457 307q3 11 0 24.5t-9.5 25t-25 19.5t-46.5 8q-70 0 -116 -77h197zM570 580h-109l-48 82l-91 -82h-109 l182 165h79z" />
<glyph unicode="&#xeb;" horiz-adv-x="693" d="M576 207h-349q0 -37 25.5 -60.5t67.5 -23.5q102 0 170 39l17 -103q-91 -69 -225 -69q-113 0 -169.5 65t-25.5 190t118.5 192t200.5 67q118 0 163 -76t7 -221zM457 307q3 11 0 24.5t-9.5 25t-25 19.5t-46.5 8q-70 0 -116 -77h197zM561 632q-7 -28 -31 -47.5t-50 -19.5 t-39.5 19.5t-6.5 47.5q8 29 31 48.5t49 19.5t40 -20t7 -48zM368 632q-7 -28 -30.5 -47.5t-49.5 -19.5t-40 19.5t-7 47.5t31 48t50 20t39.5 -20t6.5 -48z" />
<glyph unicode="&#xec;" horiz-adv-x="344" d="M433 562h-126l-213 182l21 20h181zM270 0h-172l122 492h172z" />
<glyph unicode="&#xed;" horiz-adv-x="242" d="M180 0h-142l122 493h142zM527 728l-256 -170h-96l206 184h141z" />
<glyph unicode="&#xee;" horiz-adv-x="344" d="M525 560h-136l-66 82l-108 -82h-137l223 185h98zM251 0h-172l122 492h172z" />
<glyph unicode="&#xef;" horiz-adv-x="344" d="M523 645q-7 -31 -35 -52t-60 -21q-31 0 -48.5 21.5t-10.5 51.5t35.5 51.5t60.5 21.5q31 0 48.5 -21.5t9.5 -51.5zM255 645q-7 -31 -35 -52t-60 -21t-49 21t-10 52q7 30 35.5 51.5t60.5 21.5q31 0 48.5 -21.5t9.5 -51.5zM241 0h-172l122 492h172z" />
<glyph unicode="&#xf0;" horiz-adv-x="582" d="M626 323q-36 -143 -125.5 -237t-215.5 -94q-107 0 -167.5 68t-30.5 187q31 122 123.5 190t202.5 68q48 0 103 -36q4 62 -55 115q-7 -10 -16.5 -22t-16.5 -22l-57 42l29 37q-38 19 -98 19l64 125q66 0 122 -23l14 22l16.5 25.5t15.5 21.5l51 -48l-40 -58q29 -25 52 -62 q75 -135 29 -318zM469 249q13 54 -13.5 86.5t-77.5 32.5t-93.5 -32.5t-55.5 -86.5q-13 -52 13.5 -82.5t77.5 -30.5q52 0 94 30.5t55 82.5z" />
<glyph unicode="&#xf1;" horiz-adv-x="686" d="M502 0h-144l76 306q16 66 -43 66q-47 0 -126 -59l-78 -313h-144l122 493h144l-11 -47q68 57 137 57q84 0 125.5 -51t21.5 -130zM609 681q-3 -5 -9 -13.5t-24 -30t-35 -37.5t-39.5 -29.5t-40.5 -13.5q-36 0 -73 33q-2 1 -9.5 8.5t-12.5 11t-12 7t-13 3.5q-44 0 -81 -60 l-43 22l8 14t21.5 32t33 40t39 31.5t42.5 14.5q39 0 75 -32q1 -1 9.5 -9t12 -11t11 -7t13.5 -4q39 0 88 56z" />
<glyph unicode="&#xf2;" horiz-adv-x="740" d="M607 245q-33 -129 -120.5 -192.5t-200.5 -63.5q-110 0 -168.5 65.5t-27.5 190.5q32 130 122.5 195t201.5 65q109 0 166.5 -67t26.5 -193zM468 246q12 51 -11 85t-77 34q-55 0 -96 -34t-53 -85q-12 -48 12 -81t78 -33t94.5 32.5t52.5 81.5zM580 551h-110l-166 165l23 25 h145z" />
<glyph unicode="&#xf3;" horiz-adv-x="581" d="M607 245q-33 -129 -120.5 -192.5t-200.5 -63.5q-110 0 -168.5 65.5t-27.5 190.5q32 130 122.5 195t201.5 65q109 0 166.5 -67t26.5 -193zM468 246q12 51 -11 85t-77 34q-55 0 -96 -34t-53 -85q-12 -48 12 -81t78 -33t94.5 32.5t52.5 81.5zM681 728l-256 -170h-96l206 184 h141z" />
<glyph unicode="&#xf4;" horiz-adv-x="579" d="M607 245q-33 -129 -120.5 -192.5t-200.5 -63.5q-110 0 -168.5 65.5t-27.5 190.5q32 130 122.5 195t201.5 65q109 0 166.5 -67t26.5 -193zM468 246q12 51 -11 85t-77 34q-55 0 -96 -34t-53 -85q-12 -48 12 -81t78 -33t94.5 32.5t52.5 81.5zM614 577h-109l-48 82l-91 -82 h-109l182 165h79z" />
<glyph unicode="&#xf5;" horiz-adv-x="575" d="M607 245q-33 -129 -120.5 -192.5t-200.5 -63.5q-110 0 -168.5 65.5t-27.5 190.5q32 130 122.5 195t201.5 65q109 0 166.5 -67t26.5 -193zM468 246q12 51 -11 85t-77 34q-55 0 -96 -34t-53 -85q-12 -48 12 -81t78 -33t94.5 32.5t52.5 81.5zM642 691q-3 -5 -9 -13.5 t-24 -30t-35 -37.5t-39.5 -29.5t-40.5 -13.5q-36 0 -73 33q-2 1 -9.5 8.5t-12.5 11t-12 7t-13 3.5q-44 0 -81 -60l-43 22l8 14t21.5 32t33 40t39 31.5t42.5 14.5q39 0 75 -32q1 -1 9.5 -9t12 -11t11 -7t13.5 -4q39 0 88 56z" />
<glyph unicode="&#xf6;" horiz-adv-x="579" d="M607 245q-33 -129 -120.5 -192.5t-200.5 -63.5q-110 0 -168.5 65.5t-27.5 190.5q32 130 122.5 195t201.5 65q109 0 166.5 -67t26.5 -193zM468 246q12 51 -11 85t-77 34q-55 0 -96 -34t-53 -85q-12 -48 12 -81t78 -33t94.5 32.5t52.5 81.5zM607 640q-7 -28 -31 -47.5 t-50 -19.5t-39.5 19.5t-6.5 47.5q8 29 31 48.5t49 19.5t40 -20t7 -48zM414 640q-7 -28 -30.5 -47.5t-49.5 -19.5t-40 19.5t-7 47.5t31 48t50 20t39.5 -20t6.5 -48z" />
<glyph unicode="&#xf7;" horiz-adv-x="558" d="M490 564q-9 -37 -37 -63t-59 -26t-46 26t-6 63t37 63t59 26t46 -26t6 -63zM568 278h-442l30 123h442zM385 113q-10 -37 -38 -63t-59 -26t-46 26t-5 63q9 37 37 63t59 26t46 -26t6 -63z" />
<glyph unicode="&#xf8;" horiz-adv-x="607" d="M633 245q-21 -82 -75.5 -142t-121.5 -87.5t-138 -27.5q-32 0 -62 6l-72 -101h-109l101 141q-95 70 -60 211q30 124 128.5 192t209.5 68q34 0 56 -5l103 142h110l-131 -182q96 -70 61 -215zM404 369q-60 3 -103.5 -27t-57.5 -96q-10 -45 11 -76l75 99.5zM489 246 q12 47 -12 82l-140 -195q57 0 98.5 32.5t53.5 80.5z" />
<glyph unicode="&#xf9;" horiz-adv-x="695" d="M499 0h-138l11 48q-84 -56 -134 -56q-84 0 -128 50.5t-25 127.5l80 323h143l-75 -302q-14 -61 46 -61q42 0 121 53l77 310h144zM558 551h-110l-166 165l23 25h145z" />
<glyph unicode="&#xfa;" horiz-adv-x="556" d="M499 0h-138l11 48q-84 -56 -134 -56q-84 0 -128 50.5t-25 127.5l80 323h143l-75 -302q-14 -61 46 -61q42 0 121 53l77 310h144zM655 728l-256 -170h-96l206 184h141z" />
<glyph unicode="&#xfb;" horiz-adv-x="695" d="M499 0h-138l11 48q-84 -56 -134 -56q-84 0 -128 50.5t-25 127.5l80 323h143l-75 -302q-14 -61 46 -61q42 0 121 53l77 310h144zM571 580h-109l-48 82l-91 -82h-109l182 165h79z" />
<glyph unicode="&#xfc;" horiz-adv-x="560" d="M499 0h-138l11 48q-84 -56 -134 -56q-84 0 -128 50.5t-25 127.5l80 323h143l-75 -302q-14 -61 46 -61q42 0 121 53l77 310h144zM577 640q-7 -28 -31 -47.5t-50 -19.5t-39.5 19.5t-6.5 47.5q8 29 31 48.5t49 19.5t40 -20t7 -48zM384 640q-7 -28 -30.5 -47.5t-49.5 -19.5 t-40 19.5t-7 47.5t31 48t50 20t39.5 -20t6.5 -48z" />
<glyph unicode="&#xfd;" horiz-adv-x="594" d="M665 472l-374 -578q-62 -97 -192 -97q-33 0 -91 6l35 138l29 -3q55 -5 60 -5q28 0 44.5 13t33.5 41l31 51l-105 432l5 23h145l67 -277l174 277h143zM688 728l-256 -170h-96l206 184h141z" />
<glyph unicode="&#xfe;" horiz-adv-x="583" d="M605 254q-31 -122 -118.5 -193t-183.5 -71q-57 0 -105 41l-55 -220h-144l232 931h145l-68 -272q61 34 115 34q98 0 153.5 -69.5t28.5 -180.5zM459 247q12 49 -9 81.5t-70 32.5q-58 0 -111 -46l-35 -139q32 -42 91 -42q48 0 85 32t49 81z" />
<glyph unicode="&#xff;" horiz-adv-x="752" d="M665 472l-374 -578q-62 -97 -192 -97q-33 0 -91 6l35 138l29 -3q55 -5 60 -5q28 0 44.5 13t33.5 41l31 51l-105 432l5 23h145l67 -277l174 277h143zM612 632q-7 -28 -31 -47.5t-50 -19.5t-39.5 19.5t-6.5 47.5q8 29 31 48.5t49 19.5t40 -20t7 -48zM419 632 q-7 -28 -30.5 -47.5t-49.5 -19.5t-40 19.5t-7 47.5t31 48t50 20t39.5 -20t6.5 -48z" />
<glyph unicode="&#x152;" horiz-adv-x="1110" d="M1066 -1h-572q-67 -20 -127 -20q-66 0 -122.5 23.5t-96.5 69.5t-53 115t9 160q30 121 105.5 208.5t164 127.5t179.5 40q61 0 116 -21h564l-36 -144h-386q25 -69 15 -147h281l-35 -141h-283q-27 -65 -78 -126h391zM673 347q23 94 -20 157t-139 63t-170.5 -62.5 t-98.5 -157.5q-22 -90 21.5 -151t139.5 -61q97 0 170.5 60t96.5 152z" />
<glyph unicode="&#x153;" horiz-adv-x="936" d="M961 237q-2 -7 -6.5 -24.5t-5.5 -22.5h-340q7 -25 33 -46t63 -21q99 0 184 49l21 -97q-49 -35 -114 -58.5t-123 -23.5q-111 0 -168 75q-91 -76 -212 -76q-52 0 -96 16t-76 47t-43 78.5t4 110.5q31 123 128.5 190t208.5 67q116 0 171 -75q89 76 201 76q88 0 134 -53 t48 -135q0 -27 -12 -77zM844 300q3 31 -14 55t-70 24q-69 0 -117 -79h201zM492 246q13 53 -15 90t-89 37t-107 -36.5t-59 -90.5q-13 -52 15 -87.5t89 -35.5t107 35t59 88z" />
<glyph unicode="&#x178;" horiz-adv-x="854" d="M809 675l-332 -411l-65 -264h-158l67 270l-127 404l6 27h154l92 -290l226 290h143zM718 832q-7 -28 -31 -47.5t-50 -19.5t-39.5 19.5t-6.5 47.5q8 29 31 48.5t49 19.5t40 -20t7 -48zM525 832q-7 -28 -30.5 -47.5t-49.5 -19.5t-40 19.5t-7 47.5t31 48t50 20t39.5 -20 t6.5 -48z" />
<glyph unicode="&#x2c6;" horiz-adv-x="734" d="M679 580h-109l-48 82l-91 -82h-109l182 165h79z" />
<glyph unicode="&#x2dc;" horiz-adv-x="718" d="M700 681q-3 -5 -9 -13.5t-24 -30t-35 -37.5t-39.5 -29.5t-40.5 -13.5q-36 0 -73 33q-2 1 -9.5 8.5t-12.5 11t-12 7t-13 3.5q-44 0 -81 -60l-43 22l8 14t21.5 32t33 40t39 31.5t42.5 14.5q39 0 75 -32q1 -1 9.5 -9t12 -11t11 -7t13.5 -4q39 0 88 56z" />
<glyph unicode="&#x2000;" horiz-adv-x="507" />
<glyph unicode="&#x2001;" horiz-adv-x="1015" />
<glyph unicode="&#x2002;" horiz-adv-x="507" />
<glyph unicode="&#x2003;" horiz-adv-x="1015" />
<glyph unicode="&#x2004;" horiz-adv-x="338" />
<glyph unicode="&#x2005;" horiz-adv-x="253" />
<glyph unicode="&#x2006;" horiz-adv-x="169" />
<glyph unicode="&#x2007;" horiz-adv-x="169" />
<glyph unicode="&#x2008;" horiz-adv-x="126" />
<glyph unicode="&#x2009;" horiz-adv-x="203" />
<glyph unicode="&#x200a;" horiz-adv-x="56" />
<glyph unicode="&#x2010;" horiz-adv-x="413" d="M420 245h-327l30 123h327z" />
<glyph unicode="&#x2011;" horiz-adv-x="413" d="M420 245h-327l30 123h327z" />
<glyph unicode="&#x2013;" horiz-adv-x="540" d="M560 258h-458l33 132h458z" />
<glyph unicode="&#x2014;" horiz-adv-x="934" d="M954 258h-852l33 132h852z" />
<glyph unicode="&#x2018;" horiz-adv-x="229" d="M324 498q-10 -38 -40 -63t-62 -25q-37 0 -49 32.5t0 72.5q14 58 65 116.5t105 78.5l15 -53q-55 -38 -75 -87q26 -2 37 -21t4 -51z" />
<glyph unicode="&#x2019;" horiz-adv-x="216" d="M333 595q-14 -58 -65 -116.5t-106 -78.5l-16 53q56 38 76 87q-26 2 -37 21t-3 51q10 39 39 63.5t63 24.5q37 0 48.5 -30.5t0.5 -74.5z" />
<glyph unicode="&#x201a;" horiz-adv-x="216" d="M235 191q-15 -60 -67 -119.5t-109 -81.5l-17 60q53 36 74 82q-25 3 -36 23.5t-3 52.5q10 40 41.5 66t65.5 26q39 0 51.5 -34t-0.5 -75z" />
<glyph unicode="&#x201c;" horiz-adv-x="470" d="M540 498q-10 -38 -40 -63t-62 -25q-37 0 -49 32.5t0 72.5q14 58 65 116.5t105 78.5l15 -53q-55 -38 -75 -87q26 -2 37 -21t4 -51zM324 498q-10 -38 -40 -63t-62 -25q-37 0 -49 32.5t0 72.5q14 58 65 116.5t105 78.5l15 -53q-55 -38 -75 -87q26 -2 37 -21t4 -51z" />
<glyph unicode="&#x201d;" horiz-adv-x="457" d="M572 595q-14 -58 -65 -116.5t-106 -78.5l-15 53q55 38 75 87q-26 2 -37 21t-3 51q9 39 38.5 63.5t62.5 24.5q37 0 49 -30.5t1 -74.5zM348 595q-14 -58 -65 -116.5t-106 -78.5l-15 53q55 38 75 87q-26 2 -37 21t-3 51q9 39 38.5 63.5t62.5 24.5q37 0 49 -30.5t1 -74.5z " />
<glyph unicode="&#x201e;" horiz-adv-x="458" d="M458 189q-15 -60 -67 -119.5t-109 -80.5l-19 59q52 35 75 82q-25 3 -35.5 23t-2.5 53q10 41 41 66.5t65 25.5q39 0 51 -32t1 -77zM250 189q-15 -60 -67 -119.5t-109 -80.5l-19 59q54 37 75 82q-25 3 -35.5 23t-2.5 53q10 41 41 66.5t65 25.5q39 0 51 -32t1 -77z" />
<glyph unicode="&#x2022;" horiz-adv-x="396" d="M440 347q-16 -64 -75.5 -107.5t-126.5 -43.5q-66 0 -103 43.5t-21 107.5t74.5 107t124.5 43q67 0 105 -43t22 -107z" />
<glyph unicode="&#x2026;" horiz-adv-x="746" d="M708 74q-9 -35 -38 -60.5t-60 -25.5q-32 0 -48.5 25.5t-7.5 60.5q9 36 37.5 61t60.5 25t48.5 -25t7.5 -61zM465 74q-9 -36 -37.5 -61t-60.5 -25t-48.5 25.5t-7.5 60.5q9 36 37.5 61t60.5 25t48.5 -25t7.5 -61zM222 74q-9 -36 -37.5 -61t-60.5 -25t-48.5 25.5t-7.5 60.5 q9 36 37.5 61t60.5 25t48.5 -25t7.5 -61z" />
<glyph unicode="&#x202f;" horiz-adv-x="203" />
<glyph unicode="&#x2039;" horiz-adv-x="385" d="M356 79l-253 220l28 112l360 210l-38 -154l-197 -115l139 -117z" />
<glyph unicode="&#x203a;" horiz-adv-x="377" d="M409 290l-361 -211l39 155l196 114l-138 118l39 156l253 -220z" />
<glyph unicode="&#x205f;" horiz-adv-x="253" />
<glyph unicode="&#x20ac;" horiz-adv-x="735" d="M697 251l30 -127q-66 -68 -151.5 -102t-165.5 -34q-98 0 -163 68t-65 184h-96l54 75h49q1 3 1 9q9 42 12 50h-82l55 79h55q55 121 157.5 194.5t203.5 73.5q176 0 246 -125l-88 -122q-79 101 -191 101q-52 0 -101.5 -32t-83.5 -90h216l-55 -79h-194q-6 -18 -15 -59h230 l-54 -75h-174q8 -50 40.5 -78.5t79.5 -28.5q108 0 250 118z" />
<glyph unicode="&#x2122;" horiz-adv-x="901" d="M920 284h-92l50 201l-158 -194h-32l-57 192l-51 -199h-92l104 417h72l80 -264l220 264h60zM539 597h-136l-78 -313h-93l78 313h-137l26 104h366z" />
</font>
</defs>
</svg>
