<?xml version="1.0" standalone="no"?>
<!DOCTYPE svg PUBLIC "-//W3C//DTD SVG 1.1//EN" "http://www.w3.org/Graphics/SVG/1.1/DTD/svg11.dtd" >
<svg xmlns="http://www.w3.org/2000/svg">
<metadata>
This is a custom SVG webfont generated by Fontspring.
Designer    : Chank Diesel
Foundry     : Chank Co
Foundry URL : http://www.chank.com
</metadata>
<defs>
<font id="webfont" horiz-adv-x="587" >
<font-face units-per-em="1000" ascent="769" descent="-231" />
<missing-glyph horiz-adv-x="354" />
<glyph unicode=" "  horiz-adv-x="354" />
<glyph unicode="&#x09;" horiz-adv-x="354" />
<glyph unicode="&#xa0;" horiz-adv-x="354" />
<glyph unicode="!" horiz-adv-x="226" d="M195 701l-21 -456h-120l-22 456h163zM190 81q0 -37 -23.5 -63t-55.5 -26t-55 26t-23 63t23 63t55 26t55.5 -26t23.5 -63z" />
<glyph unicode="&#x22;" horiz-adv-x="439" d="M388 548l-10 -158h-113l-10 158l-1 153h134v-153zM165 548l-10 -158h-114l-10 158v153h133z" />
<glyph unicode="#" horiz-adv-x="666" d="M602 541l-6 -105h-114q-1 -11 -4.5 -59.5t-4.5 -75.5h114l-6 -106h-115l-7 -149h-93l8 149h-124q-1 -24 -4 -74.5t-4 -74.5h-93l9 149h-122l6 106h121l10 135h-122l6 105h122l8 139h94l-10 -139h125q6 85 8 139h93l-10 -139h115zM389 436h-123q-3 -38 -10 -135h124 q1 27 4.5 75.5t4.5 59.5z" />
<glyph unicode="$" horiz-adv-x="597" d="M569 227q0 -61 -28 -105.5t-73.5 -66t-89.5 -31t-89 -9.5h-13l-19 -101h-96l23 114q-57 14 -159 79l48 129q109 -60 138 -69l22 117q-43 7 -76 18.5t-65.5 33t-50.5 58.5t-18 87q0 49 19 87.5t47.5 60t67 35t71 18t66.5 4.5h18l18 94l96 1l-22 -109q72 -21 152 -74 l-46 -119q-72 43 -132 58q-4 -19 -11 -56l-11 -57q34 -5 60 -11t56 -20.5t50 -34.5t33.5 -53.5t13.5 -77.5zM426 227q0 21 -27 31q-14 5 -35 8l-38 6q-4 -24 -13 -67.5t-10 -49.5q51 5 87 23t36 49zM285 548q-65 -1 -93 -20t-28 -42q0 -38 99 -51q3 21 11.5 62z" />
<glyph unicode="%" horiz-adv-x="707" d="M665 162q0 -69 -43.5 -117.5t-105.5 -48.5q-61 0 -104.5 48.5t-43.5 117.5t43.5 118t104.5 49q62 0 105.5 -48.5t43.5 -118.5zM644 701l-509 -701h-97l506 700zM312 541q0 -70 -43 -118.5t-105 -48.5t-105 48.5t-43 118.5q0 69 43 117.5t105 48.5t105 -48.5t43 -117.5z M564 162q0 28 -14 47t-34 19q-19 0 -33.5 -19t-14.5 -47q0 -27 14.5 -46.5t33.5 -19.5q20 0 34 19t14 47zM212 541q0 27 -14.5 46.5t-33.5 19.5q-20 0 -34 -19t-14 -47t14 -47t34 -19q19 0 33.5 19t14.5 47z" />
<glyph unicode="&#x26;" horiz-adv-x="708" d="M668 1h-137l-69 79q-88 -90 -180 -90q-251 0 -251 226q0 127 147 202l-6 7l-30 44q-28 41 -28 85q0 67 58.5 114.5t146.5 47.5q90 0 137.5 -49t47.5 -119q0 -99 -119 -174l33.5 -41.5t39.5 -47.5q42 64 60 100l97 -67q-32 -66 -74 -132l127 -151v-34zM378 179l-110 133 q-47 -25 -71 -47.5t-24 -52.5q0 -53 31.5 -72t84.5 -19q38 0 89 58zM372 549q0 51 -51 51q-29 0 -45 -14.5t-16 -35.5q0 -18 11 -34l34 -45q23 15 45 40.5t22 37.5z" />
<glyph unicode="'" horiz-adv-x="202" d="M163 596l-9 -206h-116l-9 206l1 105h132z" />
<glyph unicode="(" horiz-adv-x="323" d="M296 747q-96 -110 -127.5 -183t-31.5 -212q0 -111 33 -196.5t124 -195.5l-46 -65q-230 198 -230 458q0 152 65.5 269.5t164.5 188.5l48 -56v-8z" />
<glyph unicode=")" horiz-adv-x="323" d="M294 353q0 -261 -229 -458l-45 66q91 110 124 195.5t33 195.5q0 97 -16.5 161.5t-47.5 112.5t-99 125l52 60q98 -71 163 -189t65 -269z" />
<glyph unicode="*" horiz-adv-x="509" d="M484 387l-154 -28l105 -127l-105 -84l-79 167l-84 -162l-105 84l112 125l-152 34l40 137l148 -80q-2 28 -18 197h130l-25 -198l147 72z" />
<glyph unicode="+" horiz-adv-x="475" d="M443 274h-153v-181h-108v181h-153v119h153v182h108v-182h153v-119z" />
<glyph unicode="," horiz-adv-x="217" d="M191 46q0 -65 -42.5 -130t-97.5 -90l-29 80q15 11 37.5 37.5t30.5 44.5h-4q-27 0 -41 25t-14 55q0 36 25 58.5t54 22.5q35 0 58 -28.5t23 -74.5z" />
<glyph unicode="-" horiz-adv-x="413" d="M359 245h-327v123h327v-123z" />
<glyph unicode="." horiz-adv-x="240" d="M198 83q0 -38 -23.5 -65t-55.5 -27t-54.5 27t-22.5 65q0 39 22.5 65.5t54.5 26.5q33 0 56 -26.5t23 -65.5z" />
<glyph unicode="/" horiz-adv-x="504" d="M496 769l-372 -832h-126l372 832h126z" />
<glyph unicode="0" horiz-adv-x="747" d="M707 338q0 -82 -29.5 -149t-78 -109.5t-107.5 -65.5t-122 -23q-86 0 -161.5 38.5t-126.5 119.5t-51 189q0 88 29.5 159.5t78 114.5t108 66t123.5 23q63 0 122.5 -23t108 -66t77.5 -114.5t29 -159.5zM555 338q0 94 -51 155t-134 61q-84 0 -134.5 -61t-50.5 -155 q0 -89 50.5 -144.5t134.5 -55.5q83 0 134 57.5t51 142.5z" />
<glyph unicode="1" horiz-adv-x="467" d="M368 0h-148v446l-88 -118l-84 102l194 259h126v-689z" />
<glyph unicode="2" horiz-adv-x="649" d="M595 472q0 -34 -8.5 -63.5t-28 -53.5t-37 -41.5t-50 -36.5t-51.5 -28.5l-56 -27.5l-31 -14q-84 -34 -112 -66h369v-141h-537l-16 107q32 84 79.5 130t124.5 82q9 4 23.5 11l26 12.5l21.5 10.5q74 40 107 66t33 52q0 39 -27.5 61t-102.5 22q-108 0 -237 -78l-47 127 q143 97 284 97q35 0 69.5 -6t72 -22t66 -40.5t47 -66t18.5 -93.5z" />
<glyph unicode="3" horiz-adv-x="649" d="M599 214q0 -53 -20 -94t-50.5 -64.5t-71 -39t-76 -20.5t-71.5 -5q-127 0 -262 84l32 138q122 -77 230 -77q73 0 101.5 22t28.5 50q0 48 -62 68q-40 5 -67 5q-48 0 -86 -9q-9 24 -9 72q0 46 9 74q1 -1 12 -3.5t32.5 -5t43.5 -2.5q23 0 50 6.5t52 25t25 45.5 q0 28 -28.5 49.5t-101.5 21.5q-108 0 -230 -77l-31 138q124 84 261 84q36 0 71 -5t75.5 -20t71 -38.5t50.5 -64.5t20 -94q0 -75 -66 -127q67 -44 67 -137z" />
<glyph unicode="4" horiz-adv-x="655" d="M614 158h-89v-158h-144v158h-334v97l380 435l98 -1v-408h89v-123zM381 281v180l-161 -180h161z" />
<glyph unicode="5" horiz-adv-x="655" d="M613 223q0 -65 -30 -113t-78 -72t-94.5 -34.5t-91.5 -10.5q-140 0 -278 94l47 127q122 -77 231 -77q75 0 109.5 28t34.5 63q0 40 -27.5 68.5t-93.5 28.5q-110 0 -169 -53h-118l22 413h504v-143h-374q-1 -22 -5 -62t-6 -62q72 37 150 37q37 0 71.5 -6t71 -22t63.5 -41 t44 -67t17 -96z" />
<glyph unicode="6" horiz-adv-x="686" d="M647 230q0 -62 -30.5 -110.5t-78 -75.5t-97.5 -40.5t-97 -13.5q-136 0 -224.5 90t-88.5 268q0 114 49 196t123.5 119.5t162.5 37.5q154 0 237 -78l-45 -119q-44 32 -83.5 44t-115.5 12q-77 0 -128.5 -50.5t-58.5 -133.5q79 88 209 88q110 0 188 -64.5t78 -169.5zM516 241 q0 37 -46 64t-91 22q-56 -5 -111.5 -26.5t-79.5 -65.5q11 -44 57.5 -72t94.5 -28q76 0 126 24.5t50 81.5z" />
<glyph unicode="7" horiz-adv-x="622" d="M583 552l-355 -552h-165l343 541h-356v144h530z" />
<glyph unicode="8" horiz-adv-x="636" d="M603 197q0 -92 -81.5 -148.5t-194.5 -56.5q-125 0 -211 54.5t-86 147.5q0 53 25.5 96t66.5 67q-87 49 -87 142q0 96 75 148.5t204 52.5t204.5 -54.5t75.5 -150.5q0 -87 -89 -130q44 -27 71 -72t27 -96zM454 496q0 31 -35.5 54t-101.5 23q-67 0 -101.5 -20.5t-34.5 -49.5 t44.5 -53t111.5 -35q64 16 90.5 34.5t26.5 46.5zM441 200q0 29 -44 59t-108 39q-58 -11 -87.5 -39.5t-29.5 -62.5q0 -30 33 -51t100 -21q66 0 101 23t35 53z" />
<glyph unicode="9" horiz-adv-x="683" d="M647 344q0 -170 -96.5 -262t-236.5 -92q-142 0 -234 78l40 120q45 -33 83.5 -45t113.5 -12q76 0 128.5 51t60.5 133q-88 -99 -213 -99q-109 0 -185.5 69t-76.5 174q0 62 27 110.5t71.5 76t96.5 41.5t109 14q145 0 228.5 -92t83.5 -265zM492 459q-15 42 -62.5 75.5 t-91.5 33.5q-172 0 -172 -116q0 -44 44 -74.5t91 -30.5q52 0 111.5 31.5t79.5 80.5z" />
<glyph unicode=":" horiz-adv-x="260" d="M194 410q0 -39 -23.5 -66t-56.5 -27q-32 0 -55.5 27t-23.5 66q0 38 23.5 65.5t55.5 27.5q33 0 56.5 -27.5t23.5 -65.5zM194 88q0 -39 -23.5 -66t-56.5 -27t-56 27t-23 66q0 38 23.5 65t55.5 27q33 0 56.5 -27t23.5 -65z" />
<glyph unicode=";" horiz-adv-x="252" d="M193 409q0 -38 -23 -65.5t-56 -27.5q-32 0 -55.5 27.5t-23.5 65.5q0 39 23.5 66.5t55.5 27.5q33 0 56 -27.5t23 -66.5zM191 48q0 -65 -42.5 -131t-97.5 -91l-29 81q15 11 37 38.5t31 45.5h-4q-28 0 -41.5 24.5t-13.5 56.5q0 36 25 58t54 22q35 0 58 -29t23 -75z" />
<glyph unicode="&#x3c;" horiz-adv-x="606" d="M544 -17l-517 306v125l517 294v-166l-333 -193l333 -199v-167z" />
<glyph unicode="=" horiz-adv-x="429" d="M395 367h-362v126h362v-126zM395 131h-362v126h362v-126z" />
<glyph unicode="&#x3e;" horiz-adv-x="631" d="M563 289l-517 -306v167l333 199l-333 193v166l517 -294v-125z" />
<glyph unicode="?" horiz-adv-x="555" d="M527 500q0 -41 -10.5 -72t-26 -48.5t-40 -31t-44.5 -19.5t-47 -13q-9 -2 -13 -3t-11 -3q-28 -8 -41.5 -12.5t-26 -15t-12.5 -24.5q0 -17 9 -36h-122q-10 30 -10 63q0 29 10 51t22.5 34.5t36.5 23.5t39.5 15l44.5 11q33 8 52 15t35 24t16 41q0 75 -137 75q-54 0 -91 -18 t-99 -64l-51 112q110 96 241 96q35 0 68 -4t72.5 -17t68 -34t48 -58.5t19.5 -87.5zM290 81q0 -38 -23 -63.5t-53 -25.5t-53.5 25.5t-23.5 63.5t23.5 63.5t53.5 25.5t53 -25.5t23 -63.5z" />
<glyph unicode="@" horiz-adv-x="780" d="M729 379q0 -123 -57.5 -206t-140.5 -83q-33 0 -65.5 25t-49.5 61q-23 -25 -51 -42.5t-51 -17.5q-77 0 -115.5 72t-31.5 160v-1q7 90 63.5 154.5t145.5 64.5q46 0 84 -58l10 36h112l-73 -256q-5 -16 -5 -33q0 -26 13.5 -41t30.5 -15q35 0 64 50.5t29 128.5 q0 124 -70.5 189.5t-174.5 65.5q-57 0 -107.5 -16.5t-91.5 -49t-65 -86.5t-24 -124q0 -137 81.5 -224.5t206.5 -87.5q54 0 107 31l21 -90q-68 -34 -128 -34q-167 0 -270 107t-103 296q0 98 30.5 172t84.5 116t118.5 62.5t139.5 20.5q139 0 236 -93.5t97 -253.5zM431 386 q-8 41 -25.5 61.5t-37.5 20.5q-26 0 -55.5 -38t-35.5 -89q-2 -12 -2 -30q0 -76 49 -76q19 0 46 15t40 39z" />
<glyph unicode="A" horiz-adv-x="732" d="M701 0h-157l-48 131h-278l-53 -131h-153l291 703h120zM443 273l-85 220l-87 -220h172z" />
<glyph unicode="B" horiz-adv-x="636" d="M576 201q0 -92 -58 -146.5t-147 -54.5h-331v701h321q100 0 154 -56t54 -145q0 -92 -75 -143q35 -24 58.5 -67t23.5 -89zM435 489q0 31 -22.5 52t-69.5 21h-152v-146h144q48 0 74 21.5t26 51.5zM432 207q0 32 -22.5 54t-68.5 22h-150v-144h143q48 0 73 20t25 48z" />
<glyph unicode="C" horiz-adv-x="681" d="M575 242l71 -130q-116 -121 -286 -121q-139 0 -234 95.5t-95 266.5q0 159 100 260t226 101q168 0 282 -105l-67 -139q-53 48 -100 70.5t-111 22.5q-75 0 -126.5 -58.5t-51.5 -153.5q0 -94 52 -154t125 -60q63 0 110.5 26.5t104.5 78.5z" />
<glyph unicode="D" horiz-adv-x="709" d="M664 351q0 -152 -96 -251.5t-253 -99.5h-258v701h286q143 0 232 -103t89 -247zM520 347q0 95 -51.5 154.5t-162.5 59.5h-93q0 -71 -0.5 -210t-0.5 -210h91q98 0 157.5 60t59.5 146z" />
<glyph unicode="E" horiz-adv-x="612" d="M549 0h-503l1 701h491v-144h-335q0 -23 -0.5 -69t-0.5 -70h284v-140h-283v-133h346v-145z" />
<glyph unicode="F" horiz-adv-x="567" d="M525 557h-325v-150h263v-145h-263v-262h-155v701h480v-144z" />
<glyph unicode="G" horiz-adv-x="736" d="M675 587l-70 -116q-45 37 -117 69q-55 23 -125 23q-83 0 -135 -56.5t-52 -149.5q0 -96 53.5 -155t133.5 -59q97 0 167 57q0 12 0.5 35t0.5 35h-193v137h332v-290q-42 -44 -112 -79q-94 -48 -195 -48q-60 0 -118.5 24t-107 68t-78 114.5t-29.5 156.5q0 87 30 157.5 t79.5 113.5t107.5 66t117 23q88 0 155 -24q42 -16 89.5 -48t66.5 -54z" />
<glyph unicode="H" horiz-adv-x="676" d="M611 0h-157v265h-247v-265h-157v701h158v-285h246v285h157v-701z" />
<glyph unicode="I" horiz-adv-x="288" d="M216 0h-156v701h156v-701z" />
<glyph unicode="J" horiz-adv-x="303" d="M246 68q0 -108 -66.5 -184t-159.5 -76q-52 0 -110 34l26 128q45 -16 73 -16q81 0 81 149v598h156v-633z" />
<glyph unicode="K" horiz-adv-x="649" d="M622 0h-171l-178 304l-68 -74v-230h-157l1 701h156v-268l244 268h159v-22l-232 -259l246 -396v-24z" />
<glyph unicode="L" horiz-adv-x="615" d="M568 0h-521l-1 701h156v-550h366v-151z" />
<glyph unicode="M" horiz-adv-x="907" d="M853 0h-147l-35 370l-214 -359h-63l-182 354l-32 -365h-148l50 701l123 1l234 -448l264 448l99 -1z" />
<glyph unicode="N" horiz-adv-x="696" d="M631 0h-75l-354 399q0 -67 -0.5 -200t-0.5 -199h-151v701h94l337 -381l1 381h149v-701z" />
<glyph unicode="O" horiz-adv-x="771" d="M733 347q0 -88 -30 -159.5t-80.5 -115.5t-112 -67.5t-127.5 -23.5t-128 24t-112 68.5t-80 116t-30 160.5q0 91 30 164t80.5 117t111.5 67t128 23q66 0 128 -25t112 -70.5t80 -118t30 -160.5zM585 347q0 96 -53.5 159t-148.5 63q-96 0 -149 -62.5t-53 -159.5 q0 -92 53 -153t149 -61t149 60t53 154z" />
<glyph unicode="P" horiz-adv-x="629" d="M581 448q0 -114 -72.5 -181.5t-173.5 -67.5h-132v-199h-157l1 701h291q107 0 175 -67.5t68 -185.5zM431 446q0 46 -27.5 72.5t-76.5 26.5h-124v-200h116q49 0 80.5 29.5t31.5 71.5z" />
<glyph unicode="Q" horiz-adv-x="784" d="M745 342q0 -136 -82.5 -239t-190.5 -117q24 -37 80 -59q76 -29 137 -19l-41 -152q-116 9 -196 62q-96 62 -129 167q-51 9 -99.5 36.5t-90 70.5t-67 108.5t-25.5 141.5q0 84 32 156t83.5 118t113 72t122.5 26q87 0 166.5 -43.5t133 -130.5t53.5 -198zM593 342 q0 95 -55.5 159t-145.5 64t-144.5 -63.5t-54.5 -159.5q0 -92 53.5 -154t145.5 -62q93 0 147 61.5t54 154.5z" />
<glyph unicode="R" horiz-adv-x="653" d="M605 0h-149l-205 264h-50v-264h-154l-1 701h332q102 0 157 -57t55 -155q0 -75 -50 -133t-121 -79l186 -242v-35zM439 487q0 70 -85 70h-153v-143l145 -1q47 0 70 21.5t23 52.5z" />
<glyph unicode="S" horiz-adv-x="632" d="M589 220q0 -66 -28.5 -113.5t-74.5 -71t-91.5 -34t-91.5 -10.5q-73 0 -130 22t-137 78l48 136q149 -88 209 -88q59 0 105 21t46 60q0 20 -13.5 34t-39.5 21.5t-42.5 10.5t-43.5 6q-6 1 -9 1q-43 5 -72 10.5t-68.5 20t-63.5 35t-41.5 56t-17.5 82.5q0 65 28 112t73 69 t87.5 31.5t86.5 9.5q135 0 268 -95l-46 -127q-115 75 -222 75q-71 0 -101.5 -21.5t-30.5 -47.5q0 -32 52 -46.5t94 -14.5q43 -4 69.5 -8.5t68.5 -19.5t66.5 -36.5t43.5 -62t19 -95.5z" />
<glyph unicode="T" horiz-adv-x="654" d="M632 557h-226v-557h-158v557h-227v144h611v-144z" />
<glyph unicode="U" horiz-adv-x="720" d="M665 359q0 -170 -82 -269.5t-224 -99.5q-146 0 -230 97.5t-83 262.5q0 58 0.5 176t0.5 175h153v-334q0 -113 42.5 -167t116.5 -54q66 0 109 60t43 165v330h154v-342z" />
<glyph unicode="V" horiz-adv-x="738" d="M695 677l-271 -679h-122l-282 679l-1 24h154l189 -486l184 486h149v-24z" />
<glyph unicode="W" horiz-adv-x="964" d="M933 675l-215 -675h-102l-132 458q-22 -75 -61 -229.5t-60 -228.5h-113l-223 675v26h159l131 -412q16 63 48.5 201.5t51.5 210.5h133l123 -420l118 420h142v-26z" />
<glyph unicode="X" horiz-adv-x="685" d="M635 0h-161l-149 225l-153 -225h-149v26l218 321l-218 327v27h160l147 -222l144 222h151v-26l-212 -318l221 -330z" />
<glyph unicode="Y" horiz-adv-x="666" d="M641 675l-229 -411v-264h-158v270l-228 404v27h154l164 -290l154 290h143v-26z" />
<glyph unicode="Z" horiz-adv-x="627" d="M586 601l-343 -462h329v-139h-538v102l347 461h-338v138h543v-100z" />
<glyph unicode="[" horiz-adv-x="338" d="M289 -91h-243l-1 882h233v-122h-83q0 -107 -0.5 -318.5t-0.5 -318.5h95v-123z" />
<glyph unicode="\" horiz-adv-x="465" d="M476 -66h-114l-371 832h113z" />
<glyph unicode="]" horiz-adv-x="338" d="M295 -91h-243v123h94v637h-84v122h233v-882z" />
<glyph unicode="^" horiz-adv-x="531" d="M484 443h-133l-93 140l-93 -140h-134l185 299h88z" />
<glyph unicode="_" horiz-adv-x="333" d="M357 -149h-365v79h365v-79z" />
<glyph unicode="`" horiz-adv-x="523" d="M429 551h-110l-207 165l17 25h145z" />
<glyph unicode="a" d="M553 0q-20 -3 -48 -3q-77 0 -111 42q-51 -47 -140 -47q-56 0 -103 15t-82.5 55t-35.5 101q0 173 223 173q61 0 101 -14q1 -1 5 -1q0 43 -17 53q-32 21 -85 21q-57 0 -162 -46l-19 101q25 18 83.5 36t102.5 18q108 0 165 -39q42 -29 58 -62t16 -84v-155q0 -31 10.5 -42 t38.5 -2v-120zM362 133v86q-80 11 -95 11q-46 0 -69.5 -18t-23.5 -45q0 -59 84 -59q70 0 104 25z" />
<glyph unicode="b" horiz-adv-x="562" d="M531 255q0 -122 -66 -192t-161 -70q-56 0 -125 42v-35h-144v742h144v-275q54 35 120 35q97 0 164.5 -68t67.5 -179zM387 248q0 50 -26 81.5t-74 31.5q-28 0 -59 -13t-49 -34v-137q20 -18 50.5 -30t57.5 -12q48 0 74 31.5t26 81.5z" />
<glyph unicode="c" horiz-adv-x="545" d="M499 435l-33 -122q-84 55 -172 55q-52 0 -85.5 -36.5t-33.5 -85.5q0 -46 33 -78t86 -32q85 0 160 45l39 -118q-88 -74 -199 -74q-113 0 -189.5 67.5t-76.5 188.5q0 125 76 192.5t190 67.5t205 -70z" />
<glyph unicode="d" horiz-adv-x="578" d="M526 0h-142v41q-50 -48 -110 -48q-101 0 -176.5 67t-75.5 185q0 68 20 119t55 80t78.5 43.5t94.5 14.5q59 0 112 -38v278h144v-742zM382 179v144q-41 43 -100 43q-49 0 -82.5 -33.5t-33.5 -81.5t33.5 -82.5t82.5 -34.5q58 0 100 45z" />
<glyph unicode="e" horiz-adv-x="554" d="M525 207h-349q9 -37 40.5 -60.5t73.5 -23.5q102 0 160 39l43 -103q-74 -69 -208 -69q-113 0 -186 65t-73 190t70.5 192t184.5 67q118 0 181.5 -76t62.5 -221zM381 307q-3 30 -25.5 53.5t-74.5 23.5q-71 0 -97 -77h197z" />
<glyph unicode="f" horiz-adv-x="350" d="M340 724l-15 -138q-24 14 -65 14q-57 0 -57 -68v-39h116v-120h-116v-373h-142v373h-59v120h59v62q0 43 20 86.5t51 68.5q47 36 107 36q47 0 101 -22z" />
<glyph unicode="g" horiz-adv-x="579" d="M527 35q0 -64 -24 -112.5t-63 -75t-81 -39t-86 -12.5q-95 0 -181 63l29 101q73 -43 138 -43q39 0 81 26.5t42 68.5v27q-48 -46 -108 -46q-98 0 -170.5 67.5t-72.5 177.5q0 118 73 191t158 73q30 0 65.5 -14.5t54.5 -36.5v42h145v-458zM382 167v150q-41 43 -99 43 q-48 0 -78 -33.5t-30 -81.5q0 -50 30 -87t78 -37q58 0 99 46z" />
<glyph unicode="h" horiz-adv-x="549" d="M502 0h-144v304q0 66 -59 66q-47 0 -112 -59v-311h-144v742h144v-297q54 56 123 56q84 0 138 -51t54 -130v-320z" />
<glyph unicode="i" horiz-adv-x="218" d="M178 627q0 -32 -21.5 -53.5t-50.5 -21.5q-28 0 -49.5 21.5t-21.5 53.5t21.5 54t49.5 22t50 -22t22 -54zM175 0h-140v493h140v-493z" />
<glyph unicode="j" horiz-adv-x="227" d="M182 -11q0 -43 -20 -87.5t-51 -68.5q-46 -36 -108 -36q-36 0 -84 17l15 141q31 -9 48 -9q24 0 37 9q19 19 19 57v481h144v-504zM182 627q0 -32 -21.5 -53.5t-50.5 -21.5q-28 0 -49.5 21.5t-21.5 53.5t21.5 54t49.5 22t50 -22t22 -54z" />
<glyph unicode="k" horiz-adv-x="523" d="M501 0h-149l-138 214q-5 -4 -14 -12.5t-14 -12.5v-189h-142l-1 742h143v-388l155 139h152v-25l-171 -154l179 -295v-19z" />
<glyph unicode="l" horiz-adv-x="252" d="M191 0h-144v742h144v-742z" />
<glyph unicode="m" horiz-adv-x="850" d="M799 0h-141v306q0 66 -60 66q-43 0 -94 -44v-328h-143v306q0 66 -60 66q-45 0 -112 -59v-313h-143v493h143v-47q55 57 124 57q47 0 89 -20t68 -53q78 73 140 73q84 0 136.5 -51t52.5 -130v-322z" />
<glyph unicode="n" horiz-adv-x="549" d="M502 0h-144v306q0 66 -59 66q-47 0 -112 -59v-313h-144v493h144v-47q55 57 123 57q84 0 138 -51t54 -130v-322z" />
<glyph unicode="o" horiz-adv-x="592" d="M546 245q0 -129 -72 -192.5t-185 -63.5q-110 0 -185 65.5t-75 190.5q0 130 74.5 195t185.5 65q109 0 183 -67t74 -193zM407 246q0 51 -32 85t-86 34q-55 0 -87 -34t-32 -85q0 -48 32.5 -81t86.5 -33t86 32.5t32 81.5z" />
<glyph unicode="p" horiz-adv-x="575" d="M547 251q0 -128 -67 -194t-172 -66q-63 0 -121 40v-231h-144v693h144v-31q49 40 112 40q103 0 175.5 -68t72.5 -183zM403 244q0 53 -33 85t-84 32q-58 0 -99 -46v-140q19 -19 49.5 -31t57.5 -12q50 0 79.5 30.5t29.5 81.5z" />
<glyph unicode="q" horiz-adv-x="562" d="M514 -200h-145v225q-53 -34 -108 -34q-98 0 -170.5 68.5t-72.5 178.5q0 121 73 192t174 71q61 0 110 -54v46h139v-693zM369 178v139q-41 43 -99 43q-49 0 -78.5 -33.5t-29.5 -81.5q0 -49 29.5 -81.5t78.5 -32.5q59 0 99 47z" />
<glyph unicode="r" horiz-adv-x="406" d="M363 492l-4 -158h-12q-6 10 -24 19t-34 9q-29 0 -57.5 -23.5t-45.5 -56.5v-282h-144v493h144v-57q55 67 114 67q43 0 63 -11z" />
<glyph unicode="s" horiz-adv-x="533" d="M497 155q0 -163 -239 -163q-64 0 -116 17.5t-118 58.5l43 97q92 -59 191 -59q31 0 61 10t30 28q0 13 -20 20.5t-36.5 9t-29.5 1.5q-241 0 -241 155q0 52 23 88.5t62.5 53.5t76 23.5t78.5 6.5q72 0 119.5 -16t93.5 -56l-45 -97q-86 56 -168 56q-28 0 -64 -11t-36 -32 q0 -19 37 -26.5t64 -7.5q37 0 70.5 -5t74 -19.5t65 -48.5t24.5 -84z" />
<glyph unicode="t" horiz-adv-x="455" d="M421 84q-28 -36 -74 -60t-81 -24q-60 0 -108 36q-30 23 -50.5 68t-20.5 86v183h-67v120h67v93l143 63v-156h162v-120h-162v-160q0 -38 20 -55q11 -10 37 -10q13 0 43 13t52 37z" />
<glyph unicode="u" horiz-adv-x="556" d="M499 0h-138v48q-70 -56 -121 -56q-84 0 -140.5 50.5t-56.5 127.5v323h143v-302q0 -61 61 -61q43 0 108 53v310h144v-493z" />
<glyph unicode="v" horiz-adv-x="577" d="M541 463l-210 -463h-111l-193 464v29h140l116 -284l116 284h142v-30z" />
<glyph unicode="w" horiz-adv-x="810" d="M782 464l-163 -464h-100l-112 287l-108 -287h-98l-173 464v29h129l94 -255l109 255h96l108 -266l90 266h128v-29z" />
<glyph unicode="x" horiz-adv-x="559" d="M525 0h-144l-109 139l-109 -139h-138v25l171 221l-171 221v26h149l107 -141l108 141h136v-26l-170 -221l170 -221v-25z" />
<glyph unicode="y" horiz-adv-x="576" d="M548 472l-230 -578q-38 -97 -168 -97q-34 0 -92 6v138l30 -3q55 -5 61 -5q28 0 41.5 13t23.5 41l18 51l-213 432v23h145l136 -277l105 277h143v-21z" />
<glyph unicode="z" horiz-adv-x="546" d="M506 0h-471v70l235 292h-235v131h471v-75l-224 -286h224v-132z" />
<glyph unicode="{" horiz-adv-x="354" d="M332 -25q-56 -53 -114 -53q-137 0 -137 182q0 28 5 63q5 33 5 61q0 68 -13 77h1q-6 3 -26 5l-38 2v80l56 4q19 2 19 52q0 23 -4 73q-5 60 -5 74q0 178 138 178q55 0 109 -38l-8 -81q-37 16 -57 16q-26 0 -32.5 -11t-6.5 -45q0 -31 5 -74q4 -50 4 -77q0 -66 -51 -112 q50 -35 50 -125l-3 -66q-3 -34 -3 -67q0 -35 7.5 -47.5t35.5 -12.5q21 0 51 9z" />
<glyph unicode="|" horiz-adv-x="225" d="M176 -66h-126v835h126v-835z" />
<glyph unicode="}" horiz-adv-x="354" d="M334 312l-60 -5q-16 -1 -16 -79q0 -21 4 -61q5 -33 5 -63q0 -182 -137 -182q-64 0 -115 47l14 73q30 -9 51 -9q28 0 35.5 12.5t7.5 47.5q0 33 -3 67q-3 33 -3 66q0 91 49 125q-51 43 -51 112q0 15 5 77q4 50 4 74q0 34 -6.5 45t-32.5 11q-19 0 -57 -16l-10 81 q54 38 112 38q138 0 138 -178q0 -36 -5 -74q-4 -50 -4 -73q0 -50 19 -52l56 -4v-80z" />
<glyph unicode="~" horiz-adv-x="527" d="M494 645q-12 -42 -53.5 -94t-96.5 -52q-40 0 -96 36.5t-71 36.5q-50 0 -81 -70l-68 28q4 23 18 59t48.5 74t75.5 38q33 0 90.5 -41t80.5 -41q51 0 90 65z" />
<glyph unicode="&#xa1;" horiz-adv-x="226" d="M194 620q0 -36 -23 -61.5t-55 -25.5q-33 0 -56 25.5t-23 61.5q0 38 23 63.5t56 25.5q32 0 55 -25.5t23 -63.5zM195 0h-163l22 466h120z" />
<glyph unicode="&#xa2;" horiz-adv-x="462" d="M433 219q-75 -97 -195 -97h-9q-4 -17 -8 -38l-9 -46t-8 -38h-76l29 140q-55 26 -90.5 82t-35.5 135q0 103 62 168.5t144 65.5h9q2 0 4 -0.5t4 -0.5q13 67 23 110h77l-28 -126q56 -22 102 -74l-54 -91q-46 43 -72 53l-48 -227q51 4 121 68l58 -78v-6zM228 476 q-38 -4 -62 -36.5t-24 -84.5q0 -65 40 -100z" />
<glyph unicode="&#xa3;" horiz-adv-x="678" d="M620 0h-537v271h-61v139h61q4 149 78 227t178 78q66 0 118.5 -42.5t84.5 -117.5l-99 -86q-26 52 -48.5 77t-52.5 25q-91 0 -102 -161h123v-139h-124q0 -21 -0.5 -63t-0.5 -64h382v-144z" />
<glyph unicode="&#xa4;" horiz-adv-x="737" d="M476 316q0 51 -32 85t-86 34q-55 0 -87 -34t-32 -85q0 -48 32.5 -81t86.5 -33t86 32.5t32 81.5zM595 19l-101 97q-56 -31 -135 -31q-64 0 -120 25l-103 -99l-72 69l96 92q-43 61 -43 144q0 78 34 131l-94 92l78 77l97 -94q57 27 127 27q84 0 147 -43l99 96l70 -69 l-104 -100q27 -52 27 -117q0 -71 -27 -122l102 -99z" />
<glyph unicode="&#xa5;" horiz-adv-x="642" d="M637 701l-187 -338h72v-106h-126v-54h126v-105h-126v-98h-153v98h-123v105h122v54h-122v106h74l-179 338h156l154 -306l160 306h152z" />
<glyph unicode="&#xa6;" horiz-adv-x="201" d="M150 403h-99v361h99v-361zM150 -64h-99v368h99v-368z" />
<glyph unicode="&#xa7;" horiz-adv-x="571" d="M538 395q0 -68 -53 -116q33 -31 33 -89q0 -56 -36.5 -98.5t-89.5 -63t-98 -30t-78 -9.5q-60 0 -163 39l35 109l12 -4q92 -28 142 -28q37 0 92.5 19.5t55.5 53.5q0 21 -43 21h-4q-34 0 -70 -3q-46 -4 -71 -4q-174 0 -174 136q0 69 56 117q-35 29 -35 87q0 46 24.5 82 t59.5 56.5t78 34.5t76 18.5t58 4.5q72 0 161 -35l-34 -103q-71 24 -133 24q-17 0 -40.5 -2.5t-53.5 -9.5t-50.5 -21.5t-20.5 -34.5q0 -22 64 -22q32 0 67 3q44 4 68 4q165 0 165 -136zM412 385q-4 5 -9 9t-9.5 6.5t-12.5 4t-12 2.5t-13.5 1.5t-12.5 0.5h-13.5h-11.5 q-17 0 -40.5 -2.5t-53.5 -9t-50.5 -21t-20.5 -35.5q0 -12 26.5 -19.5t48 -9.5t34.5 -2q21 0 53 6.5t64.5 25t32.5 43.5z" />
<glyph unicode="&#xa8;" horiz-adv-x="667" d="M492 632q0 -28 -19 -47.5t-45 -19.5t-44.5 19.5t-18.5 47.5t18.5 48t44.5 20t45 -20t19 -48zM299 632q0 -28 -18.5 -47.5t-44.5 -19.5t-45 19.5t-19 47.5t19 48t45 20t44.5 -20t18.5 -48z" />
<glyph unicode="&#xa9;" horiz-adv-x="806" d="M753 339q0 -157 -105 -266t-251 -109t-250.5 109t-104.5 266q0 156 104.5 265t250.5 109t251 -109t105 -265zM691 339q0 124 -85.5 213.5t-208.5 89.5t-209 -89.5t-86 -213.5t86 -213.5t209 -89.5t208.5 89.5t85.5 213.5zM562 203q-24 -32 -68 -58t-102 -26 q-71 0 -127 59.5t-56 160.5q0 97 54.5 158t127.5 61q102 0 165 -79l-38 -68q-31 30 -59 45.5t-66 15.5q-43 0 -73 -37t-30 -97q0 -59 30 -96.5t73 -37.5q58 0 127 63l42 -60v-4z" />
<glyph unicode="&#xaa;" horiz-adv-x="502" d="M441 262h-112v24q-43 -30 -87 -30q-78 0 -135.5 61t-57.5 155q0 105 56.5 167t132.5 62q47 0 95 -40l8 32h100v-431zM329 416v127q-33 39 -80 39q-39 0 -63.5 -30t-24.5 -73q0 -44 24 -74t64 -30q46 0 80 41z" />
<glyph unicode="&#xab;" horiz-adv-x="714" d="M675 79l-309 220v112l309 210v-154l-168 -115l168 -117v-156zM339 79l-309 220v112l309 210v-154l-168 -115l168 -117v-156z" />
<glyph unicode="&#xac;" horiz-adv-x="610" d="M45 489h504l1 -366h-129v244h-376v122z" />
<glyph unicode="&#xad;" horiz-adv-x="413" d="M359 245h-327v123h327v-123z" />
<glyph unicode="&#xae;" horiz-adv-x="806" d="M753 339q0 -157 -105 -266t-251 -109t-250.5 109t-104.5 266q0 156 104.5 265t250.5 109t251 -109t105 -265zM691 339q0 124 -85.5 213.5t-208.5 89.5t-209 -89.5t-86 -213.5t86 -213.5t209 -89.5t208.5 89.5t85.5 213.5zM573 142h-80q-65 103 -107 158h-33v-158h-88v418 h168q62 0 95.5 -31.5t33.5 -92.5q0 -45 -23.5 -79.5t-65.5 -48.5l100 -147v-19zM488 434q0 42 -53 42h-82v-94h77q27 0 42.5 16t15.5 36z" />
<glyph unicode="&#xaf;" horiz-adv-x="481" d="M444 583h-408v92h408v-92z" />
<glyph unicode="&#xb0;" horiz-adv-x="403" d="M353 527q0 -73 -48 -124t-115 -51t-115 51t-48 124t48 124.5t115 51.5t115 -51.5t48 -124.5zM252 527q0 30 -18.5 52t-43.5 22q-26 0 -45 -21.5t-19 -52.5t19 -52t45 -21q25 0 43.5 21.5t18.5 51.5z" />
<glyph unicode="&#xb1;" horiz-adv-x="391" d="M359 327h-118v-138h-90v138h-118v105h118v138h90v-138h118v-105zM358 57h-322v107h322v-107z" />
<glyph unicode="&#xb2;" horiz-adv-x="475" d="M380 540q0 -30 -9.5 -53t-31.5 -41.5t-38 -28.5t-48 -27l-15 -4q-20 -7 -40 -20q-13 -7 -17 -13h197v-89h-302l-7 68q17 47 43.5 74.5t68.5 49.5l6 2q6 2 9 4l11.5 6t12.5 7q75 39 75 65q0 44 -67 44q-57 0 -131 -48l-29 81q85 58 160 58q26 0 50.5 -6.5t48.5 -21 t38.5 -42t14.5 -65.5z" />
<glyph unicode="&#xb3;" horiz-adv-x="475" d="M367 391q0 -38 -16 -65t-41.5 -40.5t-51 -19.5t-51.5 -6q-78 0 -156 56l29 81q70 -46 127 -46q68 0 68 38q0 45 -72 45l-44 -6q-13 34 -1 82q24 -6 45 -6q24 0 48 10t24 31q0 39 -68 39q-56 0 -127 -47l-29 80q82 58 156 58q27 0 52 -5.5t51 -19t41.5 -41t15.5 -66.5 q0 -47 -32 -74q32 -26 32 -78z" />
<glyph unicode="&#xb4;" horiz-adv-x="503" d="M425 728l-214 -170h-96l160 184h141z" />
<glyph unicode="&#xb5;" horiz-adv-x="537" d="M510 -1h-155q-11 33 -12 37q-59 -49 -113 -49q-30 0 -51 14q0 -31 -0.5 -100.5t-0.5 -99.5h-137v692h137v-304q0 -63 59 -63q31 0 101 59v308h138v-357q0 -32 9 -66.5t17 -52.5z" />
<glyph unicode="&#xb6;" horiz-adv-x="702" d="M642 0h-101v558h-42v-558h-109l-1 200h-102q-111 0 -184.5 66.5t-73.5 181.5q0 117 75.5 185t187.5 68h350v-701zM390 339l-1 218h-114q-48 0 -74.5 -31.5t-26.5 -75.5t35 -77.5t86 -33.5h95z" />
<glyph unicode="&#xb7;" horiz-adv-x="250" d="M201 316q0 -39 -23 -66.5t-55 -27.5t-54.5 27.5t-22.5 66.5t22.5 66t54.5 27t55 -27t23 -66z" />
<glyph unicode="&#xb8;" horiz-adv-x="649" d="M467 -148q0 -56 -44.5 -84.5t-96.5 -28.5q-54 0 -107 34l21 73q44 -30 84 -30q27 0 38.5 14.5t11.5 26.5q0 40 -46 40q-15 0 -26 -4.5t-14 -8.5l-3 -4l-71 31l39 125l82 -1l-29 -85q24 12 42 12q44 0 81.5 -25.5t37.5 -84.5z" />
<glyph unicode="&#xb9;" horiz-adv-x="295" d="M195 264h-89v404h89v-404z" />
<glyph unicode="&#xba;" horiz-adv-x="500" d="M470 483q0 -105 -64.5 -164t-149.5 -59t-149.5 59.5t-64.5 163.5q0 108 64.5 167.5t149.5 59.5q84 0 149 -62t65 -165zM350 484q0 43 -26 72.5t-69 29.5t-68.5 -29t-25.5 -73q0 -42 25.5 -70.5t68.5 -28.5t69 28t26 71z" />
<glyph unicode="&#xbb;" horiz-adv-x="726" d="M682 290l-309 -211v155l168 114l-168 118v156l309 -220v-112zM350 290l-309 -211v155l168 114l-168 118v156l309 -220v-112z" />
<glyph unicode="&#xbc;" horiz-adv-x="737" d="M682 89h-48v-90h-88v90h-182v62l211 253h59v-244h48v-71zM548 666l-338 -666h-100l338 666h100zM197 264h-88v404h88v-404zM546 160v97l-82 -97h82z" />
<glyph unicode="&#xbd;" horiz-adv-x="861" d="M762 263q0 -29 -10 -52t-31.5 -41.5t-38.5 -29t-48 -26.5l-14 -5q-21 -6 -40 -20q-12 -5 -19 -12h198v-89h-301l-8 67q17 48 43.5 75.5t69.5 49.5q9 2 14 5l25 14q73 37 73 64q0 22 -14 33.5t-51 11.5q-58 0 -131 -49l-29 81q84 58 160 58q35 0 67 -10.5t58.5 -42.5 t26.5 -82zM525 728l-344 -791h-98l345 791h97zM157 264h-89v404h89v-404z" />
<glyph unicode="&#xbe;" horiz-adv-x="834" d="M796 89h-48v-90h-88v90h-182v62l211 253h59v-244h48v-71zM670 666l-338 -666h-100l337 666h101zM367 391q0 -38 -16 -65t-41.5 -40.5t-51 -19.5t-51.5 -6q-78 0 -156 56l29 81q70 -46 127 -46q68 0 68 38q0 45 -72 45l-44 -6q-13 34 -1 82q24 -6 45 -6q24 0 48 10t24 31 q0 39 -68 39q-56 0 -127 -47l-29 80q82 58 156 58q27 0 52 -5.5t51 -19t41.5 -41t15.5 -66.5q0 -47 -32 -74q32 -26 32 -78zM660 160v97l-82 -97h82z" />
<glyph unicode="&#xbf;" horiz-adv-x="569" d="M409 612q0 -38 -24 -63t-55 -25t-55 25t-24 63t24 63.5t55 25.5t55 -25.5t24 -63.5zM538 92l-1 -6q-110 -94 -246 -94q-35 0 -69 4t-73.5 17.5t-69 34.5t-49 59t-19.5 88q0 43 12.5 76t28 51.5t45 33.5t47 20.5t50.5 13.5q33 9 46.5 13t27.5 15t14 27q0 13 -12 43h131 q13 -36 13 -70q0 -32 -10 -57t-23 -39t-38 -25.5t-41 -16t-45 -11.5q-23 -5 -33.5 -8t-28 -9.5t-25 -13.5t-14 -18.5t-6.5 -26.5q0 -75 142 -75q39 0 73.5 11.5t56 24.5t66.5 45z" />
<glyph unicode="&#xc0;" horiz-adv-x="939" d="M701 0h-157l-48 131h-278l-53 -131h-153l291 703h120zM443 273l-85 220l-87 -220h172zM542 751h-110l-207 165l17 25h145z" />
<glyph unicode="&#xc1;" horiz-adv-x="730" d="M701 0h-157l-48 131h-278l-53 -131h-153l291 703h120zM443 273l-85 220l-87 -220h172zM608 911l-214 -170h-96l160 184h141z" />
<glyph unicode="&#xc2;" horiz-adv-x="939" d="M701 0h-157l-48 131h-278l-53 -131h-153l291 703h120zM443 273l-85 220l-87 -220h172zM549 780h-109l-69 82l-70 -82h-109l141 165h79z" />
<glyph unicode="&#xc3;" horiz-adv-x="939" d="M701 0h-157l-48 131h-278l-53 -131h-153l291 703h120zM443 273l-85 220l-87 -220h172zM566 881q-2 -5 -6 -13.5t-16 -30t-25 -37.5t-32.5 -29.5t-37.5 -13.5q-37 0 -82 33q-42 30 -54 30q-43 0 -66 -60l-49 22q2 5 5 14t13.5 32t22.5 40t31 31.5t39 14.5q39 0 83 -32 q42 -31 54 -31q40 0 74 56z" />
<glyph unicode="&#xc4;" horiz-adv-x="939" d="M701 0h-157l-48 131h-278l-53 -131h-153l291 703h120zM443 273l-85 220l-87 -220h172zM550 824q0 -28 -19 -47.5t-45 -19.5t-44.5 19.5t-18.5 47.5t18.5 48t44.5 20t45 -20t19 -48zM357 824q0 -28 -18.5 -47.5t-44.5 -19.5t-45 19.5t-19 47.5t19 48t45 20t44.5 -20 t18.5 -48z" />
<glyph unicode="&#xc5;" horiz-adv-x="939" d="M701 0h-157l-48 131h-278l-53 -131h-153l291 703h120zM443 273l-85 220l-87 -220h172zM513 884q0 -55 -38.5 -93t-92.5 -38q-53 0 -91.5 38t-38.5 93t38.5 93t91.5 38q54 0 92.5 -38t38.5 -93zM437 884q0 25 -16 43t-40 18q-23 0 -39.5 -18t-16.5 -43q0 -24 16.5 -42 t39.5 -18q24 0 40 18t16 42z" />
<glyph unicode="&#xc6;" horiz-adv-x="1133" d="M570 273v220l-172 -220h172zM1073 0h-508l3 131h-278l-104 -131h-165v21l544 680h497v-144h-335q0 -23 -0.5 -69t-0.5 -70h284v-140h-283v-133h346v-145z" />
<glyph unicode="&#xc7;" horiz-adv-x="698" d="M496 -172q0 -32 -15 -55t-37.5 -34t-43 -16t-37.5 -5q-52 0 -105 34l21 73q31 -21 84 -21q20 0 32 5.5t15.5 11t3.5 11.5q0 22 -10 33t-37 11q-15 0 -26 -4t-14 -8l-3 -5l-70 31l34 112q-107 30 -181.5 121.5t-74.5 229.5q0 81 29.5 150t77 114.5t107 71t120.5 25.5 q88 0 149.5 -29.5t121.5 -83.5l-50 -141q-58 52 -105.5 77.5t-111.5 25.5q-76 0 -129 -58.5t-53 -153.5q0 -94 53.5 -154t128.5 -60q63 0 112.5 26.5t107.5 78.5l60 -122v-7q-26 -26 -46 -42.5t-55 -37.5t-80.5 -31.5t-99.5 -10.5h-3l-20 -62q19 10 40 10q42 0 76 -25.5 t34 -85.5z" />
<glyph unicode="&#xc8;" horiz-adv-x="796" d="M549 0h-503l1 701h491v-144h-335q0 -23 -0.5 -69t-0.5 -70h284v-140h-283v-133h346v-145zM471 751h-110l-207 165l17 25h145z" />
<glyph unicode="&#xc9;" horiz-adv-x="796" d="M549 0h-503l1 701h491v-144h-335q0 -23 -0.5 -69t-0.5 -70h284v-140h-283v-133h346v-145zM504 912l-214 -170h-96l160 184h141z" />
<glyph unicode="&#xca;" horiz-adv-x="796" d="M549 0h-503l1 701h491v-144h-335q0 -23 -0.5 -69t-0.5 -70h284v-140h-283v-133h346v-145zM478 780h-109l-69 82l-70 -82h-109l141 165h79z" />
<glyph unicode="&#xcb;" horiz-adv-x="796" d="M549 0h-503l1 701h491v-144h-335q0 -23 -0.5 -69t-0.5 -70h284v-140h-283v-133h346v-145zM455 832q0 -28 -19 -47.5t-45 -19.5t-44.5 19.5t-18.5 47.5t18.5 48t44.5 20t45 -20t19 -48zM262 832q0 -28 -18.5 -47.5t-44.5 -19.5t-45 19.5t-19 47.5t19 48t45 20t44.5 -20 t18.5 -48z" />
<glyph unicode="&#xcc;" horiz-adv-x="369" d="M216 0h-156v701h156v-701zM258 751h-110l-207 165l17 25h145z" />
<glyph unicode="&#xcd;" horiz-adv-x="277" d="M216 0h-156v701h156v-701zM358 921l-214 -170h-96l160 184h141z" />
<glyph unicode="&#xce;" horiz-adv-x="369" d="M216 0h-156v701h156v-701zM320 754h-109l-69 82l-70 -82h-109l141 165h79z" />
<glyph unicode="&#xcf;" horiz-adv-x="369" d="M216 0h-156v701h156v-701zM258 842q0 -28 -19 -47.5t-45 -19.5t-44.5 19.5t-18.5 47.5t18.5 48t44.5 20t45 -20t19 -48zM65 842q0 -28 -18.5 -47.5t-44.5 -19.5t-45 19.5t-19 47.5t19 48t45 20t44.5 -20t18.5 -48z" />
<glyph unicode="&#xd0;" horiz-adv-x="735" d="M709 351q0 -152 -96 -251.5t-253 -99.5h-269v266h-78v107h78v328h297q142 0 231.5 -103.5t89.5 -246.5zM565 347q0 95 -52 154.5t-163 59.5h-103v-188h88v-107h-89v-125h101q99 0 158.5 60t59.5 146z" />
<glyph unicode="&#xd1;" horiz-adv-x="944" d="M645 0h-75l-354 399q0 -67 -0.5 -200t-0.5 -199h-151v701h94l337 -381l1 381h149v-701zM569 881q-2 -5 -6 -13.5t-16 -30t-25 -37.5t-32.5 -29.5t-37.5 -13.5q-37 0 -82 33q-42 30 -54 30q-43 0 -66 -60l-49 22q2 5 5 14t13.5 32t22.5 40t31 31.5t39 14.5q39 0 83 -32 q42 -31 54 -31q40 0 74 56z" />
<glyph unicode="&#xd2;" horiz-adv-x="783" d="M733 347q0 -88 -30 -159.5t-80.5 -115.5t-112 -67.5t-127.5 -23.5t-128 24t-112 68.5t-80 116t-30 160.5q0 91 30 164t80.5 117t111.5 67t128 23q66 0 128 -25t112 -70.5t80 -118t30 -160.5zM585 347q0 96 -53.5 159t-148.5 63q-96 0 -149 -62.5t-53 -159.5 q0 -92 53 -153t149 -61t149 60t53 154zM452 756h-110l-207 165l17 25h145z" />
<glyph unicode="&#xd3;" horiz-adv-x="771" d="M733 347q0 -88 -30 -159.5t-80.5 -115.5t-112 -67.5t-127.5 -23.5t-128 24t-112 68.5t-80 116t-30 160.5q0 91 30 164t80.5 117t111.5 67t128 23q66 0 128 -25t112 -70.5t80 -118t30 -160.5zM585 347q0 96 -53.5 159t-148.5 63q-96 0 -149 -62.5t-53 -159.5 q0 -92 53 -153t149 -61t149 60t53 154zM567 929l-214 -170h-96l160 184h141z" />
<glyph unicode="&#xd4;" horiz-adv-x="771" d="M733 347q0 -88 -30 -159.5t-80.5 -115.5t-112 -67.5t-127.5 -23.5t-128 24t-112 68.5t-80 116t-30 160.5q0 91 30 164t80.5 117t111.5 67t128 23q66 0 128 -25t112 -70.5t80 -118t30 -160.5zM585 347q0 96 -53.5 159t-148.5 63q-96 0 -149 -62.5t-53 -159.5 q0 -92 53 -153t149 -61t149 60t53 154zM555 765h-109l-69 82l-70 -82h-109l141 165h79z" />
<glyph unicode="&#xd5;" horiz-adv-x="776" d="M733 347q0 -88 -30 -159.5t-80.5 -115.5t-112 -67.5t-127.5 -23.5t-128 24t-112 68.5t-80 116t-30 160.5q0 91 30 164t80.5 117t111.5 67t128 23q66 0 128 -25t112 -70.5t80 -118t30 -160.5zM585 347q0 96 -53.5 159t-148.5 63q-96 0 -149 -62.5t-53 -159.5 q0 -92 53 -153t149 -61t149 60t53 154zM580 888q-2 -5 -6 -13.5t-16 -30t-25 -37.5t-32.5 -29.5t-37.5 -13.5q-37 0 -82 33q-42 30 -54 30q-43 0 -66 -60l-49 22q2 5 5 14t13.5 32t22.5 40t31 31.5t39 14.5q39 0 83 -32q42 -31 54 -31q40 0 74 56z" />
<glyph unicode="&#xd6;" horiz-adv-x="773" d="M733 347q0 -88 -30 -159.5t-80.5 -115.5t-112 -67.5t-127.5 -23.5t-128 24t-112 68.5t-80 116t-30 160.5q0 91 30 164t80.5 117t111.5 67t128 23q66 0 128 -25t112 -70.5t80 -118t30 -160.5zM585 347q0 96 -53.5 159t-148.5 63q-96 0 -149 -62.5t-53 -159.5 q0 -92 53 -153t149 -61t149 60t53 154zM540 825q0 -28 -19 -47.5t-45 -19.5t-44.5 19.5t-18.5 47.5t18.5 48t44.5 20t45 -20t19 -48zM347 825q0 -28 -18.5 -47.5t-44.5 -19.5t-45 19.5t-19 47.5t19 48t45 20t44.5 -20t18.5 -48z" />
<glyph unicode="&#xd7;" horiz-adv-x="431" d="M392 200l-67 -85l-107 133l-106 -133l-70 88l106 133l-106 132l68 84l105 -132l105 129l70 -87l-105 -129z" />
<glyph unicode="&#xd8;" horiz-adv-x="718" d="M698 348q0 -89 -29.5 -161.5t-79 -117t-109.5 -68.5t-124 -24q-62 0 -119 21l-48 -95h-109l73 142q-139 103 -139 303q0 92 30 166t79 119t109 69t124 24q71 0 133 -29l55 109l110 1l-84 -162q59 -49 93.5 -125.5t34.5 -171.5zM417 559q-34 9 -61 9q-92 0 -148.5 -62.5 t-56.5 -157.5q0 -108 71 -167zM562 348q0 98 -62 163l-190 -372q25 -5 46 -5q93 0 149.5 60.5t56.5 153.5z" />
<glyph unicode="&#xd9;" horiz-adv-x="730" d="M665 359q0 -170 -82 -269.5t-224 -99.5q-146 0 -230 97.5t-83 262.5q0 58 0.5 176t0.5 175h153v-334q0 -113 42.5 -167t116.5 -54q66 0 109 60t43 165v330h154v-342zM484 740h-110l-207 165l17 25h145z" />
<glyph unicode="&#xda;" horiz-adv-x="728" d="M665 359q0 -170 -82 -269.5t-224 -99.5q-146 0 -230 97.5t-83 262.5q0 58 0.5 176t0.5 175h153v-334q0 -113 42.5 -167t116.5 -54q66 0 109 60t43 165v330h154v-342zM563 911l-214 -170h-96l160 184h141z" />
<glyph unicode="&#xdb;" horiz-adv-x="728" d="M665 359q0 -170 -82 -269.5t-224 -99.5q-146 0 -230 97.5t-83 262.5q0 58 0.5 176t0.5 175h153v-334q0 -113 42.5 -167t116.5 -54q66 0 109 60t43 165v330h154v-342zM541 741h-109l-69 82l-70 -82h-109l141 165h79z" />
<glyph unicode="&#xdc;" horiz-adv-x="725" d="M665 359q0 -170 -82 -269.5t-224 -99.5q-146 0 -230 97.5t-83 262.5q0 58 0.5 176t0.5 175h153v-334q0 -113 42.5 -167t116.5 -54q66 0 109 60t43 165v330h154v-342zM510 800q0 -28 -19 -47.5t-45 -19.5t-44.5 19.5t-18.5 47.5t18.5 48t44.5 20t45 -20t19 -48zM317 800 q0 -28 -18.5 -47.5t-44.5 -19.5t-45 19.5t-19 47.5t19 48t45 20t44.5 -20t18.5 -48z" />
<glyph unicode="&#xdd;" horiz-adv-x="648" d="M631 675l-229 -411v-264h-158v270l-228 404v27h154l164 -290l154 290h143v-26zM576 903l-214 -170h-96l160 184h141z" />
<glyph unicode="&#xde;" horiz-adv-x="622" d="M571 365q0 -114 -71.5 -176.5t-180.5 -62.5h-117q0 -18 0.5 -63t0.5 -63h-157l1 701h156v-109q18 0 55.5 0.5t55.5 0.5q113 0 185 -56.5t72 -171.5zM429 358q0 41 -26 68t-72 26l-129 -1q0 -35 0.5 -92.5t0.5 -92.5q17 0 54 -0.5t54 -0.5q51 0 84.5 26.5t33.5 66.5z" />
<glyph unicode="&#xdf;" horiz-adv-x="601" d="M51 0v553q0 84 60 140.5t151 56.5q94 0 157 -60.5t63 -146.5q0 -67 -39 -112q51 -18 85.5 -71t34.5 -115q0 -125 -74.5 -188.5t-195.5 -63.5q-33 0 -91 24l15 125q35 -23 72 -23q74 0 107.5 38t33.5 88q0 40 -27.5 68t-60.5 34q-6 0 -19 -1t-42.5 -2.5t-68.5 -1.5v124h26 q121 1 121 77q0 33 -20 58t-69 25q-43 0 -64.5 -21t-21.5 -52v-553h-133z" />
<glyph unicode="&#xe0;" d="M553 0q-20 -3 -48 -3q-77 0 -111 42q-51 -47 -140 -47q-56 0 -103 15t-82.5 55t-35.5 101q0 173 223 173q61 0 101 -14q1 -1 5 -1q0 43 -17 53q-32 21 -85 21q-57 0 -162 -46l-19 101q25 18 83.5 36t102.5 18q108 0 165 -39q42 -29 58 -62t16 -84v-155q0 -31 10.5 -42 t38.5 -2v-120zM403 547h-110l-207 165l17 25h145zM362 133v86q-80 11 -95 11q-46 0 -69.5 -18t-23.5 -45q0 -59 84 -59q70 0 104 25z" />
<glyph unicode="&#xe1;" d="M553 0q-20 -3 -48 -3q-77 0 -111 42q-51 -47 -140 -47q-56 0 -103 15t-82.5 55t-35.5 101q0 173 223 173q61 0 101 -14q1 -1 5 -1q0 43 -17 53q-32 21 -85 21q-57 0 -162 -46l-19 101q25 18 83.5 36t102.5 18q108 0 165 -39q42 -29 58 -62t16 -84v-155q0 -31 10.5 -42 t38.5 -2v-120zM488 728l-214 -170h-96l160 184h141zM362 133v86q-80 11 -95 11q-46 0 -69.5 -18t-23.5 -45q0 -59 84 -59q70 0 104 25z" />
<glyph unicode="&#xe2;" d="M553 0q-20 -3 -48 -3q-77 0 -111 42q-51 -47 -140 -47q-56 0 -103 15t-82.5 55t-35.5 101q0 173 223 173q61 0 101 -14q1 -1 5 -1q0 43 -17 53q-32 21 -85 21q-57 0 -162 -46l-19 101q25 18 83.5 36t102.5 18q108 0 165 -39q42 -29 58 -62t16 -84v-155q0 -31 10.5 -42 t38.5 -2v-120zM454 562h-109l-69 82l-70 -82h-109l141 165h79zM362 133v86q-80 11 -95 11q-46 0 -69.5 -18t-23.5 -45q0 -59 84 -59q70 0 104 25z" />
<glyph unicode="&#xe3;" d="M553 0q-20 -3 -48 -3q-77 0 -111 42q-51 -47 -140 -47q-56 0 -103 15t-82.5 55t-35.5 101q0 173 223 173q61 0 101 -14q1 -1 5 -1q0 43 -17 53q-32 21 -85 21q-57 0 -162 -46l-19 101q25 18 83.5 36t102.5 18q108 0 165 -39q42 -29 58 -62t16 -84v-155q0 -31 10.5 -42 t38.5 -2v-120zM465 702q-2 -5 -6 -13.5t-16 -30t-25 -37.5t-32.5 -29.5t-37.5 -13.5q-37 0 -82 33q-42 30 -54 30q-43 0 -66 -60l-49 22q2 5 5 14t13.5 32t22.5 40t31 31.5t39 14.5q39 0 83 -32q42 -31 54 -31q40 0 74 56zM362 133v86q-80 11 -95 11q-46 0 -69.5 -18 t-23.5 -45q0 -59 84 -59q70 0 104 25z" />
<glyph unicode="&#xe4;" d="M553 0q-20 -3 -48 -3q-77 0 -111 42q-51 -47 -140 -47q-56 0 -103 15t-82.5 55t-35.5 101q0 173 223 173q61 0 101 -14q1 -1 5 -1q0 43 -17 53q-32 21 -85 21q-57 0 -162 -46l-19 101q25 18 83.5 36t102.5 18q108 0 165 -39q42 -29 58 -62t16 -84v-155q0 -31 10.5 -42 t38.5 -2v-120zM362 133v86q-80 11 -95 11q-46 0 -69.5 -18t-23.5 -45q0 -59 84 -59q70 0 104 25zM261 632q0 -28 -18.5 -47.5t-44.5 -19.5t-45 19.5t-19 47.5t19 48t45 20t44.5 -20t18.5 -48zM454 632q0 -28 -19 -47.5t-45 -19.5t-44.5 19.5t-18.5 47.5t18.5 48t44.5 20 t45 -20t19 -48z" />
<glyph unicode="&#xe5;" d="M553 0q-20 -3 -48 -3q-77 0 -111 42q-51 -47 -140 -47q-56 0 -103 15t-82.5 55t-35.5 101q0 173 223 173q61 0 101 -14q1 -1 5 -1q0 43 -17 53q-32 21 -85 21q-57 0 -162 -46l-19 101q25 18 83.5 36t102.5 18q108 0 165 -39q42 -29 58 -62t16 -84v-155q0 -31 10.5 -42 t38.5 -2v-120zM424 684q0 -55 -38.5 -93t-92.5 -38q-53 0 -91.5 38t-38.5 93t38.5 93t91.5 38q54 0 92.5 -38t38.5 -93zM362 133v86q-80 11 -95 11q-46 0 -69.5 -18t-23.5 -45q0 -59 84 -59q70 0 104 25zM348 684q0 25 -16 43t-40 18q-23 0 -39.5 -18t-16.5 -43 q0 -24 16.5 -42t39.5 -18q24 0 40 18t16 42z" />
<glyph unicode="&#xe6;" horiz-adv-x="891" d="M834 257v-37q-54 -15 -179 -15h-29q-73 0 -131 7q4 -41 38 -68.5t77 -27.5q98 0 177 53l37 -94q-42 -35 -101 -58.5t-116 -23.5q-120 0 -180 72q-31 -31 -43 -37q-49 -36 -128 -36q-85 0 -153.5 46t-68.5 125q0 88 67 129t156 41q14 0 32 -2.5t39 -7t30 -5.5h2t3 -1 q0 40 -18 53q-28 18 -89 18t-155 -41l-30 95q27 24 84.5 43t109.5 19q119 0 177 -68q24 29 68 47.5t88 18.5q104 0 170 -69t66 -176zM374 145q-6 17 -8 43q-4 20 -4 39q-57 11 -92 11q-46 0 -68 -19t-22 -48q0 -63 82 -63q71 0 112 37zM707 288q-3 34 -26 62.5t-76 28.5 q-33 0 -59.5 -24.5t-39.5 -61.5l90 -6h60q38 0 51 1z" />
<glyph unicode="&#xe7;" horiz-adv-x="519" d="M372 -170q0 -32 -13.5 -56t-34.5 -35t-39 -16t-34 -5q-49 0 -96 35l19 74q29 -22 77 -22q26 0 36 9.5t10 19.5q0 22 -9 33t-34 11q-14 0 -23.5 -4t-12.5 -8l-3 -5l-64 31l30 112q-72 23 -115 85t-43 158q0 126 69 193t173 67q51 0 108.5 -22.5t100.5 -61.5l-51 -108 q-72 53 -158 53q-47 0 -78 -35.5t-31 -84.5q0 -46 30.5 -77.5t78.5 -31.5q83 0 147 43l52 -108q-91 -84 -199 -84h-12l-18 -58q17 10 38 10q38 0 68.5 -26t30.5 -86z" />
<glyph unicode="&#xe8;" horiz-adv-x="693" d="M525 207h-349q9 -37 40.5 -60.5t73.5 -23.5q102 0 160 39l43 -103q-74 -69 -208 -69q-113 0 -186 65t-73 190t70.5 192t184.5 67q118 0 181.5 -76t62.5 -221zM381 307q-3 30 -25.5 53.5t-74.5 23.5q-71 0 -97 -77h197zM420 551h-110l-207 165l17 25h145z" />
<glyph unicode="&#xe9;" horiz-adv-x="563" d="M525 207h-349q9 -37 40.5 -60.5t73.5 -23.5q102 0 160 39l43 -103q-74 -69 -208 -69q-113 0 -186 65t-73 190t70.5 192t184.5 67q118 0 181.5 -76t62.5 -221zM381 307q-3 30 -25.5 53.5t-74.5 23.5q-71 0 -97 -77h197zM477 730l-214 -170h-96l160 184h141z" />
<glyph unicode="&#xea;" horiz-adv-x="693" d="M525 207h-349q9 -37 40.5 -60.5t73.5 -23.5q102 0 160 39l43 -103q-74 -69 -208 -69q-113 0 -186 65t-73 190t70.5 192t184.5 67q118 0 181.5 -76t62.5 -221zM381 307q-3 30 -25.5 53.5t-74.5 23.5q-71 0 -97 -77h197zM426 580h-109l-69 82l-70 -82h-109l141 165h79z" />
<glyph unicode="&#xeb;" horiz-adv-x="693" d="M525 207h-349q9 -37 40.5 -60.5t73.5 -23.5q102 0 160 39l43 -103q-74 -69 -208 -69q-113 0 -186 65t-73 190t70.5 192t184.5 67q118 0 181.5 -76t62.5 -221zM381 307q-3 30 -25.5 53.5t-74.5 23.5q-71 0 -97 -77h197zM404 632q0 -28 -19 -47.5t-45 -19.5t-44.5 19.5 t-18.5 47.5t18.5 48t44.5 20t45 -20t19 -48zM211 632q0 -28 -18.5 -47.5t-44.5 -19.5t-45 19.5t-19 47.5t19 48t45 20t44.5 -20t18.5 -48z" />
<glyph unicode="&#xec;" horiz-adv-x="344" d="M293 562h-126l-258 182l16 20h181zM270 0h-172v492h172v-492z" />
<glyph unicode="&#xed;" horiz-adv-x="242" d="M180 0h-142v493h142v-493zM346 728l-214 -170h-96l160 184h141z" />
<glyph unicode="&#xee;" horiz-adv-x="344" d="M386 560h-136l-87 82l-87 -82h-137l177 185h98zM251 0h-172v492h172v-492z" />
<glyph unicode="&#xef;" horiz-adv-x="344" d="M363 645q0 -31 -22.5 -52t-54.5 -21q-31 0 -54 21.5t-23 51.5t22.5 51.5t54.5 21.5t54.5 -21.5t22.5 -51.5zM95 645q0 -31 -22.5 -52t-54.5 -21t-54.5 21t-22.5 52q0 30 22.5 51.5t54.5 21.5t54.5 -21.5t22.5 -51.5zM241 0h-172v492h172v-492z" />
<glyph unicode="&#xf0;" horiz-adv-x="582" d="M546 323q0 -143 -66.5 -237t-192.5 -94q-107 0 -184 68t-77 187q0 122 76 190t186 68q48 0 112 -36q-13 62 -84 115q-4 -9 -10.5 -21t-11.5 -23l-68 42l20 37q-42 19 -103 19l33 125q67 0 128 -23q27 65 29 69l63 -48l-26 -58q35 -25 68 -62q108 -135 108 -318zM407 249 q0 54 -34.5 86.5t-85.5 32.5t-85.5 -32.5t-34.5 -86.5q0 -52 34.5 -82.5t85.5 -30.5t85.5 30.5t34.5 82.5z" />
<glyph unicode="&#xf1;" horiz-adv-x="686" d="M502 0h-144v306q0 66 -59 66q-47 0 -112 -59v-313h-144v493h144v-47q55 57 123 57q84 0 138 -51t54 -130v-322zM440 681q-2 -5 -6 -13.5t-16 -30t-25 -37.5t-32.5 -29.5t-37.5 -13.5q-37 0 -82 33q-42 30 -54 30q-43 0 -66 -60l-49 22q2 5 5 14t13.5 32t22.5 40t31 31.5 t39 14.5q39 0 83 -32q42 -31 54 -31q40 0 74 56z" />
<glyph unicode="&#xf2;" horiz-adv-x="740" d="M546 245q0 -129 -72 -192.5t-185 -63.5q-110 0 -185 65.5t-75 190.5q0 130 74.5 195t185.5 65q109 0 183 -67t74 -193zM407 246q0 51 -32 85t-86 34q-55 0 -87 -34t-32 -85q0 -48 32.5 -81t86.5 -33t86 32.5t32 81.5zM443 551h-110l-207 165l17 25h145z" />
<glyph unicode="&#xf3;" horiz-adv-x="581" d="M546 245q0 -129 -72 -192.5t-185 -63.5q-110 0 -185 65.5t-75 190.5q0 130 74.5 195t185.5 65q109 0 183 -67t74 -193zM407 246q0 51 -32 85t-86 34q-55 0 -87 -34t-32 -85q0 -48 32.5 -81t86.5 -33t86 32.5t32 81.5zM500 728l-214 -170h-96l160 184h141z" />
<glyph unicode="&#xf4;" horiz-adv-x="579" d="M546 245q0 -129 -72 -192.5t-185 -63.5q-110 0 -185 65.5t-75 190.5q0 130 74.5 195t185.5 65q109 0 183 -67t74 -193zM407 246q0 51 -32 85t-86 34q-55 0 -87 -34t-32 -85q0 -48 32.5 -81t86.5 -33t86 32.5t32 81.5zM470 577h-109l-69 82l-70 -82h-109l141 165h79z" />
<glyph unicode="&#xf5;" horiz-adv-x="575" d="M546 245q0 -129 -72 -192.5t-185 -63.5q-110 0 -185 65.5t-75 190.5q0 130 74.5 195t185.5 65q109 0 183 -67t74 -193zM407 246q0 51 -32 85t-86 34q-55 0 -87 -34t-32 -85q0 -48 32.5 -81t86.5 -33t86 32.5t32 81.5zM470 691q-2 -5 -6 -13.5t-16 -30t-25 -37.5 t-32.5 -29.5t-37.5 -13.5q-37 0 -82 33q-42 30 -54 30q-43 0 -66 -60l-49 22q2 5 5 14t13.5 32t22.5 40t31 31.5t39 14.5q39 0 83 -32q42 -31 54 -31q40 0 74 56z" />
<glyph unicode="&#xf6;" horiz-adv-x="579" d="M546 245q0 -129 -72 -192.5t-185 -63.5q-110 0 -185 65.5t-75 190.5q0 130 74.5 195t185.5 65q109 0 183 -67t74 -193zM407 246q0 51 -32 85t-86 34q-55 0 -87 -34t-32 -85q0 -48 32.5 -81t86.5 -33t86 32.5t32 81.5zM448 640q0 -28 -19 -47.5t-45 -19.5t-44.5 19.5 t-18.5 47.5t18.5 48t44.5 20t45 -20t19 -48zM255 640q0 -28 -18.5 -47.5t-44.5 -19.5t-45 19.5t-19 47.5t19 48t45 20t44.5 -20t18.5 -48z" />
<glyph unicode="&#xf7;" horiz-adv-x="558" d="M350 564q0 -37 -21.5 -63t-52.5 -26t-52.5 26t-21.5 63t21.5 63t52.5 26t52.5 -26t21.5 -63zM499 278h-442v123h442v-123zM357 113q0 -37 -21.5 -63t-52.5 -26t-52.5 26t-21.5 63t21.5 63t52.5 26t52.5 -26t21.5 -63z" />
<glyph unicode="&#xf8;" horiz-adv-x="607" d="M572 245q0 -122 -80 -189.5t-191 -67.5q-31 0 -63 6l-47 -101h-109l66 141q-113 70 -113 211q0 124 81.5 192t192.5 68q33 0 57 -5l67 142h110l-85 -182q53 -33 83.5 -88t30.5 -127zM428 246q0 48 -32 82l-92 -195q57 0 90.5 32.5t33.5 80.5zM312 369q-60 3 -96.5 -27 t-33.5 -96q2 -46 30 -76q14 30 50 99.5t50 99.5z" />
<glyph unicode="&#xf9;" horiz-adv-x="695" d="M499 0h-138v48q-70 -56 -121 -56q-84 0 -140.5 50.5t-56.5 127.5v323h143v-302q0 -61 61 -61q43 0 108 53v310h144v-493zM421 551h-110l-207 165l17 25h145z" />
<glyph unicode="&#xfa;" horiz-adv-x="556" d="M499 0h-138v48q-70 -56 -121 -56q-84 0 -140.5 50.5t-56.5 127.5v323h143v-302q0 -61 61 -61q43 0 108 53v310h144v-493zM474 728l-214 -170h-96l160 184h141z" />
<glyph unicode="&#xfb;" horiz-adv-x="695" d="M499 0h-138v48q-70 -56 -121 -56q-84 0 -140.5 50.5t-56.5 127.5v323h143v-302q0 -61 61 -61q43 0 108 53v310h144v-493zM427 580h-109l-69 82l-70 -82h-109l141 165h79z" />
<glyph unicode="&#xfc;" horiz-adv-x="560" d="M499 0h-138v48q-70 -56 -121 -56q-84 0 -140.5 50.5t-56.5 127.5v323h143v-302q0 -61 61 -61q43 0 108 53v310h144v-493zM418 640q0 -28 -19 -47.5t-45 -19.5t-44.5 19.5t-18.5 47.5t18.5 48t44.5 20t45 -20t19 -48zM225 640q0 -28 -18.5 -47.5t-44.5 -19.5t-45 19.5 t-19 47.5t19 48t45 20t44.5 -20t18.5 -48z" />
<glyph unicode="&#xfd;" horiz-adv-x="594" d="M548 472l-230 -578q-38 -97 -168 -97q-34 0 -92 6v138l30 -3q55 -5 61 -5q28 0 41.5 13t23.5 41l18 51l-213 432v23h145l136 -277l105 277h143v-21zM507 728l-214 -170h-96l160 184h141z" />
<glyph unicode="&#xfe;" horiz-adv-x="583" d="M542 254q0 -122 -70 -193t-166 -71q-58 0 -115 41v-220h-145v931h145v-272q53 34 107 34q98 0 171 -69.5t73 -180.5zM398 247q0 49 -29.5 81.5t-78.5 32.5q-58 0 -99 -46v-139q42 -42 101 -42q48 0 77 32t29 81z" />
<glyph unicode="&#xff;" horiz-adv-x="752" d="M548 472l-230 -578q-38 -97 -168 -97q-34 0 -92 6v138l30 -3q55 -5 61 -5q28 0 41.5 13t23.5 41l18 51l-213 432v23h145l136 -277l105 277h143v-21zM455 632q0 -28 -19 -47.5t-45 -19.5t-44.5 19.5t-18.5 47.5t18.5 48t44.5 20t45 -20t19 -48zM262 632q0 -28 -18.5 -47.5 t-44.5 -19.5t-45 19.5t-19 47.5t19 48t45 20t44.5 -20t18.5 -48z" />
<glyph unicode="&#x152;" horiz-adv-x="1110" d="M1067 -1h-572q-62 -20 -122 -20q-66 0 -128.5 24t-113.5 68.5t-82 116t-31 159.5q0 91 30.5 164.5t82 118.5t113.5 69t129 24q61 0 121 -21h564v-144h-386q42 -68 52 -147h281v-141h-283q-11 -66 -46 -126h391v-145zM587 347q0 94 -59 157t-155 63t-155 -62.5t-59 -157.5 q0 -90 59 -151t155 -61q97 0 155.5 60t58.5 152z" />
<glyph unicode="&#x153;" horiz-adv-x="936" d="M902 237v-47h-340q13 -25 44.5 -46t68.5 -21q99 0 172 49l45 -97q-40 -35 -99.5 -58.5t-117.5 -23.5q-111 0 -186 75q-73 -76 -194 -76q-110 0 -191.5 66.5t-81.5 185.5q0 123 81 190t192 67q116 0 189 -75q72 76 182 76q88 0 147.5 -53t81.5 -135q7 -27 7 -77zM431 246 q0 53 -37 90t-98 37t-98 -36.5t-37 -90.5q0 -52 37 -87.5t98 -35.5t98 35t37 88zM770 300q-13 79 -104 79q-33 0 -58.5 -21t-38.5 -58h201z" />
<glyph unicode="&#x178;" horiz-adv-x="854" d="M641 675l-229 -411v-264h-158v270l-228 404v27h154l164 -290l154 290h143v-26zM319 832q0 -28 -18.5 -47.5t-44.5 -19.5t-45 19.5t-19 47.5t19 48t45 20t44.5 -20t18.5 -48zM512 832q0 -28 -19 -47.5t-45 -19.5t-44.5 19.5t-18.5 47.5t18.5 48t44.5 20t45 -20t19 -48z " />
<glyph unicode="&#x2c6;" horiz-adv-x="734" d="M535 580h-109l-69 82l-70 -82h-109l141 165h79z" />
<glyph unicode="&#x2dc;" horiz-adv-x="718" d="M531 681q-2 -5 -6 -13.5t-16 -30t-25 -37.5t-32.5 -29.5t-37.5 -13.5q-37 0 -82 33q-42 30 -54 30q-43 0 -66 -60l-49 22q2 5 5 14t13.5 32t22.5 40t31 31.5t39 14.5q39 0 83 -32q42 -31 54 -31q40 0 74 56z" />
<glyph unicode="&#x2000;" horiz-adv-x="507" />
<glyph unicode="&#x2001;" horiz-adv-x="1015" />
<glyph unicode="&#x2002;" horiz-adv-x="507" />
<glyph unicode="&#x2003;" horiz-adv-x="1015" />
<glyph unicode="&#x2004;" horiz-adv-x="338" />
<glyph unicode="&#x2005;" horiz-adv-x="253" />
<glyph unicode="&#x2006;" horiz-adv-x="169" />
<glyph unicode="&#x2007;" horiz-adv-x="169" />
<glyph unicode="&#x2008;" horiz-adv-x="126" />
<glyph unicode="&#x2009;" horiz-adv-x="203" />
<glyph unicode="&#x200a;" horiz-adv-x="56" />
<glyph unicode="&#x2010;" horiz-adv-x="413" d="M359 245h-327v123h327v-123z" />
<glyph unicode="&#x2011;" horiz-adv-x="413" d="M359 245h-327v123h327v-123z" />
<glyph unicode="&#x2013;" horiz-adv-x="540" d="M496 258h-458v132h458v-132z" />
<glyph unicode="&#x2014;" horiz-adv-x="934" d="M890 258h-852v132h852v-132z" />
<glyph unicode="&#x2018;" horiz-adv-x="229" d="M200 498q0 -38 -24 -63t-56 -25q-37 0 -56 30.5t-19 74.5q0 58 36 116.5t85 78.5l29 -53q-45 -37 -54 -87q27 -2 43 -21t16 -51z" />
<glyph unicode="&#x2019;" horiz-adv-x="216" d="M185 595q0 -58 -36 -116.5t-86 -78.5l-29 53q45 37 54 87q-26 2 -42 21t-16 51q0 39 23 63.5t57 24.5q37 0 56 -30.5t19 -74.5z" />
<glyph unicode="&#x201a;" horiz-adv-x="216" d="M188 191q0 -60 -37 -119.5t-89 -81.5l-32 60q44 36 54 82q-26 3 -42 23.5t-16 52.5q0 40 25 66t59 26q39 0 58.5 -32t19.5 -77z" />
<glyph unicode="&#x201c;" horiz-adv-x="470" d="M416 498q0 -38 -24 -63t-56 -25q-37 0 -56 30.5t-19 74.5q0 58 36 116.5t85 78.5l29 -53q-45 -37 -54 -87q27 -2 43 -21t16 -51zM200 498q0 -38 -24 -63t-56 -25q-37 0 -56 30.5t-19 74.5q0 58 36 116.5t85 78.5l29 -53q-45 -37 -54 -87q27 -2 43 -21t16 -51z" />
<glyph unicode="&#x201d;" horiz-adv-x="457" d="M424 595q0 -58 -36.5 -116.5t-85.5 -78.5l-28 53q44 38 53 87q-26 2 -42 21t-16 51q0 39 23.5 63.5t55.5 24.5q37 0 56.5 -30.5t19.5 -74.5zM200 595q0 -58 -36.5 -116.5t-85.5 -78.5l-28 53q44 38 53 87q-26 2 -42 21t-16 51q0 39 23.5 63.5t55.5 24.5q37 0 56.5 -30.5 t19.5 -74.5z" />
<glyph unicode="&#x201e;" horiz-adv-x="458" d="M411 189q0 -60 -37.5 -119.5t-88.5 -80.5l-33 59q43 36 54 82q-26 3 -41.5 23t-15.5 53q0 41 24.5 66.5t58.5 25.5q39 0 59 -32t20 -77zM203 189q0 -60 -37.5 -119.5t-88.5 -80.5l-33 59q45 37 54 82q-26 3 -41.5 23t-15.5 53q0 41 24.5 66.5t58.5 25.5q39 0 59 -32 t20 -77z" />
<glyph unicode="&#x2022;" horiz-adv-x="396" d="M354 347q0 -64 -48.5 -107.5t-115.5 -43.5q-66 0 -114 43.5t-48 107.5t48 107t114 43q67 0 115.5 -43t48.5 -107z" />
<glyph unicode="&#x2026;" horiz-adv-x="746" d="M690 74q0 -35 -22.5 -60.5t-54.5 -25.5t-54.5 25.5t-22.5 60.5q0 36 22.5 61t54.5 25t54.5 -25t22.5 -61zM447 74q0 -35 -22.5 -60.5t-54.5 -25.5t-54.5 25.5t-22.5 60.5q0 36 22.5 61t54.5 25t54.5 -25t22.5 -61zM204 74q0 -35 -22.5 -60.5t-54.5 -25.5t-54.5 25.5 t-22.5 60.5q0 36 22.5 61t54.5 25t54.5 -25t22.5 -61z" />
<glyph unicode="&#x202f;" horiz-adv-x="203" />
<glyph unicode="&#x2039;" horiz-adv-x="385" d="M337 79l-308 220v112l308 210v-154l-168 -115l168 -117v-156z" />
<glyph unicode="&#x203a;" horiz-adv-x="377" d="M337 290l-308 -211v155l168 114l-168 118v156l308 -220v-112z" />
<glyph unicode="&#x205f;" horiz-adv-x="253" />
<glyph unicode="&#x20ac;" horiz-adv-x="735" d="M635 251l62 -127q-49 -68 -126 -102t-158 -34q-98 0 -179.5 67.5t-110.5 184.5h-96l35 75h49q0 1 -0.5 4t-0.5 5q-2 34 -1 50h-82l36 79h55q25 121 109 194.5t185 73.5q175 0 277 -125l-58 -122q-104 101 -216 101q-51 0 -93 -32t-61 -90h216l-36 -79h-194q-2 -20 0 -59 h230l-35 -75h-174q21 -50 60.5 -78.5t85.5 -28.5q109 0 221 118z" />
<glyph unicode="&#x2122;" horiz-adv-x="901" d="M850 284h-92v201l-110 -194h-32l-105 192q0 -33 -0.5 -100t-0.5 -99h-92v417h72l146 -264l154 264h60v-417zM391 597h-136v-313h-93v313h-137v104h366v-104z" />
</font>
</defs>
</svg>
